AbhayaLibre_0.ufo
<glyph name="uni0022" format="1">
  <advance width="306"/>
  <unicode hex="0022"/>
  <outline>
    <contour>
      <point x="92" y="655" type="curve" smooth="yes"/>
      <point x="67" y="655"/>
      <point x="50" y="638"/>
      <point x="50" y="613" type="curve" smooth="yes"/>
      <point x="50" y="580"/>
      <point x="74" y="522"/>
      <point x="78" y="450" type="curve"/>
      <point x="105" y="450" type="line"/>
      <point x="109" y="519"/>
      <point x="133" y="581"/>
      <point x="133" y="614" type="curve" smooth="yes"/>
      <point x="133" y="637"/>
      <point x="118" y="655"/>
    </contour>
    <contour>
      <point x="215" y="655" type="curve" smooth="yes"/>
      <point x="188" y="655"/>
      <point x="173" y="638"/>
      <point x="173" y="613" type="curve" smooth="yes"/>
      <point x="173" y="580"/>
      <point x="197" y="522"/>
      <point x="201" y="450" type="curve"/>
      <point x="228" y="450" type="line"/>
      <point x="232" y="519"/>
      <point x="256" y="581"/>
      <point x="256" y="614" type="curve" smooth="yes"/>
      <point x="256" y="637"/>
      <point x="241" y="655"/>
    </contour>
  </outline>
</glyph>
<glyph name="uni002E" format="1">
  <advance width="208"/>
  <unicode hex="002E"/>
  <outline>
    <contour>
      <point x="41" y="45" type="curve" smooth="yes"/>
      <point x="41" y="74"/>
      <point x="67" y="99"/>
      <point x="96" y="99" type="curve" smooth="yes"/>
      <point x="125" y="99"/>
      <point x="151" y="74"/>
      <point x="151" y="46" type="curve" smooth="yes"/>
      <point x="151" y="15"/>
      <point x="126" y="-9"/>
      <point x="95" y="-9" type="curve" smooth="yes"/>
      <point x="80" y="-9"/>
      <point x="68" y="-4"/>
      <point x="57" y="7" type="curve" smooth="yes"/>
      <point x="46" y="18"/>
      <point x="41" y="30"/>
    </contour>
  </outline>
</glyph>
<glyph name="uni0034" format="1">
  <advance width="496"/>
  <unicode hex="0034"/>
  <outline>
    <contour>
      <point x="368" y="493" type="curve" smooth="yes"/>
      <point x="368" y="524"/>
      <point x="352" y="540"/>
      <point x="323" y="540" type="curve" smooth="yes"/>
      <point x="230" y="540"/>
      <point x="301" y="357"/>
      <point x="10" y="118" type="curve"/>
      <point x="41" y="107" type="line"/>
      <point x="239" y="269"/>
      <point x="368" y="408"/>
    </contour>
    <contour>
      <point x="456" y="-65" type="line"/>
      <point x="456" y="-42"/>
      <point x="451" y="-38"/>
      <point x="432" y="-38" type="curve" smooth="yes"/>
      <point x="181" y="-38" type="line"/>
      <point x="181" y="-65" type="line"/>
    </contour>
    <contour>
      <point x="456" y="116" type="line"/>
      <point x="10" y="118" type="line"/>
      <point x="16" y="88" type="line"/>
      <point x="456" y="86" type="line"/>
    </contour>
    <contour>
      <point x="364" y="-65" type="line"/>
      <point x="364" y="312" type="line"/>
      <point x="344" y="312" type="line"/>
      <point x="334" y="274" type="line" smooth="yes"/>
      <point x="326" y="242"/>
      <point x="320" y="234"/>
      <point x="294" y="233" type="curve" smooth="yes"/>
      <point x="288" y="233" type="line"/>
      <point x="288" y="-65" type="line"/>
    </contour>
  </outline>
</glyph>
<glyph name="uni0038" format="1">
  <advance width="548"/>
  <unicode hex="0038"/>
  <outline>
    <contour>
      <point x="99" y="149" type="curve" smooth="yes"/>
      <point x="99" y="63"/>
      <point x="175" y="18"/>
      <point x="253" y="18" type="curve" smooth="yes"/>
      <point x="334" y="18"/>
      <point x="400" y="53"/>
      <point x="400" y="130" type="curve" smooth="yes"/>
      <point x="400" y="282"/>
      <point x="86" y="286"/>
      <point x="86" y="454" type="curve" smooth="yes"/>
      <point x="86" y="554"/>
      <point x="171" y="610"/>
      <point x="273" y="610" type="curve" smooth="yes"/>
      <point x="358" y="610"/>
      <point x="444" y="563"/>
      <point x="444" y="465" type="curve" smooth="yes"/>
      <point x="444" y="402"/>
      <point x="404" y="333"/>
      <point x="308" y="301" type="curve"/>
      <point x="284" y="320" type="line"/>
      <point x="372" y="341"/>
      <point x="410" y="406"/>
      <point x="410" y="464" type="curve" smooth="yes"/>
      <point x="410" y="541"/>
      <point x="344" y="582"/>
      <point x="281" y="582" type="curve" smooth="yes"/>
      <point x="209" y="582"/>
      <point x="164" y="548"/>
      <point x="164" y="490" type="curve" smooth="yes"/>
      <point x="164" y="329"/>
      <point x="478" y="331"/>
      <point x="478" y="154" type="curve" smooth="yes"/>
      <point x="478" y="53"/>
      <point x="373" y="-10"/>
      <point x="260" y="-10" type="curve" smooth="yes"/>
      <point x="152" y="-10"/>
      <point x="65" y="45"/>
      <point x="65" y="147" type="curve" smooth="yes"/>
      <point x="65" y="209"/>
      <point x="102" y="281"/>
      <point x="209" y="308" type="curve"/>
      <point x="255" y="292" type="line"/>
      <point x="142" y="276"/>
      <point x="99" y="206"/>
    </contour>
  </outline>
</glyph>
<glyph name="uni0039" format="1">
  <advance width="518"/>
  <unicode hex="0039"/>
  <outline>
    <contour>
      <point x="458" y="244" type="curve" smooth="yes"/>
      <point x="458" y="417"/>
      <point x="387" y="521"/>
      <point x="243" y="521" type="curve" smooth="yes"/>
      <point x="128" y="521"/>
      <point x="45" y="453"/>
      <point x="45" y="347" type="curve" smooth="yes"/>
      <point x="45" y="244"/>
      <point x="131" y="182"/>
      <point x="232" y="182" type="curve" smooth="yes"/>
      <point x="288" y="182"/>
      <point x="348" y="204"/>
      <point x="389" y="251" type="curve"/>
      <point x="368" y="252" type="line"/>
      <point x="368" y="98"/>
      <point x="346" y="-45"/>
      <point x="234" y="-45" type="curve" smooth="yes"/>
      <point x="111" y="-45"/>
      <point x="206" y="83"/>
      <point x="115" y="83" type="curve" smooth="yes"/>
      <point x="86" y="83"/>
      <point x="67" y="64"/>
      <point x="68" y="33" type="curve" smooth="yes"/>
      <point x="68" y="-26"/>
      <point x="137" y="-72"/>
      <point x="221" y="-70" type="curve" smooth="yes"/>
      <point x="395" y="-66"/>
      <point x="458" y="83"/>
    </contour>
    <contour>
      <point x="130" y="361" type="curve" smooth="yes"/>
      <point x="130" y="437"/>
      <point x="160" y="496"/>
      <point x="246" y="496" type="curve" smooth="yes"/>
      <point x="329" y="496"/>
      <point x="367" y="432"/>
      <point x="367" y="351" type="curve" smooth="yes"/>
      <point x="367" y="258"/>
      <point x="317" y="212"/>
      <point x="245" y="212" type="curve" smooth="yes"/>
      <point x="159" y="212"/>
      <point x="130" y="281"/>
    </contour>
  </outline>
</glyph>
<glyph name="uni0040" format="1">
  <advance width="891"/>
  <unicode hex="0040"/>
  <outline>
    <contour>
      <point x="666" y="-118" type="curve"/>
      <point x="654" y="-93" type="line"/>
      <point x="594" y="-122"/>
      <point x="534" y="-135"/>
      <point x="478" y="-135" type="curve" smooth="yes"/>
      <point x="294" y="-135"/>
      <point x="140" y="5"/>
      <point x="140" y="217" type="curve" smooth="yes"/>
      <point x="140" y="387"/>
      <point x="236" y="555"/>
      <point x="449" y="555" type="curve" smooth="yes"/>
      <point x="601" y="555"/>
      <point x="756" y="442"/>
      <point x="756" y="205" type="curve" smooth="yes"/>
      <point x="756" y="82"/>
      <point x="697" y="35"/>
      <point x="648" y="35" type="curve" smooth="yes"/>
      <point x="616" y="35"/>
      <point x="596" y="52"/>
      <point x="596" y="96" type="curve" smooth="yes"/>
      <point x="596" y="278" type="line" smooth="yes"/>
      <point x="596" y="371"/>
      <point x="546" y="415"/>
      <point x="447" y="415" type="curve" smooth="yes"/>
      <point x="346" y="415"/>
      <point x="300" y="374"/>
      <point x="300" y="337" type="curve" smooth="yes"/>
      <point x="300" y="320"/>
      <point x="310" y="303"/>
      <point x="335" y="303" type="curve" smooth="yes"/>
      <point x="407" y="303"/>
      <point x="349" y="392"/>
      <point x="437" y="392" type="curve" smooth="yes"/>
      <point x="492" y="392"/>
      <point x="521" y="362"/>
      <point x="521" y="299" type="curve" smooth="yes"/>
      <point x="521" y="147" type="line"/>
      <point x="507" y="85"/>
      <point x="461" y="47"/>
      <point x="418" y="47" type="curve" smooth="yes"/>
      <point x="382" y="47"/>
      <point x="353" y="76"/>
      <point x="353" y="131" type="curve" smooth="yes"/>
      <point x="353" y="199"/>
      <point x="426" y="217"/>
      <point x="532" y="217" type="curve"/>
      <point x="532" y="242" type="line"/>
      <point x="362" y="242"/>
      <point x="275" y="211"/>
      <point x="275" y="115" type="curve" smooth="yes"/>
      <point x="275" y="42"/>
      <point x="329" y="11"/>
      <point x="388" y="11" type="curve" smooth="yes"/>
      <point x="451" y="11"/>
      <point x="511" y="51"/>
      <point x="525" y="105" type="curve"/>
      <point x="519" y="105" type="line"/>
      <point x="519" y="45"/>
      <point x="571" y="10"/>
      <point x="639" y="10" type="curve" smooth="yes"/>
      <point x="723" y="10"/>
      <point x="821" y="71"/>
      <point x="821" y="215" type="curve" smooth="yes"/>
      <point x="821" y="466"/>
      <point x="641" y="583"/>
      <point x="458" y="583" type="curve" smooth="yes"/>
      <point x="186" y="583"/>
      <point x="65" y="385"/>
      <point x="65" y="192" type="curve" smooth="yes"/>
      <point x="65" y="-33"/>
      <point x="247" y="-171"/>
      <point x="450" y="-171" type="curve" smooth="yes"/>
      <point x="522" y="-171"/>
      <point x="596" y="-154"/>
    </contour>
  </outline>
</glyph>
<glyph name="uni0043" format="1">
  <advance width="621"/>
  <unicode hex="0043"/>
  <outline>
    <contour>
      <point x="576" y="-5" type="line"/>
      <point x="586" y="199" type="line"/>
      <point x="556" y="199" type="line"/>
      <point x="531" y="81"/>
      <point x="446" y="20"/>
      <point x="355" y="20" type="curve" smooth="yes"/>
      <point x="245" y="20"/>
      <point x="155" y="90"/>
      <point x="155" y="300" type="curve" smooth="yes"/>
      <point x="155" y="508"/>
      <point x="242" y="582"/>
      <point x="352" y="582" type="curve" smooth="yes"/>
      <point x="472" y="582"/>
      <point x="514" y="530"/>
      <point x="551" y="403" type="curve"/>
      <point x="581" y="403" type="line"/>
      <point x="576" y="597" type="line"/>
      <point x="489" y="579" type="line"/>
      <point x="447" y="600"/>
      <point x="401" y="610"/>
      <point x="355" y="610" type="curve" smooth="yes"/>
      <point x="207" y="610"/>
      <point x="55" y="502"/>
      <point x="55" y="304" type="curve" smooth="yes"/>
      <point x="55" y="95"/>
      <point x="214" y="-10"/>
      <point x="355" y="-10" type="curve" smooth="yes"/>
      <point x="403" y="-10"/>
      <point x="450" y="2"/>
      <point x="487" y="26" type="curve"/>
    </contour>
    <contour>
      <point x="331" y="700" type="move" name="top"/>
    </contour>
    <contour>
      <point x="334" y="0" type="move" name="bottom"/>
    </contour>
  </outline>
</glyph>
<glyph name="uni0045" format="1">
  <advance width="539"/>
  <unicode hex="0045"/>
  <outline>
    <contour>
      <point x="504" y="420" type="line"/>
      <point x="499" y="600" type="line"/>
      <point x="35" y="600" type="line"/>
      <point x="35" y="574" type="line"/>
      <point x="364" y="574" type="line" smooth="yes"/>
      <point x="431" y="574"/>
      <point x="456" y="515"/>
      <point x="470" y="467" type="curve" smooth="yes"/>
      <point x="484" y="420" type="line"/>
    </contour>
    <contour>
      <point x="499" y="0" type="line"/>
      <point x="504" y="180" type="line"/>
      <point x="484" y="180" type="line"/>
      <point x="470" y="133" type="line" smooth="yes"/>
      <point x="455" y="82"/>
      <point x="431" y="26"/>
      <point x="364" y="26" type="curve" smooth="yes"/>
      <point x="35" y="26" type="line"/>
      <point x="35" y="0" type="line"/>
    </contour>
    <contour>
      <point x="410" y="295" type="line"/>
      <point x="410" y="324" type="line"/>
      <point x="160" y="324" type="line"/>
      <point x="160" y="295" type="line"/>
    </contour>
    <component base="vertical_stem_upper" xOffset="78"/>
    <contour>
      <point x="490" y="9" type="move" name="ogonek"/>
    </contour>
    <contour>
      <point x="270" y="0" type="move" name="bottom"/>
    </contour>
    <contour>
      <point x="290" y="630" type="move" name="top"/>
    </contour>
  </outline>
</glyph>
<glyph name="uni0047" format="1">
  <advance width="700"/>
  <unicode hex="0047"/>
  <outline>
    <contour>
      <point x="589" y="0" type="line"/>
      <point x="586" y="199" type="line"/>
      <point x="556" y="199" type="line"/>
      <point x="531" y="81"/>
      <point x="451" y="20"/>
      <point x="355" y="20" type="curve" smooth="yes"/>
      <point x="238" y="20"/>
      <point x="155" y="90"/>
      <point x="155" y="300" type="curve" smooth="yes"/>
      <point x="155" y="508"/>
      <point x="242" y="582"/>
      <point x="352" y="582" type="curve" smooth="yes"/>
      <point x="477" y="582"/>
      <point x="518" y="530"/>
      <point x="555" y="403" type="curve"/>
      <point x="581" y="403" type="line"/>
      <point x="576" y="597" type="line"/>
      <point x="489" y="579" type="line"/>
      <point x="447" y="600"/>
      <point x="401" y="610"/>
      <point x="355" y="610" type="curve" smooth="yes"/>
      <point x="207" y="610"/>
      <point x="55" y="502"/>
      <point x="55" y="304" type="curve" smooth="yes"/>
      <point x="55" y="95"/>
      <point x="214" y="-10"/>
      <point x="355" y="-10" type="curve" smooth="yes"/>
      <point x="403" y="-10"/>
      <point x="467" y="6"/>
      <point x="504" y="31" type="curve"/>
    </contour>
    <contour>
      <point x="665" y="244" type="line"/>
      <point x="665" y="270" type="line"/>
      <point x="416" y="270" type="line"/>
      <point x="416" y="244" type="line"/>
    </contour>
    <contour>
      <point x="589" y="0" type="line"/>
      <point x="589" y="270" type="line"/>
      <point x="505" y="270" type="line"/>
      <point x="505" y="40" type="line"/>
    </contour>
    <contour>
      <point x="350" y="630" type="move" name="top"/>
    </contour>
    <contour>
      <point x="350" y="0" type="move" name="bottom"/>
    </contour>
  </outline>
</glyph>
<glyph name="uni0049" format="1">
  <advance width="321"/>
  <unicode hex="0049"/>
  <outline>
    <contour>
      <point x="286" y="574" type="line"/>
      <point x="286" y="600" type="line"/>
      <point x="30" y="600" type="line"/>
      <point x="30" y="574" type="line"/>
    </contour>
    <contour>
      <point x="286" y="0" type="line"/>
      <point x="286" y="22"/>
      <point x="281" y="26"/>
      <point x="261" y="26" type="curve" smooth="yes"/>
      <point x="30" y="26" type="line"/>
      <point x="30" y="0" type="line"/>
    </contour>
    <component base="vertical_stem_upper" xOffset="73"/>
    <contour>
      <point x="286" y="9" type="move" name="ogonek"/>
    </contour>
    <contour>
      <point x="158" y="630" type="move" name="top"/>
    </contour>
  </outline>
</glyph>
<glyph name="uni004D" format="1">
  <advance width="815"/>
  <unicode hex="004D"/>
  <outline>
    <contour>
      <point x="772" y="0" type="line"/>
      <point x="772" y="22"/>
      <point x="767" y="26"/>
      <point x="747" y="26" type="curve" smooth="yes"/>
      <point x="526" y="26" type="line"/>
      <point x="526" y="0" type="line"/>
    </contour>
    <contour>
      <point x="772" y="574" type="line"/>
      <point x="772" y="600" type="line"/>
      <point x="631" y="600" type="line"/>
      <point x="631" y="574" type="line"/>
    </contour>
    <contour>
      <point x="235" y="0" type="line"/>
      <point x="235" y="22"/>
      <point x="230" y="26"/>
      <point x="211" y="26" type="curve" smooth="yes"/>
      <point x="143" y="26" type="line"/>
      <point x="143" y="600" type="line"/>
      <point x="30" y="600" type="line"/>
      <point x="30" y="574" type="line"/>
      <point x="103" y="574" type="line"/>
      <point x="103" y="26" type="line"/>
      <point x="30" y="26" type="line"/>
      <point x="30" y="0" type="line"/>
    </contour>
    <contour>
      <point x="383" y="-5" type="line"/>
      <point x="404" y="96" type="line"/>
      <point x="166" y="600" type="line"/>
      <point x="113" y="600" type="line"/>
      <point x="113" y="520" type="line"/>
      <point x="362" y="-5" type="line"/>
    </contour>
    <contour>
      <point x="654" y="600" type="line"/>
      <point x="614" y="600" type="line"/>
      <point x="357" y="16" type="line"/>
      <point x="383" y="-5" type="line"/>
    </contour>
    <contour>
      <point x="694" y="0" type="line"/>
      <point x="694" y="600" type="line"/>
      <point x="614" y="600" type="line"/>
      <point x="614" y="0" type="line"/>
    </contour>
  </outline>
</glyph>
<glyph name="uni0051" format="1">
  <advance width="705"/>
  <unicode hex="0051"/>
  <outline>
    <contour>
      <point x="355" y="610" type="curve" smooth="yes"/>
      <point x="207" y="610"/>
      <point x="55" y="504"/>
      <point x="55" y="301" type="curve" smooth="yes"/>
      <point x="55" y="101"/>
      <point x="203" y="-10"/>
      <point x="352" y="-10" type="curve" smooth="yes"/>
      <point x="500" y="-10"/>
      <point x="650" y="100"/>
      <point x="650" y="303" type="curve" smooth="yes"/>
      <point x="650" y="505"/>
      <point x="502" y="610"/>
    </contour>
    <contour>
      <point x="352" y="18" type="curve" smooth="yes"/>
      <point x="246" y="18"/>
      <point x="155" y="89"/>
      <point x="155" y="301" type="curve" smooth="yes"/>
      <point x="155" y="507"/>
      <point x="241" y="582"/>
      <point x="354" y="582" type="curve" smooth="yes"/>
      <point x="461" y="582"/>
      <point x="550" y="516"/>
      <point x="550" y="305" type="curve" smooth="yes"/>
      <point x="550" y="101"/>
      <point x="467" y="18"/>
    </contour>
    <contour>
      <point x="337" y="84" type="curve" smooth="yes"/>
      <point x="411" y="84"/>
      <point x="436" y="-85"/>
      <point x="562" y="-85" type="curve" smooth="yes"/>
      <point x="622" y="-85"/>
      <point x="670" y="-44"/>
      <point x="710" y="38" type="curve"/>
      <point x="689" y="51" type="line"/>
      <point x="647" y="5"/>
      <point x="611" y="-13"/>
      <point x="578" y="-13" type="curve" smooth="yes"/>
      <point x="481" y="-13"/>
      <point x="435" y="119"/>
      <point x="339" y="119" type="curve" smooth="yes"/>
      <point x="296" y="119"/>
      <point x="256" y="85"/>
      <point x="229" y="39" type="curve"/>
      <point x="248" y="20" type="line"/>
      <point x="278" y="64"/>
      <point x="308" y="84"/>
    </contour>
  </outline>
</glyph>
<glyph name="uni0052" format="1">
  <advance width="625"/>
  <unicode hex="0052"/>
  <outline>
    <contour>
      <point x="530" y="444" type="curve" smooth="yes"/>
      <point x="530" y="523"/>
      <point x="464" y="600"/>
      <point x="334" y="600" type="curve" smooth="yes"/>
      <point x="35" y="600" type="line"/>
      <point x="35" y="574" type="line"/>
      <point x="304" y="574" type="line" smooth="yes"/>
      <point x="394" y="574"/>
      <point x="436" y="509"/>
      <point x="436" y="443" type="curve" smooth="yes"/>
      <point x="436" y="374"/>
      <point x="391" y="304"/>
      <point x="307" y="304" type="curve"/>
      <point x="312" y="275" type="line"/>
      <point x="457" y="275"/>
      <point x="530" y="361"/>
    </contour>
    <contour>
      <point x="294" y="0" type="line"/>
      <point x="294" y="26" type="line"/>
      <point x="35" y="26" type="line"/>
      <point x="35" y="0" type="line"/>
    </contour>
    <contour>
      <point x="312" y="275" type="line"/>
      <point x="307" y="304" type="line"/>
      <point x="160" y="304" type="line"/>
      <point x="160" y="275" type="line"/>
    </contour>
    <contour>
      <point x="299" y="275" type="line"/>
      <point x="459" y="0" type="line"/>
      <point x="610" y="0" type="line"/>
      <point x="610" y="23"/>
      <point x="605" y="26"/>
      <point x="586" y="26" type="curve" smooth="yes"/>
      <point x="548" y="26" type="line"/>
      <point x="384" y="288" type="line"/>
    </contour>
    <component base="vertical_stem_upper" xOffset="78"/>
    <contour>
      <point x="303" y="630" type="move" name="top"/>
    </contour>
    <contour>
      <point x="330" y="0" type="move" name="bottom"/>
    </contour>
  </outline>
</glyph>
<glyph name="uni0053" format="1">
  <advance width="562"/>
  <unicode hex="0053"/>
  <outline>
    <contour>
      <point x="273" y="18" type="curve" smooth="yes"/>
      <point x="347" y="18"/>
      <point x="412" y="59"/>
      <point x="412" y="133" type="curve" smooth="yes"/>
      <point x="412" y="290"/>
      <point x="77" y="254"/>
      <point x="77" y="452" type="curve" smooth="yes"/>
      <point x="77" y="554"/>
      <point x="175" y="612"/>
      <point x="285" y="612" type="curve" smooth="yes"/>
      <point x="340" y="612"/>
      <point x="398" y="599"/>
      <point x="445" y="571" type="curve"/>
      <point x="445" y="606"/>
      <point x="450" y="619"/>
      <point x="475" y="619" type="curve"/>
      <point x="475" y="425" type="line"/>
      <point x="446" y="425" type="line"/>
      <point x="448" y="531"/>
      <point x="367" y="584"/>
      <point x="289" y="584" type="curve" smooth="yes"/>
      <point x="221" y="584"/>
      <point x="161" y="545"/>
      <point x="161" y="478" type="curve" smooth="yes"/>
      <point x="161" y="320"/>
      <point x="499" y="359"/>
      <point x="499" y="157" type="curve" smooth="yes"/>
      <point x="499" y="48"/>
      <point x="394" y="-10"/>
      <point x="278" y="-10" type="curve" smooth="yes"/>
      <point x="216" y="-10"/>
      <point x="154" y="7"/>
      <point x="103" y="41" type="curve"/>
      <point x="103" y="5"/>
      <point x="101" y="-2"/>
      <point x="73" y="-2" type="curve"/>
      <point x="73" y="210" type="line"/>
      <point x="101" y="210" type="line"/>
      <point x="112" y="87"/>
      <point x="169" y="18"/>
    </contour>
    <contour>
      <point x="299" y="630" type="move" name="top"/>
    </contour>
    <contour>
      <point x="281" y="0" type="move" name="bottom"/>
    </contour>
  </outline>
</glyph>
<glyph name="uni0059" format="1">
  <advance width="567"/>
  <unicode hex="0059"/>
  <outline>
    <contour>
      <point x="337" y="249" type="line"/>
      <point x="143" y="600" type="line"/>
      <point x="48" y="600" type="line"/>
      <point x="252" y="239" type="line"/>
    </contour>
    <contour>
      <point x="412" y="0" type="line"/>
      <point x="412" y="22"/>
      <point x="407" y="26"/>
      <point x="387" y="26" type="curve" smooth="yes"/>
      <point x="167" y="26" type="line"/>
      <point x="167" y="0" type="line"/>
    </contour>
    <contour>
      <point x="334" y="0" type="line"/>
      <point x="337" y="249" type="line"/>
      <point x="252" y="239" type="line"/>
      <point x="249" y="0" type="line"/>
    </contour>
    <contour>
      <point x="229" y="574" type="line"/>
      <point x="229" y="600" type="line"/>
      <point x="10" y="600" type="line"/>
      <point x="10" y="574" type="line"/>
    </contour>
    <contour>
      <point x="337" y="249" type="line"/>
      <point x="487" y="546" type="line" smooth="yes"/>
      <point x="498" y="568"/>
      <point x="506" y="574"/>
      <point x="546" y="574" type="curve" smooth="yes"/>
      <point x="560" y="574"/>
      <point x="567" y="579"/>
      <point x="567" y="600" type="curve"/>
      <point x="383" y="600" type="line"/>
      <point x="383" y="574" type="line"/>
      <point x="469" y="574" type="line"/>
      <point x="301" y="249" type="line"/>
    </contour>
    <contour>
      <point x="304" y="630" type="move" name="top"/>
    </contour>
  </outline>
</glyph>
<glyph name="uni0063" format="1">
  <advance width="449"/>
  <unicode hex="0063"/>
  <outline>
    <contour>
      <point x="40" y="208" type="curve" smooth="yes"/>
      <point x="40" y="69"/>
      <point x="138" y="-10"/>
      <point x="254" y="-10" type="curve" smooth="yes"/>
      <point x="335" y="-10"/>
      <point x="403" y="29"/>
      <point x="431" y="100" type="curve"/>
      <point x="405" y="106" type="line"/>
      <point x="379" y="50"/>
      <point x="328" y="17"/>
      <point x="266" y="17" type="curve" smooth="yes"/>
      <point x="189" y="17"/>
      <point x="125" y="93"/>
      <point x="125" y="217" type="curve" smooth="yes"/>
      <point x="125" y="327"/>
      <point x="168" y="410"/>
      <point x="258" y="410" type="curve" smooth="yes"/>
      <point x="369" y="410"/>
      <point x="292" y="293"/>
      <point x="372" y="287" type="curve" smooth="yes"/>
      <point x="401" y="285"/>
      <point x="417" y="305"/>
      <point x="417" y="328" type="curve" smooth="yes"/>
      <point x="417" y="388"/>
      <point x="334" y="435"/>
      <point x="252" y="435" type="curve" smooth="yes"/>
      <point x="104" y="435"/>
      <point x="40" y="326"/>
    </contour>
    <contour>
      <point x="245" y="500" type="move" name="top"/>
    </contour>
    <contour>
      <point x="230" y="0" type="move" name="bottom"/>
    </contour>
  </outline>
</glyph>
<glyph name="uni0065" format="1">
  <advance width="464"/>
  <unicode hex="0065"/>
  <outline>
    <contour>
      <point x="249" y="410" type="curve" smooth="yes"/>
      <point x="317" y="410"/>
      <point x="350" y="362"/>
      <point x="350" y="310" type="curve" smooth="yes"/>
      <point x="350" y="254"/>
      <point x="312" y="243"/>
      <point x="231" y="245" type="curve" smooth="yes"/>
      <point x="85" y="249" type="line"/>
      <point x="85" y="221" type="line"/>
      <point x="245" y="218" type="line" smooth="yes"/>
      <point x="356" y="216"/>
      <point x="429" y="223"/>
      <point x="429" y="298" type="curve" smooth="yes"/>
      <point x="429" y="376"/>
      <point x="349" y="435"/>
      <point x="247" y="435" type="curve" smooth="yes"/>
      <point x="104" y="435"/>
      <point x="40" y="324"/>
      <point x="40" y="209" type="curve" smooth="yes"/>
      <point x="40" y="68"/>
      <point x="137" y="-10"/>
      <point x="250" y="-10" type="curve" smooth="yes"/>
      <point x="333" y="-10"/>
      <point x="397" y="29"/>
      <point x="424" y="100" type="curve"/>
      <point x="398" y="105" type="line"/>
      <point x="372" y="49"/>
      <point x="323" y="18"/>
      <point x="266" y="18" type="curve" smooth="yes"/>
      <point x="182" y="18"/>
      <point x="125" y="84"/>
      <point x="125" y="233" type="curve" smooth="yes"/>
      <point x="125" y="355"/>
      <point x="181" y="410"/>
    </contour>
    <contour>
      <point x="378" y="9" type="move" name="ogonek"/>
    </contour>
    <contour>
      <point x="232" y="0" type="move" name="bottom"/>
    </contour>
    <contour>
      <point x="232" y="500" type="move" name="top"/>
    </contour>
  </outline>
</glyph>
<glyph name="uni006F" format="1">
  <advance width="513"/>
  <unicode hex="006F"/>
  <outline>
    <contour>
      <point x="125" y="213" type="curve" smooth="yes"/>
      <point x="125" y="330"/>
      <point x="166" y="410"/>
      <point x="256" y="410" type="curve" smooth="yes"/>
      <point x="350" y="410"/>
      <point x="388" y="330"/>
      <point x="388" y="217" type="curve" smooth="yes"/>
      <point x="388" y="99"/>
      <point x="350" y="15"/>
      <point x="259" y="15" type="curve" smooth="yes"/>
      <point x="166" y="15"/>
      <point x="125" y="97"/>
    </contour>
    <contour>
      <point x="259" y="435" type="curve" smooth="yes"/>
      <point x="151" y="435"/>
      <point x="40" y="359"/>
      <point x="40" y="217" type="curve" smooth="yes"/>
      <point x="40" y="68"/>
      <point x="148" y="-10"/>
      <point x="256" y="-10" type="curve" smooth="yes"/>
      <point x="364" y="-10"/>
      <point x="473" y="69"/>
      <point x="473" y="213" type="curve" smooth="yes"/>
      <point x="473" y="361"/>
      <point x="366" y="435"/>
    </contour>
    <contour>
      <point x="262" y="500" type="move" name="top"/>
    </contour>
  </outline>
</glyph>
<glyph name="uni0070" format="1">
  <advance width="550"/>
  <unicode hex="0070"/>
  <outline>
    <contour>
      <point x="176" y="-164" type="line"/>
      <point x="176" y="42" type="line"/>
      <point x="208" y="9"/>
      <point x="258" y="-10"/>
      <point x="303" y="-10" type="curve" smooth="yes"/>
      <point x="403" y="-10"/>
      <point x="510" y="68"/>
      <point x="510" y="222" type="curve" smooth="yes"/>
      <point x="510" y="329"/>
      <point x="458" y="435"/>
      <point x="340" y="435" type="curve" smooth="yes"/>
      <point x="273" y="435"/>
      <point x="204" y="402"/>
      <point x="175" y="316" type="curve"/>
      <point x="170" y="425" type="line"/>
      <point x="25" y="425" type="line"/>
      <point x="25" y="399" type="line"/>
      <point x="101" y="399" type="line"/>
      <point x="101" y="-112" type="line" smooth="yes"/>
      <point x="101" y="-157"/>
      <point x="76" y="-164"/>
      <point x="25" y="-164" type="curve"/>
      <point x="25" y="-190" type="line"/>
      <point x="272" y="-190" type="line"/>
      <point x="272" y="-168"/>
      <point x="267" y="-164"/>
      <point x="248" y="-164" type="curve"/>
    </contour>
    <contour>
      <point x="308" y="395" type="curve" smooth="yes"/>
      <point x="385" y="395"/>
      <point x="425" y="326"/>
      <point x="425" y="212" type="curve" smooth="yes"/>
      <point x="425" y="84"/>
      <point x="375" y="15"/>
      <point x="296" y="15" type="curve" smooth="yes"/>
      <point x="231" y="15"/>
      <point x="175" y="66"/>
      <point x="175" y="193" type="curve" smooth="yes"/>
      <point x="175" y="318"/>
      <point x="229" y="395"/>
    </contour>
  </outline>
</glyph>
<glyph name="uni007B" format="1">
  <advance width="400"/>
  <unicode hex="007B"/>
  <outline>
    <contour>
      <point x="231" y="148" type="curve" smooth="yes"/>
      <point x="231" y="-3" type="line" smooth="yes"/>
      <point x="231" y="-93"/>
      <point x="260" y="-108"/>
      <point x="380" y="-108" type="curve"/>
      <point x="380" y="-136" type="line"/>
      <point x="220" y="-136"/>
      <point x="156" y="-131"/>
      <point x="156" y="4" type="curve" smooth="yes"/>
      <point x="156" y="153" type="line" smooth="yes"/>
      <point x="156" y="211"/>
      <point x="142" y="231"/>
      <point x="80" y="244" type="curve"/>
      <point x="80" y="265" type="line"/>
      <point x="142" y="278"/>
      <point x="156" y="298"/>
      <point x="156" y="356" type="curve" smooth="yes"/>
      <point x="156" y="505" type="line" smooth="yes"/>
      <point x="156" y="640"/>
      <point x="220" y="645"/>
      <point x="380" y="645" type="curve"/>
      <point x="380" y="617" type="line"/>
      <point x="260" y="617"/>
      <point x="231" y="602"/>
      <point x="231" y="512" type="curve" smooth="yes"/>
      <point x="231" y="361" type="line" smooth="yes"/>
      <point x="231" y="292"/>
      <point x="195" y="274"/>
      <point x="155" y="257" type="curve"/>
      <point x="155" y="252" type="line"/>
      <point x="195" y="235"/>
      <point x="231" y="217"/>
    </contour>
  </outline>
</glyph>
<glyph name="uni00B7" format="1">
  <advance width="308"/>
  <unicode hex="00B7"/>
  <outline>
    <contour>
      <point x="208" y="232" type="curve" smooth="yes"/>
      <point x="208" y="262"/>
      <point x="184" y="286"/>
      <point x="154" y="286" type="curve" smooth="yes"/>
      <point x="124" y="286"/>
      <point x="100" y="262"/>
      <point x="100" y="232" type="curve" smooth="yes"/>
      <point x="100" y="202"/>
      <point x="124" y="178"/>
      <point x="154" y="178" type="curve" smooth="yes"/>
      <point x="184" y="178"/>
      <point x="208" y="202"/>
    </contour>
  </outline>
</glyph>
<glyph name="uni00D7" format="1">
  <advance width="493"/>
  <unicode hex="00D7"/>
  <outline>
    <contour>
      <point x="56" y="330" type="line"/>
      <point x="91" y="365" type="line"/>
      <point x="229" y="225" type="line"/>
      <point x="371" y="362" type="line"/>
      <point x="407" y="329" type="line"/>
      <point x="263" y="188" type="line"/>
      <point x="412" y="46" type="line"/>
      <point x="374" y="11" type="line"/>
      <point x="228" y="155" type="line"/>
      <point x="81" y="10" type="line"/>
      <point x="47" y="43" type="line"/>
      <point x="199" y="194" type="line"/>
    </contour>
  </outline>
</glyph>
<glyph name="uni02C6" format="1">
  <advance width="500"/>
  <unicode hex="02C6"/>
  <outline>
    <contour>
      <point x="259" y="574" type="curve"/>
      <point x="244" y="574" type="line"/>
      <point x="275" y="558"/>
      <point x="332" y="526"/>
      <point x="371" y="499" type="curve"/>
      <point x="383" y="515" type="line"/>
      <point x="308" y="598"/>
      <point x="289" y="643"/>
      <point x="249" y="643" type="curve" smooth="yes"/>
      <point x="209" y="643"/>
      <point x="191" y="598"/>
      <point x="117" y="514" type="curve"/>
      <point x="129" y="500" type="line"/>
      <point x="173" y="529"/>
      <point x="227" y="558"/>
    </contour>
    <contour>
      <point x="250" y="500" type="move" name="_top"/>
    </contour>
  </outline>
</glyph>
<glyph name="si_Aa" format="1">
  <advance width="850"/>
  <unicode hex="0D86"/>
  <outline>
    <contour>
      <point x="557" y="110" type="curve" smooth="yes"/>
      <point x="557" y="118"/>
      <point x="557" y="125"/>
      <point x="558" y="132" type="curve"/>
      <point x="585" y="132" type="line"/>
      <point x="584" y="128"/>
      <point x="584" y="123"/>
      <point x="584" y="117" type="curve" smooth="yes"/>
      <point x="584" y="69"/>
      <point x="612" y="36"/>
      <point x="653" y="36" type="curve" smooth="yes"/>
      <point x="712" y="36"/>
      <point x="739" y="91"/>
      <point x="739" y="201" type="curve" smooth="yes"/>
      <point x="739" y="311"/>
      <point x="712" y="366"/>
      <point x="653" y="366" type="curve" smooth="yes"/>
      <point x="612" y="366"/>
      <point x="584" y="333"/>
      <point x="584" y="285" type="curve" smooth="yes"/>
      <point x="584" y="279"/>
      <point x="584" y="274"/>
      <point x="585" y="270" type="curve"/>
      <point x="558" y="270" type="line"/>
      <point x="557" y="277"/>
      <point x="557" y="284"/>
      <point x="557" y="292" type="curve" smooth="yes"/>
      <point x="557" y="361"/>
      <point x="601" y="403"/>
      <point x="668" y="403" type="curve" smooth="yes"/>
      <point x="759" y="403"/>
      <point x="805" y="329"/>
      <point x="805" y="201" type="curve" smooth="yes"/>
      <point x="805" y="73"/>
      <point x="759" y="-1"/>
      <point x="668" y="-1" type="curve" smooth="yes"/>
      <point x="601" y="-1"/>
      <point x="557" y="41"/>
    </contour>
    <component base="si_A"/>
  </outline>
</glyph>
<glyph name="si_I" format="1">
  <advance width="593"/>
  <unicode hex="0D89"/>
  <outline>
    <contour>
      <point x="33" y="221" type="curve" smooth="yes"/>
      <point x="33" y="357"/>
      <point x="148" y="432"/>
      <point x="284" y="432" type="curve" smooth="yes"/>
      <point x="436" y="432"/>
      <point x="544" y="353"/>
      <point x="544" y="198" type="curve" smooth="yes"/>
      <point x="544" y="92"/>
      <point x="473" y="10"/>
      <point x="384" y="-6" type="curve"/>
      <point x="417" y="-12"/>
      <point x="439" y="-36"/>
      <point x="439" y="-75" type="curve" smooth="yes"/>
      <point x="439" y="-134"/>
      <point x="364" y="-160"/>
      <point x="298" y="-160" type="curve" smooth="yes"/>
      <point x="236" y="-160"/>
      <point x="173" y="-139"/>
      <point x="173" y="-76" type="curve" smooth="yes"/>
      <point x="173" y="-50"/>
      <point x="190" y="-38"/>
      <point x="207" y="-38" type="curve" smooth="yes"/>
      <point x="222" y="-38"/>
      <point x="235" y="-48"/>
      <point x="235" y="-65" type="curve" smooth="yes"/>
      <point x="235" y="-71"/>
      <point x="231" y="-82"/>
      <point x="231" y="-94" type="curve" smooth="yes"/>
      <point x="231" y="-114"/>
      <point x="242" y="-137"/>
      <point x="300" y="-137" type="curve" smooth="yes"/>
      <point x="339" y="-137"/>
      <point x="375" y="-121"/>
      <point x="375" y="-83" type="curve" smooth="yes"/>
      <point x="375" y="-41"/>
      <point x="334" y="-15"/>
      <point x="267" y="-15" type="curve" smooth="yes"/>
      <point x="259" y="-15"/>
      <point x="259" y="-15"/>
      <point x="249" y="-16" type="curve"/>
      <point x="249" y="12" type="line"/>
      <point x="261" y="13"/>
      <point x="262" y="13"/>
      <point x="273" y="13" type="curve" smooth="yes"/>
      <point x="290" y="13"/>
      <point x="307" y="11"/>
      <point x="324" y="11" type="curve" smooth="yes"/>
      <point x="423" y="11"/>
      <point x="506" y="72"/>
      <point x="506" y="179" type="curve" smooth="yes"/>
      <point x="506" y="292"/>
      <point x="405" y="357"/>
      <point x="285" y="357" type="curve" smooth="yes"/>
      <point x="175" y="357"/>
      <point x="73" y="309"/>
      <point x="73" y="204" type="curve" smooth="yes"/>
      <point x="73" y="134"/>
      <point x="136" y="81"/>
      <point x="223" y="81" type="curve" smooth="yes"/>
      <point x="276" y="81"/>
      <point x="317" y="96"/>
      <point x="333" y="120" type="curve"/>
      <point x="318" y="108"/>
      <point x="299" y="105"/>
      <point x="285" y="105" type="curve" smooth="yes"/>
      <point x="244" y="105"/>
      <point x="208" y="139"/>
      <point x="208" y="179" type="curve" smooth="yes"/>
      <point x="208" y="225"/>
      <point x="242" y="260"/>
      <point x="286" y="260" type="curve" smooth="yes"/>
      <point x="344" y="260"/>
      <point x="376" y="222"/>
      <point x="376" y="170" type="curve" smooth="yes"/>
      <point x="376" y="90"/>
      <point x="310" y="54"/>
      <point x="220" y="54" type="curve" smooth="yes"/>
      <point x="113" y="54"/>
      <point x="33" y="117"/>
    </contour>
    <contour>
      <point x="237" y="182" type="curve" smooth="yes"/>
      <point x="237" y="154"/>
      <point x="261" y="132"/>
      <point x="288" y="132" type="curve" smooth="yes"/>
      <point x="316" y="132"/>
      <point x="339" y="155"/>
      <point x="339" y="182" type="curve" smooth="yes"/>
      <point x="339" y="210"/>
      <point x="315" y="232"/>
      <point x="288" y="232" type="curve" smooth="yes"/>
      <point x="260" y="232"/>
      <point x="237" y="209"/>
    </contour>
  </outline>
</glyph>
<glyph name="uni0D8E" format="1">
  <advance width="1140"/>
  <unicode hex="0D8E"/>
  <outline>
    <contour>
      <point x="31" y="154" type="curve" smooth="yes"/>
      <point x="31" y="261"/>
      <point x="117" y="316"/>
      <point x="209" y="316" type="curve" smooth="yes"/>
      <point x="222" y="316"/>
      <point x="250" y="314"/>
      <point x="263" y="310" type="curve"/>
      <point x="263" y="312"/>
      <point x="263" y="311"/>
      <point x="263" y="313" type="curve" smooth="yes"/>
      <point x="263" y="358"/>
      <point x="231" y="395"/>
      <point x="194" y="395" type="curve" smooth="yes"/>
      <point x="153" y="395"/>
      <point x="142" y="371"/>
      <point x="136" y="355" type="curve" smooth="yes"/>
      <point x="130" y="336"/>
      <point x="120" y="323"/>
      <point x="98" y="323" type="curve" smooth="yes"/>
      <point x="82" y="323"/>
      <point x="62" y="333"/>
      <point x="62" y="359" type="curve" smooth="yes"/>
      <point x="62" y="406"/>
      <point x="112" y="432"/>
      <point x="167" y="432" type="curve" smooth="yes"/>
      <point x="255" y="432"/>
      <point x="293" y="369"/>
      <point x="293" y="296" type="curve" smooth="yes"/>
      <point x="293" y="293"/>
      <point x="293" y="288"/>
      <point x="293" y="282" type="curve"/>
      <point x="278" y="285"/>
      <point x="241" y="291"/>
      <point x="212" y="291" type="curve" smooth="yes"/>
      <point x="143" y="291"/>
      <point x="69" y="255"/>
      <point x="69" y="175" type="curve" smooth="yes"/>
      <point x="69" y="116"/>
      <point x="122" y="71"/>
      <point x="192" y="71" type="curve" smooth="yes"/>
      <point x="248" y="71"/>
      <point x="301" y="102"/>
      <point x="301" y="152" type="curve" smooth="yes"/>
      <point x="301" y="182" type="line"/>
      <point x="328" y="182" type="line"/>
      <point x="328" y="152" type="line" smooth="yes"/>
      <point x="328" y="96"/>
      <point x="389" y="71"/>
      <point x="451" y="71" type="curve" smooth="yes"/>
      <point x="520" y="71"/>
      <point x="571" y="115"/>
      <point x="571" y="175" type="curve" smooth="yes"/>
      <point x="571" y="255"/>
      <point x="508" y="291"/>
      <point x="432" y="291" type="curve" smooth="yes"/>
      <point x="400" y="291"/>
      <point x="371" y="289"/>
      <point x="333" y="282" type="curve"/>
      <point x="333" y="286"/>
      <point x="333" y="287"/>
      <point x="333" y="291" type="curve" smooth="yes"/>
      <point x="333" y="375"/>
      <point x="381" y="432"/>
      <point x="456" y="432" type="curve" smooth="yes"/>
      <point x="510" y="432"/>
      <point x="559" y="408"/>
      <point x="559" y="350" type="curve" smooth="yes"/>
      <point x="559" y="329"/>
      <point x="545" y="306"/>
      <point x="530" y="297" type="curve"/>
      <point x="577" y="274"/>
      <point x="608" y="221"/>
      <point x="608" y="166" type="curve" smooth="yes"/>
      <point x="608" y="58"/>
      <point x="538" y="0"/>
      <point x="440" y="0" type="curve" smooth="yes"/>
      <point x="375" y="0"/>
      <point x="332" y="31"/>
      <point x="313" y="82" type="curve"/>
      <point x="292" y="30"/>
      <point x="251" y="-1"/>
      <point x="183" y="-1" type="curve" smooth="yes"/>
      <point x="88" y="-1"/>
      <point x="31" y="76"/>
    </contour>
    <contour>
      <point x="362" y="310" type="curve"/>
      <point x="373" y="313"/>
      <point x="401" y="316"/>
      <point x="425" y="316" type="curve" smooth="yes"/>
      <point x="459" y="316"/>
      <point x="483" y="313"/>
      <point x="505" y="306" type="curve"/>
      <point x="517" y="319"/>
      <point x="520" y="334"/>
      <point x="520" y="346" type="curve" smooth="yes"/>
      <point x="520" y="379"/>
      <point x="486" y="393"/>
      <point x="450" y="393" type="curve" smooth="yes"/>
      <point x="398" y="393"/>
      <point x="367" y="365"/>
    </contour>
    <component base="uni0DD8" xOffset="830"/>
    <component base="uni0DD8" xOffset="584"/>
  </outline>
</glyph>
<glyph name="si_vocalicL" format="1">
  <advance width="820"/>
  <unicode hex="0D8F"/>
  <outline>
    <contour>
      <point x="640" y="53" type="curve" smooth="yes"/>
      <point x="640" y="39"/>
      <point x="651" y="28"/>
      <point x="665" y="28" type="curve" smooth="yes"/>
      <point x="679" y="28"/>
      <point x="690" y="39"/>
      <point x="690" y="53" type="curve" smooth="yes"/>
      <point x="690" y="67"/>
      <point x="679" y="78"/>
      <point x="665" y="78" type="curve" smooth="yes"/>
      <point x="651" y="78"/>
      <point x="640" y="67"/>
    </contour>
    <contour>
      <point x="582" y="445" type="curve" smooth="yes"/>
      <point x="582" y="467"/>
      <point x="598" y="481"/>
      <point x="630" y="481" type="curve" smooth="yes"/>
      <point x="717" y="481"/>
      <point x="773" y="378"/>
      <point x="773" y="240" type="curve" smooth="yes"/>
      <point x="773" y="147"/>
      <point x="742" y="1"/>
      <point x="666" y="1" type="curve" smooth="yes"/>
      <point x="636" y="1"/>
      <point x="614" y="23"/>
      <point x="614" y="53" type="curve" smooth="yes"/>
      <point x="614" y="79"/>
      <point x="633" y="105"/>
      <point x="666" y="105" type="curve" smooth="yes"/>
      <point x="683" y="105"/>
      <point x="701" y="97"/>
      <point x="711" y="78" type="curve"/>
      <point x="733" y="113"/>
      <point x="743" y="188"/>
      <point x="743" y="240" type="curve" smooth="yes"/>
      <point x="743" y="352"/>
      <point x="702" y="452"/>
      <point x="634" y="452" type="curve" smooth="yes"/>
      <point x="625" y="452"/>
      <point x="612" y="450"/>
      <point x="612" y="436" type="curve" smooth="yes"/>
      <point x="612" y="424"/>
      <point x="617" y="410"/>
      <point x="629" y="394" type="curve"/>
      <point x="616" y="403"/>
      <point x="597" y="419"/>
      <point x="589" y="422" type="curve"/>
      <point x="584" y="429"/>
      <point x="582" y="440"/>
    </contour>
    <contour>
      <point x="114" y="53" type="curve" smooth="yes"/>
      <point x="114" y="39"/>
      <point x="125" y="28"/>
      <point x="139" y="28" type="curve" smooth="yes"/>
      <point x="153" y="28"/>
      <point x="164" y="39"/>
      <point x="164" y="53" type="curve" smooth="yes"/>
      <point x="164" y="67"/>
      <point x="153" y="78"/>
      <point x="139" y="78" type="curve" smooth="yes"/>
      <point x="125" y="78"/>
      <point x="114" y="67"/>
    </contour>
    <contour>
      <point x="31" y="240" type="curve" smooth="yes"/>
      <point x="31" y="378"/>
      <point x="87" y="481"/>
      <point x="174" y="481" type="curve" smooth="yes"/>
      <point x="206" y="481"/>
      <point x="222" y="467"/>
      <point x="222" y="445" type="curve" smooth="yes"/>
      <point x="222" y="440"/>
      <point x="221" y="433"/>
      <point x="216" y="426" type="curve"/>
      <point x="208" y="423"/>
      <point x="186" y="413"/>
      <point x="173" y="404" type="curve"/>
      <point x="182" y="414"/>
      <point x="192" y="424"/>
      <point x="192" y="436" type="curve" smooth="yes"/>
      <point x="192" y="450"/>
      <point x="179" y="452"/>
      <point x="170" y="452" type="curve" smooth="yes"/>
      <point x="102" y="452"/>
      <point x="61" y="352"/>
      <point x="61" y="240" type="curve" smooth="yes"/>
      <point x="61" y="188"/>
      <point x="71" y="113"/>
      <point x="93" y="78" type="curve"/>
      <point x="103" y="97"/>
      <point x="121" y="105"/>
      <point x="138" y="105" type="curve" smooth="yes"/>
      <point x="171" y="105"/>
      <point x="190" y="79"/>
      <point x="190" y="53" type="curve" smooth="yes"/>
      <point x="190" y="23"/>
      <point x="168" y="1"/>
      <point x="138" y="1" type="curve" smooth="yes"/>
      <point x="62" y="1"/>
      <point x="31" y="147"/>
    </contour>
    <contour>
      <point x="133" y="184" type="curve" smooth="yes"/>
      <point x="133" y="275"/>
      <point x="201" y="327"/>
      <point x="308" y="327" type="curve" smooth="yes"/>
      <point x="321" y="327"/>
      <point x="333" y="326"/>
      <point x="345" y="325" type="curve"/>
      <point x="346" y="329"/>
      <point x="346" y="332"/>
      <point x="346" y="336" type="curve" smooth="yes"/>
      <point x="346" y="375"/>
      <point x="321" y="395"/>
      <point x="289" y="395" type="curve" smooth="yes"/>
      <point x="257" y="395"/>
      <point x="245" y="379"/>
      <point x="240" y="360" type="curve" smooth="yes"/>
      <point x="236" y="346"/>
      <point x="224" y="328"/>
      <point x="195" y="328" type="curve" smooth="yes"/>
      <point x="176" y="328"/>
      <point x="157" y="340"/>
      <point x="157" y="365" type="curve" smooth="yes"/>
      <point x="157" y="409"/>
      <point x="204" y="434"/>
      <point x="260" y="434" type="curve" smooth="yes"/>
      <point x="332" y="434"/>
      <point x="376" y="401"/>
      <point x="376" y="334" type="curve" smooth="yes"/>
      <point x="376" y="323"/>
      <point x="375" y="311"/>
      <point x="372" y="298" type="curve"/>
      <point x="355" y="300"/>
      <point x="320" y="302"/>
      <point x="318" y="302" type="curve" smooth="yes"/>
      <point x="241" y="302"/>
      <point x="170" y="276"/>
      <point x="170" y="201" type="curve" smooth="yes"/>
      <point x="170" y="107"/>
      <point x="294" y="71"/>
      <point x="408" y="71" type="curve" smooth="yes"/>
      <point x="515" y="71"/>
      <point x="641" y="110"/>
      <point x="641" y="205" type="curve" smooth="yes"/>
      <point x="641" y="278"/>
      <point x="573" y="304"/>
      <point x="495" y="304" type="curve" smooth="yes"/>
      <point x="472" y="304"/>
      <point x="448" y="301"/>
      <point x="425" y="297" type="curve"/>
      <point x="424" y="308"/>
      <point x="423" y="318"/>
      <point x="423" y="328" type="curve" smooth="yes"/>
      <point x="423" y="397"/>
      <point x="467" y="433"/>
      <point x="540" y="433" type="curve" smooth="yes"/>
      <point x="606" y="433"/>
      <point x="643" y="393"/>
      <point x="643" y="354" type="curve" smooth="yes"/>
      <point x="643" y="334"/>
      <point x="634" y="317"/>
      <point x="615" y="303" type="curve"/>
      <point x="656" y="279"/>
      <point x="676" y="241"/>
      <point x="676" y="186" type="curve" smooth="yes"/>
      <point x="676" y="56"/>
      <point x="549" y="0"/>
      <point x="408" y="0" type="curve" smooth="yes"/>
      <point x="260" y="0"/>
      <point x="133" y="46"/>
    </contour>
    <contour>
      <point x="455" y="336" type="curve" smooth="yes"/>
      <point x="455" y="332"/>
      <point x="455" y="329"/>
      <point x="455" y="325" type="curve"/>
      <point x="472" y="327"/>
      <point x="489" y="328"/>
      <point x="504" y="328" type="curve" smooth="yes"/>
      <point x="537" y="328"/>
      <point x="566" y="324"/>
      <point x="590" y="315" type="curve"/>
      <point x="602" y="326"/>
      <point x="607" y="338"/>
      <point x="607" y="351" type="curve" smooth="yes"/>
      <point x="607" y="380"/>
      <point x="580" y="405"/>
      <point x="533" y="405" type="curve" smooth="yes"/>
      <point x="490" y="405"/>
      <point x="455" y="381"/>
    </contour>
  </outline>
</glyph>
<glyph name="si_Ee" format="1">
  <advance width="595"/>
  <unicode hex="0D92"/>
  <outline>
    <contour>
      <point x="469" y="515" type="curve"/>
      <point x="469" y="648" type="line"/>
      <point x="490" y="631"/>
      <point x="555" y="614"/>
      <point x="555" y="558" type="curve" smooth="yes"/>
      <point x="555" y="522"/>
      <point x="532" y="509"/>
      <point x="502" y="509" type="curve" smooth="yes"/>
      <point x="491" y="509"/>
      <point x="475" y="512"/>
    </contour>
    <contour>
      <point x="441" y="447" type="line"/>
      <point x="469" y="417" type="line"/>
      <point x="469" y="492" type="line"/>
      <point x="478" y="489"/>
      <point x="495" y="484"/>
      <point x="519" y="484" type="curve" smooth="yes"/>
      <point x="566" y="484"/>
      <point x="596" y="517"/>
      <point x="596" y="557" type="curve" smooth="yes"/>
      <point x="596" y="650"/>
      <point x="497" y="646"/>
      <point x="441" y="693" type="curve"/>
    </contour>
    <contour>
      <point x="45" y="165" type="curve" smooth="yes"/>
      <point x="45" y="196"/>
      <point x="55" y="228"/>
      <point x="78" y="248" type="curve" smooth="yes"/>
      <point x="94" y="262"/>
      <point x="113" y="273"/>
      <point x="139" y="278" type="curve"/>
      <point x="173" y="290"/>
      <point x="208" y="302"/>
      <point x="245" y="302" type="curve" smooth="yes"/>
      <point x="257" y="302" type="line"/>
      <point x="257" y="304"/>
      <point x="257" y="306"/>
      <point x="257" y="308" type="curve" smooth="yes"/>
      <point x="257" y="347"/>
      <point x="231" y="389"/>
      <point x="194" y="389" type="curve" smooth="yes"/>
      <point x="155" y="389"/>
      <point x="144" y="365"/>
      <point x="138" y="349" type="curve" smooth="yes"/>
      <point x="132" y="330"/>
      <point x="122" y="317"/>
      <point x="100" y="317" type="curve" smooth="yes"/>
      <point x="84" y="317"/>
      <point x="64" y="327"/>
      <point x="64" y="353" type="curve" smooth="yes"/>
      <point x="64" y="400"/>
      <point x="114" y="426"/>
      <point x="169" y="426" type="curve" smooth="yes"/>
      <point x="257" y="426"/>
      <point x="289" y="352"/>
      <point x="289" y="290" type="curve" smooth="yes"/>
      <point x="289" y="287"/>
      <point x="289" y="280"/>
      <point x="289" y="277" type="curve"/>
      <point x="231" y="277" type="line" smooth="yes"/>
      <point x="187" y="277"/>
      <point x="147" y="265"/>
      <point x="122" y="249" type="curve" smooth="yes"/>
      <point x="95" y="232"/>
      <point x="82" y="206"/>
      <point x="82" y="180" type="curve" smooth="yes"/>
      <point x="82" y="94"/>
      <point x="189" y="71"/>
      <point x="279" y="71" type="curve" smooth="yes"/>
      <point x="432" y="71"/>
      <point x="513" y="152"/>
      <point x="513" y="261" type="curve" smooth="yes"/>
      <point x="513" y="318"/>
      <point x="496" y="358"/>
      <point x="471" y="394" type="curve"/>
      <point x="456" y="361"/>
      <point x="426" y="341"/>
      <point x="383" y="341" type="curve" smooth="yes"/>
      <point x="320" y="341"/>
      <point x="283" y="396"/>
      <point x="283" y="462" type="curve" smooth="yes"/>
      <point x="283" y="512"/>
      <point x="298" y="548"/>
      <point x="325" y="579" type="curve"/>
      <point x="386" y="546"/>
      <point x="454" y="472"/>
      <point x="493" y="412" type="curve" smooth="yes"/>
      <point x="529" y="356"/>
      <point x="545" y="309"/>
      <point x="545" y="239" type="curve" smooth="yes"/>
      <point x="545" y="119"/>
      <point x="459" y="0"/>
      <point x="276" y="0" type="curve" smooth="yes"/>
      <point x="155" y="0"/>
      <point x="45" y="46"/>
    </contour>
    <contour>
      <point x="16" y="270" type="curve"/>
      <point x="16" y="302" type="line"/>
      <point x="255" y="302" type="line"/>
      <point x="285" y="277" type="line"/>
      <point x="129" y="277" type="line" smooth="yes"/>
      <point x="58" y="276"/>
      <point x="32" y="273"/>
    </contour>
    <contour>
      <point x="313" y="466" type="curve" smooth="yes"/>
      <point x="313" y="417"/>
      <point x="333" y="377"/>
      <point x="390" y="377" type="curve" smooth="yes"/>
      <point x="414" y="377"/>
      <point x="442" y="388"/>
      <point x="452" y="422" type="curve"/>
      <point x="422" y="468"/>
      <point x="372" y="514"/>
      <point x="334" y="542" type="curve"/>
      <point x="322" y="524"/>
      <point x="313" y="501"/>
    </contour>
  </outline>
</glyph>
<glyph name="uni0DA5" format="1">
  <advance width="842"/>
  <unicode hex="0DA5"/>
  <outline>
    <contour>
      <point x="421" y="169" type="curve" smooth="yes"/>
      <point x="421" y="274"/>
      <point x="494" y="317"/>
      <point x="613" y="317" type="curve" smooth="yes"/>
      <point x="733" y="317" type="line"/>
      <point x="723" y="363"/>
      <point x="694" y="396"/>
      <point x="650" y="396" type="curve" smooth="yes"/>
      <point x="631" y="396"/>
      <point x="615" y="384"/>
      <point x="606" y="366" type="curve" smooth="yes"/>
      <point x="596" y="344"/>
      <point x="580" y="336"/>
      <point x="565" y="336" type="curve" smooth="yes"/>
      <point x="540" y="336"/>
      <point x="527" y="351"/>
      <point x="527" y="372" type="curve" smooth="yes"/>
      <point x="527" y="408"/>
      <point x="567" y="433"/>
      <point x="622" y="433" type="curve" smooth="yes"/>
      <point x="708" y="433"/>
      <point x="751" y="389"/>
      <point x="769" y="294" type="curve"/>
      <point x="632" y="294" type="line" smooth="yes"/>
      <point x="544" y="294"/>
      <point x="498" y="257"/>
      <point x="498" y="173" type="curve" smooth="yes"/>
      <point x="498" y="89"/>
      <point x="568" y="27"/>
      <point x="651" y="27" type="curve" smooth="yes"/>
      <point x="697" y="27"/>
      <point x="734" y="46"/>
      <point x="774" y="92" type="curve"/>
      <point x="797" y="75" type="line"/>
      <point x="766" y="39"/>
      <point x="696" y="-28"/>
      <point x="696" y="-104" type="curve" smooth="yes"/>
      <point x="696" y="-170"/>
      <point x="735" y="-195"/>
      <point x="799" y="-210" type="curve"/>
      <point x="799" y="-238" type="line"/>
      <point x="785" y="-241"/>
      <point x="767" y="-242"/>
      <point x="745" y="-242" type="curve" smooth="yes"/>
      <point x="674" y="-240"/>
      <point x="639" y="-199"/>
      <point x="639" y="-142" type="curve" smooth="yes"/>
      <point x="639" y="-103"/>
      <point x="662" y="-53"/>
      <point x="709" y="10" type="curve"/>
      <point x="674" y="0"/>
      <point x="651" y="-1"/>
      <point x="624" y="-1" type="curve" smooth="yes"/>
      <point x="493" y="-1"/>
      <point x="421" y="69"/>
    </contour>
    <contour>
      <point x="134" y="207" type="curve" smooth="yes"/>
      <point x="134" y="330"/>
      <point x="209" y="432"/>
      <point x="320" y="432" type="curve" smooth="yes"/>
      <point x="324" y="432"/>
      <point x="329" y="431"/>
      <point x="333" y="431" type="curve"/>
      <point x="333" y="408" type="line"/>
      <point x="330" y="408"/>
      <point x="325" y="408"/>
      <point x="322" y="408" type="curve" smooth="yes"/>
      <point x="236" y="408"/>
      <point x="169" y="332"/>
      <point x="169" y="230" type="curve" smooth="yes"/>
      <point x="169" y="147"/>
      <point x="217" y="71"/>
      <point x="306" y="71" type="curve" smooth="yes"/>
      <point x="365" y="71"/>
      <point x="418" y="99"/>
      <point x="418" y="158" type="curve" smooth="yes"/>
      <point x="418" y="196"/>
      <point x="398" y="217"/>
      <point x="367" y="217" type="curve" smooth="yes"/>
      <point x="360" y="217"/>
      <point x="349" y="214"/>
      <point x="344" y="210" type="curve"/>
      <point x="343" y="204"/>
      <point x="342" y="195"/>
      <point x="342" y="192" type="curve"/>
      <point x="315" y="192" type="line"/>
      <point x="329" y="352"/>
      <point x="406" y="438"/>
      <point x="560" y="438" type="curve" smooth="yes"/>
      <point x="591" y="438"/>
      <point x="641" y="436"/>
      <point x="674" y="426" type="curve"/>
      <point x="553" y="409" type="line"/>
      <point x="547" y="409"/>
      <point x="543" y="410"/>
      <point x="538" y="410" type="curve" smooth="yes"/>
      <point x="431" y="410"/>
      <point x="369" y="340"/>
      <point x="347" y="236" type="curve"/>
      <point x="355" y="240"/>
      <point x="363" y="241"/>
      <point x="370" y="241" type="curve" smooth="yes"/>
      <point x="418" y="241"/>
      <point x="452" y="202"/>
      <point x="452" y="136" type="curve" smooth="yes"/>
      <point x="452" y="56"/>
      <point x="395" y="-2"/>
      <point x="308" y="-2" type="curve" smooth="yes"/>
      <point x="197" y="-2"/>
      <point x="134" y="96"/>
    </contour>
    <contour>
      <point x="27" y="221" type="curve" smooth="yes"/>
      <point x="27" y="353"/>
      <point x="100" y="433"/>
      <point x="239" y="433" type="curve" smooth="yes"/>
      <point x="248" y="433"/>
      <point x="301" y="433"/>
      <point x="324" y="432" type="curve"/>
      <point x="320" y="432"/>
      <point x="231" y="406"/>
      <point x="231" y="406" type="curve"/>
      <point x="97" y="406"/>
      <point x="56" y="312"/>
      <point x="56" y="218" type="curve" smooth="yes"/>
      <point x="56" y="137"/>
      <point x="83" y="75"/>
      <point x="135" y="30" type="curve"/>
      <point x="135" y="0" type="line"/>
      <point x="69" y="33"/>
      <point x="27" y="120"/>
    </contour>
  </outline>
</glyph>
<glyph name="uni0DA9" format="1">
  <advance width="647"/>
  <unicode hex="0DA9"/>
  <outline>
    <contour>
      <point x="15" y="288" type="line"/>
      <point x="15" y="315" type="line"/>
      <point x="261" y="315" type="line"/>
      <point x="258" y="358"/>
      <point x="228" y="391"/>
      <point x="198" y="391" type="curve" smooth="yes"/>
      <point x="180" y="391"/>
      <point x="165" y="387"/>
      <point x="151" y="363" type="curve" smooth="yes"/>
      <point x="140" y="344"/>
      <point x="127" y="339"/>
      <point x="113" y="339" type="curve" smooth="yes"/>
      <point x="93" y="339"/>
      <point x="76" y="353"/>
      <point x="76" y="374" type="curve" smooth="yes"/>
      <point x="76" y="414"/>
      <point x="123" y="432"/>
      <point x="165" y="432" type="curve" smooth="yes"/>
      <point x="249" y="432"/>
      <point x="294" y="374"/>
      <point x="295" y="288" type="curve"/>
      <point x="220" y="288" type="line" smooth="yes"/>
      <point x="127" y="288"/>
      <point x="83" y="230"/>
      <point x="83" y="174" type="curve" smooth="yes"/>
      <point x="83" y="122"/>
      <point x="123" y="71"/>
      <point x="198" y="71" type="curve" smooth="yes"/>
      <point x="247" y="71"/>
      <point x="299" y="95"/>
      <point x="299" y="143" type="curve" smooth="yes"/>
      <point x="299" y="178" type="line"/>
      <point x="326" y="178" type="line"/>
      <point x="326" y="143" type="line" smooth="yes"/>
      <point x="326" y="97"/>
      <point x="374" y="71"/>
      <point x="424" y="71" type="curve" smooth="yes"/>
      <point x="520" y="71"/>
      <point x="562" y="167"/>
      <point x="562" y="273" type="curve" smooth="yes"/>
      <point x="562" y="428"/>
      <point x="456" y="556"/>
      <point x="298" y="556" type="curve" smooth="yes"/>
      <point x="218" y="556"/>
      <point x="153" y="525"/>
      <point x="106" y="468" type="curve"/>
      <point x="73" y="468" type="line"/>
      <point x="127" y="546"/>
      <point x="210" y="582"/>
      <point x="304" y="582" type="curve" smooth="yes"/>
      <point x="479" y="582"/>
      <point x="598" y="444"/>
      <point x="598" y="258" type="curve" smooth="yes"/>
      <point x="598" y="126"/>
      <point x="547" y="-0"/>
      <point x="428" y="-0" type="curve" smooth="yes"/>
      <point x="363" y="-0"/>
      <point x="335" y="29"/>
      <point x="313" y="59" type="curve"/>
      <point x="283" y="22"/>
      <point x="250" y="0"/>
      <point x="199" y="0" type="curve" smooth="yes"/>
      <point x="98" y="0"/>
      <point x="46" y="81"/>
      <point x="46" y="162" type="curve" smooth="yes"/>
      <point x="46" y="212"/>
      <point x="71" y="264"/>
      <point x="125" y="288" type="curve"/>
    </contour>
  </outline>
</glyph>
<glyph name="uni0DC0" format="1">
  <advance width="597"/>
  <unicode hex="0DC0"/>
  <outline>
    <contour>
      <point x="33" y="165" type="curve" smooth="yes"/>
      <point x="33" y="250"/>
      <point x="98" y="304"/>
      <point x="199" y="304" type="curve" smooth="yes"/>
      <point x="260" y="304" type="line"/>
      <point x="260" y="306"/>
      <point x="260" y="306"/>
      <point x="260" y="308" type="curve" smooth="yes"/>
      <point x="260" y="362"/>
      <point x="226" y="395"/>
      <point x="189" y="395" type="curve" smooth="yes"/>
      <point x="144" y="395"/>
      <point x="136" y="371"/>
      <point x="130" y="355" type="curve" smooth="yes"/>
      <point x="124" y="336"/>
      <point x="114" y="323"/>
      <point x="92" y="323" type="curve" smooth="yes"/>
      <point x="76" y="323"/>
      <point x="56" y="333"/>
      <point x="56" y="359" type="curve" smooth="yes"/>
      <point x="56" y="406"/>
      <point x="106" y="432"/>
      <point x="161" y="432" type="curve" smooth="yes"/>
      <point x="249" y="432"/>
      <point x="292" y="376"/>
      <point x="292" y="290" type="curve" smooth="yes"/>
      <point x="292" y="287"/>
      <point x="292" y="283"/>
      <point x="292" y="280" type="curve"/>
      <point x="202" y="280" type="line" smooth="yes"/>
      <point x="128" y="280"/>
      <point x="68" y="245"/>
      <point x="68" y="180" type="curve" smooth="yes"/>
      <point x="68" y="94"/>
      <point x="180" y="71"/>
      <point x="270" y="71" type="curve" smooth="yes"/>
      <point x="423" y="71"/>
      <point x="514" y="158"/>
      <point x="514" y="300" type="curve" smooth="yes"/>
      <point x="514" y="442"/>
      <point x="410" y="553"/>
      <point x="276" y="553" type="curve" smooth="yes"/>
      <point x="197" y="553"/>
      <point x="134" y="525"/>
      <point x="89" y="470" type="curve"/>
      <point x="57" y="470" type="line"/>
      <point x="106" y="540"/>
      <point x="178" y="577"/>
      <point x="276" y="577" type="curve" smooth="yes"/>
      <point x="436" y="577"/>
      <point x="548" y="443"/>
      <point x="548" y="274" type="curve" smooth="yes"/>
      <point x="548" y="114"/>
      <point x="450" y="0"/>
      <point x="267" y="0" type="curve" smooth="yes"/>
      <point x="146" y="0"/>
      <point x="33" y="46"/>
    </contour>
  </outline>
</glyph>
<glyph name="si_MatraAa" format="1">
  <advance width="312"/>
  <unicode hex="0DCF"/>
  <outline>
    <contour>
      <point x="22" y="110" type="curve" smooth="yes"/>
      <point x="22" y="117"/>
      <point x="22" y="125"/>
      <point x="23" y="132" type="curve"/>
      <point x="50" y="132" type="line"/>
      <point x="49" y="127"/>
      <point x="49" y="122"/>
      <point x="49" y="117" type="curve" smooth="yes"/>
      <point x="49" y="69"/>
      <point x="73" y="36"/>
      <point x="118" y="36" type="curve" smooth="yes"/>
      <point x="177" y="37"/>
      <point x="204" y="91"/>
      <point x="204" y="201" type="curve" smooth="yes"/>
      <point x="204" y="311"/>
      <point x="177" y="366"/>
      <point x="118" y="366" type="curve" smooth="yes"/>
      <point x="80" y="366"/>
      <point x="49" y="333"/>
      <point x="49" y="285" type="curve" smooth="yes"/>
      <point x="49" y="280"/>
      <point x="49" y="275"/>
      <point x="50" y="270" type="curve"/>
      <point x="23" y="270" type="line"/>
      <point x="22" y="277"/>
      <point x="22" y="285"/>
      <point x="22" y="292" type="curve" smooth="yes"/>
      <point x="22" y="361"/>
      <point x="74" y="403"/>
      <point x="133" y="403" type="curve" smooth="yes"/>
      <point x="224" y="403"/>
      <point x="270" y="329"/>
      <point x="270" y="201" type="curve" smooth="yes"/>
      <point x="270" y="73"/>
      <point x="224" y="-1"/>
      <point x="133" y="-1" type="curve" smooth="yes"/>
      <point x="66" y="-1"/>
      <point x="22" y="41"/>
    </contour>
  </outline>
</glyph>
<glyph name="si_MatraRr" format="1">
  <advance width="571"/>
  <unicode hex="0DF2"/>
  <outline>
    <contour>
      <point x="292" y="249" type="curve" smooth="yes"/>
      <point x="292" y="329"/>
      <point x="328" y="393"/>
      <point x="402" y="393" type="curve" smooth="yes"/>
      <point x="489" y="393"/>
      <point x="523" y="298"/>
      <point x="523" y="203" type="curve" smooth="yes"/>
      <point x="523" y="144"/>
      <point x="506" y="52"/>
      <point x="506" y="23" type="curve" smooth="yes"/>
      <point x="506" y="16"/>
      <point x="506" y="9"/>
      <point x="507" y="3" type="curve"/>
      <point x="477" y="3" type="line"/>
      <point x="474" y="12"/>
      <point x="469" y="17"/>
      <point x="462" y="17" type="curve" smooth="yes"/>
      <point x="450" y="17"/>
      <point x="424" y="-1"/>
      <point x="390" y="-1" type="curve" smooth="yes"/>
      <point x="331" y="-1"/>
      <point x="292" y="49"/>
      <point x="292" y="106" type="curve" smooth="yes"/>
      <point x="292" y="153"/>
      <point x="314" y="186"/>
      <point x="358" y="205" type="curve" smooth="yes"/>
      <point x="384" y="216"/>
      <point x="425" y="222"/>
      <point x="462" y="222" type="curve"/>
      <point x="462" y="312"/>
      <point x="435" y="358"/>
      <point x="392" y="358" type="curve" smooth="yes"/>
      <point x="340" y="358"/>
      <point x="317" y="308"/>
      <point x="317" y="246" type="curve" smooth="yes"/>
      <point x="317" y="244"/>
      <point x="317" y="244"/>
      <point x="317" y="242" type="curve"/>
      <point x="292" y="242" type="line"/>
      <point x="292" y="245"/>
      <point x="292" y="246"/>
    </contour>
    <contour>
      <point x="322" y="107" type="curve" smooth="yes"/>
      <point x="322" y="65"/>
      <point x="351" y="28"/>
      <point x="392" y="28" type="curve" smooth="yes"/>
      <point x="418" y="28"/>
      <point x="445" y="43"/>
      <point x="455" y="43" type="curve" smooth="yes"/>
      <point x="458" y="43"/>
      <point x="461" y="42"/>
      <point x="464" y="40" type="curve"/>
      <point x="462" y="53"/>
      <point x="461" y="79"/>
      <point x="461" y="116" type="curve" smooth="yes"/>
      <point x="461" y="148"/>
      <point x="462" y="168"/>
      <point x="462" y="186" type="curve" smooth="yes"/>
      <point x="462" y="189"/>
      <point x="462" y="193"/>
      <point x="462" y="195" type="curve"/>
      <point x="447" y="195"/>
      <point x="411" y="194"/>
      <point x="382" y="185" type="curve" smooth="yes"/>
      <point x="346" y="174"/>
      <point x="322" y="151"/>
    </contour>
    <contour>
      <point x="33" y="249" type="curve" smooth="yes"/>
      <point x="33" y="329"/>
      <point x="69" y="393"/>
      <point x="143" y="393" type="curve" smooth="yes"/>
      <point x="230" y="393"/>
      <point x="264" y="298"/>
      <point x="264" y="203" type="curve" smooth="yes"/>
      <point x="264" y="144"/>
      <point x="247" y="52"/>
      <point x="247" y="23" type="curve" smooth="yes"/>
      <point x="247" y="16"/>
      <point x="247" y="9"/>
      <point x="248" y="3" type="curve"/>
      <point x="218" y="3" type="line"/>
      <point x="215" y="12"/>
      <point x="210" y="17"/>
      <point x="203" y="17" type="curve" smooth="yes"/>
      <point x="191" y="17"/>
      <point x="165" y="-1"/>
      <point x="131" y="-1" type="curve" smooth="yes"/>
      <point x="72" y="-1"/>
      <point x="33" y="49"/>
      <point x="33" y="106" type="curve" smooth="yes"/>
      <point x="33" y="153"/>
      <point x="55" y="186"/>
      <point x="99" y="205" type="curve" smooth="yes"/>
      <point x="125" y="216"/>
      <point x="166" y="222"/>
      <point x="203" y="222" type="curve"/>
      <point x="203" y="312"/>
      <point x="176" y="358"/>
      <point x="133" y="358" type="curve" smooth="yes"/>
      <point x="81" y="358"/>
      <point x="58" y="308"/>
      <point x="58" y="246" type="curve" smooth="yes"/>
      <point x="58" y="244"/>
      <point x="58" y="244"/>
      <point x="58" y="242" type="curve"/>
      <point x="33" y="242" type="line"/>
      <point x="33" y="245"/>
      <point x="33" y="246"/>
    </contour>
    <contour>
      <point x="63" y="107" type="curve" smooth="yes"/>
      <point x="63" y="65"/>
      <point x="92" y="28"/>
      <point x="133" y="28" type="curve" smooth="yes"/>
      <point x="159" y="28"/>
      <point x="186" y="43"/>
      <point x="196" y="43" type="curve" smooth="yes"/>
      <point x="199" y="43"/>
      <point x="202" y="42"/>
      <point x="205" y="40" type="curve"/>
      <point x="203" y="53"/>
      <point x="202" y="79"/>
      <point x="202" y="116" type="curve" smooth="yes"/>
      <point x="202" y="148"/>
      <point x="203" y="168"/>
      <point x="203" y="186" type="curve" smooth="yes"/>
      <point x="203" y="189"/>
      <point x="203" y="193"/>
      <point x="203" y="195" type="curve"/>
      <point x="188" y="195"/>
      <point x="152" y="194"/>
      <point x="123" y="185" type="curve" smooth="yes"/>
      <point x="87" y="174"/>
      <point x="63" y="151"/>
    </contour>
  </outline>
</glyph>
<glyph name="si_kundaliya" format="1">
  <advance width="1742"/>
  <unicode hex="0DF4"/>
  <outline>
    <contour>
      <point x="1296" y="46" type="curve"/>
      <point x="1322" y="136" type="line"/>
      <point x="1173" y="44" type="line"/>
      <point x="1203" y="180" type="line"/>
      <point x="1047" y="77" type="line"/>
      <point x="1065" y="243" type="line"/>
      <point x="907" y="94" type="line"/>
      <point x="893" y="270" type="line"/>
      <point x="758" y="122" type="line"/>
      <point x="728" y="267" type="line"/>
      <point x="596" y="118" type="line"/>
      <point x="568" y="229" type="line"/>
      <point x="455" y="80" type="line"/>
      <point x="425" y="166" type="line"/>
      <point x="363" y="56" type="line"/>
      <point x="350" y="79"/>
      <point x="337" y="90"/>
      <point x="325" y="90" type="curve" smooth="yes"/>
      <point x="261" y="90"/>
      <point x="213" y="-2"/>
      <point x="126" y="-2" type="curve" smooth="yes"/>
      <point x="86" y="-2"/>
      <point x="51" y="24"/>
      <point x="51" y="64" type="curve" smooth="yes"/>
      <point x="51" y="100"/>
      <point x="74" y="120"/>
      <point x="102" y="120" type="curve" smooth="yes"/>
      <point x="130" y="120"/>
      <point x="149" y="97"/>
      <point x="149" y="71" type="curve" smooth="yes"/>
      <point x="149" y="55"/>
      <point x="143" y="38"/>
      <point x="130" y="28" type="curve"/>
      <point x="133" y="24"/>
      <point x="139" y="22"/>
      <point x="148" y="22" type="curve" smooth="yes"/>
      <point x="199" y="22"/>
      <point x="278" y="126"/>
      <point x="332" y="126" type="curve" smooth="yes"/>
      <point x="342" y="126"/>
      <point x="360" y="123"/>
      <point x="369" y="106" type="curve"/>
      <point x="447" y="244" type="line"/>
      <point x="481" y="146" type="line"/>
      <point x="606" y="313" type="line"/>
      <point x="636" y="192" type="line"/>
      <point x="772" y="349" type="line"/>
      <point x="802" y="200" type="line"/>
      <point x="949" y="368" type="line"/>
      <point x="963" y="178" type="line"/>
      <point x="1135" y="337" type="line"/>
      <point x="1111" y="148" type="line"/>
      <point x="1279" y="256" type="line"/>
      <point x="1245" y="114" type="line"/>
      <point x="1390" y="206" type="line"/>
      <point x="1360" y="118" type="line"/>
      <point x="1369" y="123"/>
      <point x="1380" y="126"/>
      <point x="1393" y="126" type="curve" smooth="yes"/>
      <point x="1447" y="126"/>
      <point x="1527" y="22"/>
      <point x="1577" y="22" type="curve" smooth="yes"/>
      <point x="1586" y="22"/>
      <point x="1592" y="24"/>
      <point x="1595" y="28" type="curve"/>
      <point x="1583" y="38"/>
      <point x="1576" y="55"/>
      <point x="1576" y="71" type="curve" smooth="yes"/>
      <point x="1576" y="97"/>
      <point x="1595" y="120"/>
      <point x="1623" y="120" type="curve" smooth="yes"/>
      <point x="1651" y="120"/>
      <point x="1674" y="100"/>
      <point x="1674" y="64" type="curve" smooth="yes"/>
      <point x="1674" y="24"/>
      <point x="1639" y="-2"/>
      <point x="1599" y="-2" type="curve" smooth="yes"/>
      <point x="1512" y="-2"/>
      <point x="1465" y="90"/>
      <point x="1400" y="90" type="curve" smooth="yes"/>
      <point x="1355" y="90"/>
      <point x="1310" y="60"/>
    </contour>
  </outline>
</glyph>
<glyph name="uni2013" format="1">
  <advance width="680"/>
  <unicode hex="2013"/>
  <outline>
    <contour>
      <point x="100" y="200" type="line"/>
      <point x="580" y="200" type="line"/>
      <point x="580" y="240" type="line"/>
      <point x="100" y="240" type="line"/>
    </contour>
  </outline>
</glyph>
<glyph name=".notdef" format="1">
  <advance width="629"/>
  <outline>
    <contour>
      <point x="89" y="-142" type="curve" smooth="yes"/>
      <point x="89" y="-183"/>
      <point x="115" y="-203"/>
      <point x="168" y="-203" type="curve" smooth="yes"/>
      <point x="169" y="-203"/>
      <point x="169" y="-203"/>
      <point x="169" y="-203" type="curve"/>
      <point x="548" y="-202" type="line"/>
      <point x="548" y="132" type="line"/>
      <point x="581" y="189" type="line"/>
      <point x="581" y="-235" type="line"/>
      <point x="158" y="-235" type="line" smooth="yes"/>
      <point x="94" y="-235"/>
      <point x="52" y="-204"/>
      <point x="52" y="-147" type="curve" smooth="yes"/>
      <point x="52" y="-95"/>
      <point x="99" y="-51"/>
      <point x="151" y="-51" type="curve" smooth="yes"/>
      <point x="154" y="-51"/>
      <point x="156" y="-51"/>
      <point x="159" y="-51" type="curve" smooth="yes"/>
      <point x="200" y="-51"/>
      <point x="229" y="-71"/>
      <point x="247" y="-110" type="curve"/>
      <point x="217" y="-122" type="line"/>
      <point x="207" y="-95"/>
      <point x="188" y="-81"/>
      <point x="159" y="-81" type="curve" smooth="yes"/>
      <point x="120" y="-81"/>
      <point x="89" y="-105"/>
    </contour>
  </outline>
</glyph>
<glyph name="si_BRa" format="1">
  <advance width="619"/>
  <outline>
    <contour>
      <point x="58" y="-44" type="curve"/>
      <point x="87" y="-44" type="line"/>
      <point x="121" y="-119"/>
      <point x="186" y="-157"/>
      <point x="288" y="-157" type="curve" smooth="yes"/>
      <point x="427" y="-157"/>
      <point x="538" y="-87"/>
      <point x="538" y="50" type="curve" smooth="yes"/>
      <point x="538" y="71"/>
      <point x="533" y="93"/>
      <point x="526" y="102" type="curve"/>
      <point x="542" y="133" type="line"/>
      <point x="560" y="106"/>
      <point x="568" y="75"/>
      <point x="568" y="38" type="curve" smooth="yes"/>
      <point x="568" y="-124"/>
      <point x="443" y="-219"/>
      <point x="304" y="-219" type="curve" smooth="yes"/>
      <point x="175" y="-219"/>
      <point x="94" y="-153"/>
    </contour>
    <contour>
      <point x="101" y="76" type="curve" smooth="yes"/>
      <point x="101" y="50"/>
      <point x="124" y="27"/>
      <point x="150" y="27" type="curve" smooth="yes"/>
      <point x="176" y="27"/>
      <point x="199" y="50"/>
      <point x="199" y="76" type="curve" smooth="yes"/>
      <point x="199" y="102"/>
      <point x="176" y="125"/>
      <point x="150" y="125" type="curve" smooth="yes"/>
      <point x="124" y="125"/>
      <point x="101" y="102"/>
    </contour>
    <contour>
      <point x="33" y="187" type="curve" smooth="yes"/>
      <point x="33" y="314"/>
      <point x="120" y="396"/>
      <point x="247" y="396" type="curve" smooth="yes"/>
      <point x="339" y="396"/>
      <point x="423" y="345"/>
      <point x="423" y="257" type="curve" smooth="yes"/>
      <point x="423" y="126"/>
      <point x="304" y="167"/>
      <point x="304" y="101" type="curve" smooth="yes"/>
      <point x="304" y="76"/>
      <point x="320" y="64"/>
      <point x="351" y="64" type="curve" smooth="yes"/>
      <point x="462" y="64"/>
      <point x="530" y="202"/>
      <point x="530" y="313" type="curve" smooth="yes"/>
      <point x="530" y="458"/>
      <point x="442" y="561"/>
      <point x="292" y="561" type="curve" smooth="yes"/>
      <point x="198" y="561"/>
      <point x="133" y="530"/>
      <point x="94" y="470" type="curve"/>
      <point x="64" y="470" type="line"/>
      <point x="99" y="542"/>
      <point x="179" y="585"/>
      <point x="292" y="585" type="curve" smooth="yes"/>
      <point x="470" y="585"/>
      <point x="575" y="465"/>
      <point x="575" y="284" type="curve" smooth="yes"/>
      <point x="575" y="141"/>
      <point x="518" y="-2"/>
      <point x="381" y="-2" type="curve" smooth="yes"/>
      <point x="321" y="-2"/>
      <point x="273" y="35"/>
      <point x="273" y="94" type="curve" smooth="yes"/>
      <point x="273" y="186"/>
      <point x="388" y="156"/>
      <point x="388" y="237" type="curve" smooth="yes"/>
      <point x="388" y="296"/>
      <point x="309" y="320"/>
      <point x="237" y="320" type="curve" smooth="yes"/>
      <point x="146" y="320"/>
      <point x="64" y="267"/>
      <point x="64" y="162" type="curve" smooth="yes"/>
      <point x="64" y="136"/>
      <point x="69" y="106"/>
      <point x="77" y="91" type="curve"/>
      <point x="81" y="126"/>
      <point x="109" y="153"/>
      <point x="150" y="153" type="curve" smooth="yes"/>
      <point x="193" y="153"/>
      <point x="229" y="119"/>
      <point x="229" y="77" type="curve" smooth="yes"/>
      <point x="229" y="29"/>
      <point x="190" y="-1"/>
      <point x="150" y="-1" type="curve" smooth="yes"/>
      <point x="68" y="-1"/>
      <point x="33" y="91"/>
    </contour>
  </outline>
</glyph>
<glyph name="si_Ba.reph" format="1">
  <advance width="619"/>
  <outline>
    <contour>
      <point x="260.086" y="628" type="curve" smooth="yes"/>
      <point x="260.086" y="648.554"/>
      <point x="278.684" y="665.193"/>
      <point x="301" y="665.193" type="curve" smooth="yes"/>
      <point x="323.316" y="665.193"/>
      <point x="341.914" y="648.554"/>
      <point x="341.914" y="628" type="curve" smooth="yes"/>
      <point x="341.914" y="607.446"/>
      <point x="323.316" y="590.807"/>
      <point x="301" y="590.807" type="curve" smooth="yes"/>
      <point x="278.684" y="590.807"/>
      <point x="260.086" y="607.446"/>
    </contour>
    <contour>
      <point x="158" y="647" type="curve" smooth="yes"/>
      <point x="158" y="591"/>
      <point x="217" y="562"/>
      <point x="276" y="562" type="curve" smooth="yes"/>
      <point x="334" y="562"/>
      <point x="369" y="588"/>
      <point x="369" y="627" type="curve" smooth="yes"/>
      <point x="369" y="662"/>
      <point x="341" y="689"/>
      <point x="300" y="689" type="curve" smooth="yes"/>
      <point x="264.354" y="689"/>
      <point x="233" y="664"/>
      <point x="233" y="629" type="curve" smooth="yes"/>
      <point x="233" y="608"/>
      <point x="245.5" y="593.25"/>
      <point x="253.5" y="587.25" type="curve"/>
      <point x="230.304" y="589.216"/>
      <point x="189.25" y="607.925"/>
      <point x="189.25" y="647" type="curve" smooth="yes"/>
      <point x="189.25" y="699.556"/>
      <point x="244.222" y="720.75"/>
      <point x="297" y="720.75" type="curve" smooth="yes"/>
      <point x="358" y="720.75"/>
      <point x="408.75" y="690.241"/>
      <point x="408.75" y="633" type="curve" smooth="yes"/>
      <point x="408.75" y="605.734"/>
      <point x="393.42" y="581.387"/>
      <point x="380.25" y="569" type="curve"/>
      <point x="414" y="569" type="line"/>
      <point x="430.667" y="588.333"/>
      <point x="439" y="610"/>
      <point x="439" y="634" type="curve" smooth="yes"/>
      <point x="439" y="705"/>
      <point x="375" y="748"/>
      <point x="298" y="748" type="curve" smooth="yes"/>
      <point x="216.12" y="748"/>
      <point x="158" y="711"/>
    </contour>
    <contour>
      <point x="101.49" y="76" type="curve" smooth="yes"/>
      <point x="101.49" y="49.54"/>
      <point x="123.54" y="27.4902"/>
      <point x="150" y="27.4902" type="curve" smooth="yes"/>
      <point x="176.46" y="27.4902"/>
      <point x="198.51" y="49.54"/>
      <point x="198.51" y="76" type="curve" smooth="yes"/>
      <point x="198.51" y="102.46"/>
      <point x="176.46" y="124.51"/>
      <point x="150" y="124.51" type="curve" smooth="yes"/>
      <point x="123.54" y="124.51"/>
      <point x="101.49" y="102.46"/>
    </contour>
    <contour>
      <point x="33" y="187" type="curve" smooth="yes"/>
      <point x="33" y="313.688"/>
      <point x="120.107" y="396"/>
      <point x="247" y="396" type="curve" smooth="yes"/>
      <point x="338.787" y="396"/>
      <point x="423" y="344.764"/>
      <point x="423" y="257" type="curve" smooth="yes"/>
      <point x="423" y="126"/>
      <point x="304" y="167"/>
      <point x="304" y="101" type="curve" smooth="yes"/>
      <point x="304" y="76.3333"/>
      <point x="319.667" y="64"/>
      <point x="351" y="64" type="curve" smooth="yes"/>
      <point x="461.835" y="64"/>
      <point x="530" y="202"/>
      <point x="530" y="313" type="curve" smooth="yes"/>
      <point x="530" y="458"/>
      <point x="442" y="561"/>
      <point x="292" y="561" type="curve" smooth="yes"/>
      <point x="198" y="561"/>
      <point x="132.667" y="530"/>
      <point x="94" y="470" type="curve"/>
      <point x="64" y="470" type="line"/>
      <point x="98.6667" y="542"/>
      <point x="178.571" y="585"/>
      <point x="292" y="585" type="curve" smooth="yes"/>
      <point x="470" y="585"/>
      <point x="575" y="465.143"/>
      <point x="575" y="284" type="curve" smooth="yes"/>
      <point x="575" y="141.31"/>
      <point x="518.06" y="-2"/>
      <point x="381" y="-2" type="curve" smooth="yes"/>
      <point x="321.202" y="-2"/>
      <point x="273" y="34.5566"/>
      <point x="273" y="94" type="curve" smooth="yes"/>
      <point x="273" y="186"/>
      <point x="388" y="156"/>
      <point x="388" y="237" type="curve" smooth="yes"/>
      <point x="388" y="296"/>
      <point x="308.91" y="320"/>
      <point x="237" y="320" type="curve" smooth="yes"/>
      <point x="146" y="320"/>
      <point x="64" y="267"/>
      <point x="64" y="162" type="curve" smooth="yes"/>
      <point x="64" y="136"/>
      <point x="69" y="106"/>
      <point x="77" y="91" type="curve"/>
      <point x="81" y="126"/>
      <point x="109.438" y="153"/>
      <point x="150" y="153" type="curve" smooth="yes"/>
      <point x="193" y="153"/>
      <point x="229" y="119"/>
      <point x="229" y="77" type="curve" smooth="yes"/>
      <point x="229" y="29"/>
      <point x="190" y="-1"/>
      <point x="150" y="-1" type="curve" smooth="yes"/>
      <point x="68" y="-1"/>
      <point x="33" y="91.123"/>
    </contour>
  </outline>
</glyph>
<glyph name="si_BhIi" format="1">
  <advance width="670"/>
  <outline>
    <contour>
      <point x="419" y="520" type="curve" smooth="yes"/>
      <point x="419" y="486"/>
      <point x="450" y="458"/>
      <point x="488" y="458" type="curve" smooth="yes"/>
      <point x="527" y="458"/>
      <point x="558" y="486"/>
      <point x="558" y="520" type="curve" smooth="yes"/>
      <point x="558" y="554"/>
      <point x="527" y="582"/>
      <point x="488" y="582" type="curve" smooth="yes"/>
      <point x="450" y="582"/>
      <point x="419" y="554"/>
    </contour>
    <contour>
      <point x="178" y="537" type="curve" smooth="yes"/>
      <point x="178" y="628"/>
      <point x="277" y="667"/>
      <point x="379" y="667" type="curve" smooth="yes"/>
      <point x="485" y="667"/>
      <point x="587" y="618"/>
      <point x="587" y="525" type="curve" smooth="yes"/>
      <point x="587" y="456"/>
      <point x="529" y="431"/>
      <point x="486" y="431" type="curve" smooth="yes"/>
      <point x="442" y="431"/>
      <point x="389" y="464"/>
      <point x="389" y="519" type="curve" smooth="yes"/>
      <point x="389" y="565"/>
      <point x="423" y="591"/>
      <point x="439" y="594" type="curve"/>
      <point x="417" y="597"/>
      <point x="403" y="598"/>
      <point x="379" y="598" type="curve" smooth="yes"/>
      <point x="298" y="598"/>
      <point x="219" y="568"/>
      <point x="219" y="516" type="curve" smooth="yes"/>
      <point x="219" y="456"/>
      <point x="353" y="432"/>
      <point x="439" y="431" type="curve" smooth="yes"/>
      <point x="440" y="431"/>
      <point x="440" y="431"/>
      <point x="441" y="432" type="curve"/>
      <point x="425" y="409" type="line"/>
      <point x="265" y="412"/>
      <point x="178" y="462"/>
    </contour>
    <component base="si_Bha"/>
  </outline>
</glyph>
<glyph name="si_BhRIi" format="1">
  <advance width="670"/>
  <outline>
    <contour>
      <point x="418" y="520" type="curve" smooth="yes"/>
      <point x="418" y="485"/>
      <point x="449" y="457"/>
      <point x="488" y="457" type="curve" smooth="yes"/>
      <point x="528" y="457"/>
      <point x="559" y="485"/>
      <point x="559" y="520" type="curve" smooth="yes"/>
      <point x="559" y="555"/>
      <point x="528" y="583"/>
      <point x="488" y="583" type="curve" smooth="yes"/>
      <point x="449" y="583"/>
      <point x="418" y="555"/>
    </contour>
    <contour>
      <point x="178" y="537" type="curve" smooth="yes"/>
      <point x="178" y="628"/>
      <point x="277" y="667"/>
      <point x="379" y="667" type="curve" smooth="yes"/>
      <point x="485" y="667"/>
      <point x="587" y="618"/>
      <point x="587" y="525" type="curve" smooth="yes"/>
      <point x="587" y="456"/>
      <point x="529" y="431"/>
      <point x="486" y="431" type="curve" smooth="yes"/>
      <point x="442" y="431"/>
      <point x="389" y="464"/>
      <point x="389" y="519" type="curve" smooth="yes"/>
      <point x="389" y="565"/>
      <point x="423" y="591"/>
      <point x="439" y="594" type="curve"/>
      <point x="417" y="597"/>
      <point x="403" y="598"/>
      <point x="379" y="598" type="curve" smooth="yes"/>
      <point x="298" y="598"/>
      <point x="219" y="568"/>
      <point x="219" y="516" type="curve" smooth="yes"/>
      <point x="219" y="456"/>
      <point x="353" y="432"/>
      <point x="439" y="431" type="curve" smooth="yes"/>
      <point x="440" y="431"/>
      <point x="440" y="431"/>
      <point x="441" y="432" type="curve"/>
      <point x="425" y="408" type="line"/>
      <point x="265" y="411"/>
      <point x="178" y="462"/>
    </contour>
    <contour>
      <point x="76" y="-44" type="curve"/>
      <point x="103" y="-44" type="line"/>
      <point x="138" y="-119"/>
      <point x="207" y="-157"/>
      <point x="313" y="-157" type="curve" smooth="yes"/>
      <point x="456" y="-157"/>
      <point x="574" y="-90"/>
      <point x="574" y="50" type="curve" smooth="yes"/>
      <point x="574" y="71"/>
      <point x="569" y="93"/>
      <point x="562" y="102" type="curve"/>
      <point x="575" y="133" type="line"/>
      <point x="593" y="106"/>
      <point x="602" y="75"/>
      <point x="602" y="38" type="curve" smooth="yes"/>
      <point x="602" y="-124"/>
      <point x="473" y="-219"/>
      <point x="329" y="-219" type="curve" smooth="yes"/>
      <point x="196" y="-219"/>
      <point x="113" y="-153"/>
    </contour>
    <component base="uni0DB7"/>
  </outline>
</glyph>
<glyph name="si_BhUu" format="1">
  <advance width="670"/>
  <outline>
    <contour>
      <point x="6" y="271" type="curve"/>
      <point x="6" y="303" type="line"/>
      <point x="212" y="303" type="line"/>
      <point x="171" y="278" type="line"/>
      <point x="140" y="278" type="line" smooth="yes"/>
      <point x="69" y="277"/>
      <point x="22" y="273.667"/>
    </contour>
    <contour>
      <point x="48.9551" y="155.113" type="curve" smooth="yes"/>
      <point x="48.9551" y="253"/>
      <point x="148" y="303.353"/>
      <point x="218" y="303.353" type="curve" smooth="yes"/>
      <point x="221.958" y="303.353"/>
      <point x="217.959" y="303.224"/>
      <point x="222" y="303" type="curve"/>
      <point x="222" y="345.316"/>
      <point x="198" y="383.056"/>
      <point x="160.457" y="383.056" type="curve" smooth="yes"/>
      <point x="139.505" y="383.056"/>
      <point x="127.798" y="370.856"/>
      <point x="122" y="355.692" type="curve" smooth="yes"/>
      <point x="116" y="340"/>
      <point x="102.673" y="327.24"/>
      <point x="81.8027" y="327.24" type="curve" smooth="yes"/>
      <point x="62" y="327.24"/>
      <point x="49.0234" y="341"/>
      <point x="49.0234" y="364" type="curve" smooth="yes"/>
      <point x="49.0234" y="394.208"/>
      <point x="77.7021" y="432.033"/>
      <point x="134.455" y="432.033" type="curve" smooth="yes"/>
      <point x="213.35" y="432.033"/>
      <point x="253.805" y="360.444"/>
      <point x="255" y="278" type="curve"/>
      <point x="243" y="280"/>
      <point x="233" y="280.021"/>
      <point x="229" y="280.021" type="curve" smooth="yes"/>
      <point x="163" y="280.021"/>
      <point x="85.75" y="245.325"/>
      <point x="85.75" y="175.359" type="curve" smooth="yes"/>
      <point x="85.75" y="105.729"/>
      <point x="149.657" y="72"/>
      <point x="224" y="72" type="curve" smooth="yes"/>
      <point x="290.437" y="72"/>
      <point x="346.111" y="100.488"/>
      <point x="346.111" y="164.323" type="curve" smooth="yes"/>
      <point x="346.111" y="194.87"/>
      <point x="331" y="212.412"/>
      <point x="311" y="212.412" type="curve" smooth="yes"/>
      <point x="297.518" y="212.412"/>
      <point x="283.754" y="203.011"/>
      <point x="277" y="182" type="curve"/>
      <point x="255" y="192" type="line"/>
      <point x="264" y="317"/>
      <point x="345.087" y="432.01"/>
      <point x="446.302" y="432.01" type="curve" smooth="yes"/>
      <point x="558.174" y="432.01"/>
      <point x="621.019" y="328.65"/>
      <point x="621.019" y="210.962" type="curve" smooth="yes"/>
      <point x="621.019" y="92.0049"/>
      <point x="532" y="-1.30371"/>
      <point x="409" y="-1.30371" type="curve" smooth="yes"/>
      <point x="395.686" y="-1.30371"/>
      <point x="381.993" y="-0.266602"/>
      <point x="368" y="2" type="curve"/>
      <point x="368" y="29" type="line"/>
      <point x="380.328" y="27.0869"/>
      <point x="392.354" y="26.2051"/>
      <point x="404" y="26.2051" type="curve" smooth="yes"/>
      <point x="503" y="26.2051"/>
      <point x="573.147" y="93.4062"/>
      <point x="573.147" y="192.821" type="curve" smooth="yes"/>
      <point x="573.147" y="288.169"/>
      <point x="520.794" y="362"/>
      <point x="430" y="362" type="curve" smooth="yes"/>
      <point x="356.667" y="362"/>
      <point x="309" y="317.667"/>
      <point x="287" y="229" type="curve"/>
      <point x="296.835" y="234.532"/>
      <point x="306.634" y="237.17"/>
      <point x="316" y="237.17" type="curve" smooth="yes"/>
      <point x="354" y="237.17"/>
      <point x="382.163" y="199.14"/>
      <point x="382.163" y="145.35" type="curve" smooth="yes"/>
      <point x="382.163" y="52.9932"/>
      <point x="311.501" y="-0.762695"/>
      <point x="217.033" y="-0.762695" type="curve" smooth="yes"/>
      <point x="119.482" y="-0.762695"/>
      <point x="48.9551" y="61.0615"/>
    </contour>
    <contour>
      <point x="373.021" y="-129" type="curve" smooth="yes"/>
      <point x="373.021" y="-93.3486"/>
      <point x="404.584" y="-72"/>
      <point x="437.021" y="-67" type="curve"/>
      <point x="382.021" y="-39" type="line"/>
      <point x="469.021" y="-14" type="line"/>
      <point x="375.521" y="1" type="line"/>
      <point x="424.021" y="13" type="line"/>
      <point x="543.521" y="-7" type="line"/>
      <point x="438.521" y="-44" type="line"/>
      <point x="498.021" y="-76" type="line"/>
      <point x="470.021" y="-83"/>
      <point x="413.021" y="-85.5"/>
      <point x="413.021" y="-115" type="curve" smooth="yes"/>
      <point x="413.021" y="-146"/>
      <point x="454.945" y="-155"/>
      <point x="497.021" y="-155" type="curve" smooth="yes"/>
      <point x="551.021" y="-155"/>
      <point x="596.75" y="-131"/>
      <point x="596.75" y="-82" type="curve" smooth="yes"/>
      <point x="596.75" y="-77"/>
      <point x="596.215" y="-69.3867"/>
      <point x="591.021" y="-59" type="curve"/>
      <point x="624.021" y="-59" type="line"/>
      <point x="627.612" y="-71.1182"/>
      <point x="628.325" y="-82.833"/>
      <point x="628.325" y="-94" type="curve" smooth="yes"/>
      <point x="628.325" y="-161"/>
      <point x="577.021" y="-205"/>
      <point x="495.021" y="-205" type="curve" smooth="yes"/>
      <point x="437.021" y="-205"/>
      <point x="373.021" y="-187.466"/>
    </contour>
  </outline>
</glyph>
<glyph name="si_CRIi" format="1">
  <advance width="621"/>
  <outline>
    <contour>
      <point x="394" y="555" type="curve" smooth="yes"/>
      <point x="394" y="585"/>
      <point x="421" y="609"/>
      <point x="454" y="609" type="curve" smooth="yes"/>
      <point x="487" y="609"/>
      <point x="514" y="585"/>
      <point x="514" y="555" type="curve" smooth="yes"/>
      <point x="514" y="525"/>
      <point x="487" y="501"/>
      <point x="454" y="501" type="curve" smooth="yes"/>
      <point x="421" y="501"/>
      <point x="394" y="525"/>
    </contour>
    <contour>
      <point x="69" y="562" type="curve" smooth="yes"/>
      <point x="69" y="476"/>
      <point x="190" y="483"/>
      <point x="279" y="478" type="curve" smooth="yes"/>
      <point x="380" y="472"/>
      <point x="446" y="472"/>
      <point x="499" y="414" type="curve" smooth="yes"/>
      <point x="527" y="384"/>
      <point x="538" y="333"/>
      <point x="538" y="286" type="curve"/>
      <point x="577" y="274" type="line"/>
      <point x="577" y="359"/>
      <point x="541" y="423"/>
      <point x="492" y="459" type="curve" smooth="yes"/>
      <point x="437" y="499"/>
      <point x="343" y="501"/>
      <point x="278" y="504" type="curve" smooth="yes"/>
      <point x="176" y="508"/>
      <point x="111" y="508"/>
      <point x="111" y="554" type="curve" smooth="yes"/>
      <point x="111" y="606"/>
      <point x="224" y="611"/>
      <point x="300" y="611" type="curve" smooth="yes"/>
      <point x="342" y="611"/>
      <point x="374" y="609"/>
      <point x="381" y="608" type="curve"/>
      <point x="375" y="600"/>
      <point x="362" y="583"/>
      <point x="362" y="558" type="curve" smooth="yes"/>
      <point x="362" y="505"/>
      <point x="410" y="474"/>
      <point x="454" y="474" type="curve" smooth="yes"/>
      <point x="498" y="474"/>
      <point x="546" y="505"/>
      <point x="546" y="558" type="curve" smooth="yes"/>
      <point x="546" y="639"/>
      <point x="436" y="670"/>
      <point x="300" y="670" type="curve" smooth="yes"/>
      <point x="200" y="670"/>
      <point x="69" y="652"/>
    </contour>
    <contour>
      <point x="64" y="165" type="curve" smooth="yes"/>
      <point x="64" y="196"/>
      <point x="74" y="228"/>
      <point x="97" y="248" type="curve" smooth="yes"/>
      <point x="113" y="262"/>
      <point x="132" y="273"/>
      <point x="158" y="278" type="curve"/>
      <point x="192" y="290"/>
      <point x="233" y="302"/>
      <point x="270" y="302" type="curve" smooth="yes"/>
      <point x="287" y="302" type="line"/>
      <point x="287" y="304"/>
      <point x="287" y="306"/>
      <point x="287" y="308" type="curve" smooth="yes"/>
      <point x="287" y="362"/>
      <point x="254" y="395"/>
      <point x="215" y="395" type="curve" smooth="yes"/>
      <point x="169" y="395"/>
      <point x="162" y="371"/>
      <point x="158" y="355" type="curve" smooth="yes"/>
      <point x="152" y="336"/>
      <point x="141" y="323"/>
      <point x="120" y="323" type="curve" smooth="yes"/>
      <point x="104" y="323"/>
      <point x="83" y="334"/>
      <point x="83" y="360" type="curve" smooth="yes"/>
      <point x="83" y="404"/>
      <point x="133" y="432"/>
      <point x="188" y="432" type="curve" smooth="yes"/>
      <point x="276" y="432"/>
      <point x="319" y="376"/>
      <point x="319" y="290" type="curve" smooth="yes"/>
      <point x="319" y="287"/>
      <point x="319" y="280"/>
      <point x="319" y="277" type="curve"/>
      <point x="250" y="277" type="line" smooth="yes"/>
      <point x="206" y="277"/>
      <point x="166" y="265"/>
      <point x="141" y="249" type="curve" smooth="yes"/>
      <point x="114" y="232"/>
      <point x="101" y="206"/>
      <point x="101" y="180" type="curve" smooth="yes"/>
      <point x="101" y="94"/>
      <point x="208" y="71"/>
      <point x="298" y="71" type="curve" smooth="yes"/>
      <point x="451" y="71"/>
      <point x="538" y="156"/>
      <point x="538" y="304" type="curve"/>
      <point x="577" y="274" type="line"/>
      <point x="577" y="114"/>
      <point x="478" y="0"/>
      <point x="295" y="0" type="curve" smooth="yes"/>
      <point x="174" y="0"/>
      <point x="64" y="46"/>
    </contour>
    <contour>
      <point x="14" y="270" type="curve"/>
      <point x="14" y="302" type="line"/>
      <point x="285" y="302" type="line"/>
      <point x="315" y="277" type="line"/>
      <point x="148" y="277" type="line" smooth="yes"/>
      <point x="77" y="276"/>
      <point x="30" y="273"/>
    </contour>
    <contour>
      <point x="56" y="-44" type="curve"/>
      <point x="84" y="-44" type="line"/>
      <point x="119" y="-119"/>
      <point x="186" y="-157"/>
      <point x="292" y="-157" type="curve" smooth="yes"/>
      <point x="434" y="-157"/>
      <point x="548" y="-90"/>
      <point x="548" y="50" type="curve" smooth="yes"/>
      <point x="548" y="71"/>
      <point x="542" y="99"/>
      <point x="529" y="112" type="curve"/>
      <point x="545" y="140" type="line"/>
      <point x="568" y="107"/>
      <point x="576" y="75"/>
      <point x="576" y="38" type="curve" smooth="yes"/>
      <point x="576" y="-124"/>
      <point x="452" y="-219"/>
      <point x="308" y="-219" type="curve" smooth="yes"/>
      <point x="174" y="-219"/>
      <point x="94" y="-153"/>
    </contour>
  </outline>
</glyph>
<glyph name="si_CUu" format="1">
  <advance width="597"/>
  <outline>
    <contour>
      <point x="70" y="-138" type="curve" smooth="yes"/>
      <point x="70" y="-80"/>
      <point x="120" y="-40"/>
      <point x="172" y="-40" type="curve" smooth="yes"/>
      <point x="214" y="-40"/>
      <point x="247" y="-55"/>
      <point x="270" y="-91" type="curve"/>
      <point x="240" y="-102" type="line"/>
      <point x="228" y="-83"/>
      <point x="206" y="-68"/>
      <point x="178" y="-68" type="curve" smooth="yes"/>
      <point x="138" y="-68"/>
      <point x="106" y="-92"/>
      <point x="106" y="-129" type="curve" smooth="yes"/>
      <point x="106" y="-166"/>
      <point x="138" y="-191"/>
      <point x="180" y="-191" type="curve" smooth="yes"/>
      <point x="264" y="-191"/>
      <point x="328" y="-117"/>
      <point x="423" y="-117" type="curve" smooth="yes"/>
      <point x="471" y="-117"/>
      <point x="506" y="-136"/>
      <point x="533" y="-168" type="curve"/>
      <point x="533" y="152" type="line"/>
      <point x="566" y="212" type="line"/>
      <point x="566" y="-231" type="line"/>
      <point x="543" y="-231" type="line"/>
      <point x="528" y="-195"/>
      <point x="491" y="-144"/>
      <point x="426" y="-144" type="curve" smooth="yes"/>
      <point x="335" y="-144"/>
      <point x="280" y="-237"/>
      <point x="182" y="-237" type="curve" smooth="yes"/>
      <point x="126" y="-237"/>
      <point x="70" y="-206"/>
    </contour>
    <component base="si_Ca"/>
  </outline>
</glyph>
<glyph name="si_Ch.halant" format="1">
  <advance width="598"/>
  <outline>
    <contour>
      <point x="326" y="581" type="curve"/>
      <point x="326" y="712" type="line"/>
      <point x="347" y="695"/>
      <point x="410" y="677"/>
      <point x="410" y="621" type="curve" smooth="yes"/>
      <point x="410" y="595"/>
      <point x="394" y="575"/>
      <point x="360" y="575" type="curve" smooth="yes"/>
      <point x="349" y="575"/>
      <point x="332" y="578"/>
    </contour>
    <contour>
      <point x="300" y="366" type="line"/>
      <point x="326" y="405" type="line"/>
      <point x="326" y="556" type="line"/>
      <point x="335" y="553"/>
      <point x="352" y="550"/>
      <point x="369" y="550" type="curve" smooth="yes"/>
      <point x="420" y="550"/>
      <point x="447" y="589"/>
      <point x="447" y="624" type="curve" smooth="yes"/>
      <point x="447" y="706"/>
      <point x="356" y="710"/>
      <point x="300" y="757" type="curve"/>
    </contour>
    <component base="si_Cha"/>
  </outline>
</glyph>
<glyph name="si_D.halant" format="1">
  <advance width="456"/>
  <outline>
    <contour>
      <point x="264" y="413" type="line"/>
      <point x="292" y="396" type="line"/>
      <point x="292" y="477" type="line"/>
      <point x="307" y="470"/>
      <point x="322" y="467"/>
      <point x="336" y="467" type="curve" smooth="yes"/>
      <point x="380" y="467"/>
      <point x="414" y="497"/>
      <point x="414" y="541" type="curve" smooth="yes"/>
      <point x="414" y="633"/>
      <point x="318" y="638"/>
      <point x="264" y="680" type="curve"/>
    </contour>
    <contour>
      <point x="292" y="502" type="curve"/>
      <point x="292" y="637" type="line"/>
      <point x="338" y="606"/>
      <point x="378" y="586"/>
      <point x="378" y="544" type="curve" smooth="yes"/>
      <point x="378" y="520"/>
      <point x="362" y="495"/>
      <point x="324" y="495" type="curve" smooth="yes"/>
      <point x="311" y="495"/>
      <point x="300" y="497"/>
    </contour>
    <contour>
      <point x="31" y="169" type="curve" smooth="yes"/>
      <point x="31" y="274"/>
      <point x="104" y="317"/>
      <point x="223" y="317" type="curve" smooth="yes"/>
      <point x="343" y="317" type="line"/>
      <point x="333" y="363"/>
      <point x="304" y="396"/>
      <point x="260" y="396" type="curve" smooth="yes"/>
      <point x="241" y="396"/>
      <point x="225" y="384"/>
      <point x="216" y="366" type="curve" smooth="yes"/>
      <point x="206" y="344"/>
      <point x="190" y="336"/>
      <point x="175" y="336" type="curve" smooth="yes"/>
      <point x="150" y="336"/>
      <point x="137" y="351"/>
      <point x="137" y="372" type="curve" smooth="yes"/>
      <point x="137" y="408"/>
      <point x="177" y="433"/>
      <point x="232" y="433" type="curve" smooth="yes"/>
      <point x="318" y="433"/>
      <point x="361" y="389"/>
      <point x="379" y="294" type="curve"/>
      <point x="242" y="294" type="line" smooth="yes"/>
      <point x="154" y="294"/>
      <point x="108" y="257"/>
      <point x="108" y="173" type="curve" smooth="yes"/>
      <point x="108" y="89"/>
      <point x="178" y="27"/>
      <point x="261" y="27" type="curve" smooth="yes"/>
      <point x="307" y="27"/>
      <point x="344" y="46"/>
      <point x="384" y="92" type="curve"/>
      <point x="407" y="75" type="line"/>
      <point x="376" y="39"/>
      <point x="306" y="-28"/>
      <point x="306" y="-104" type="curve" smooth="yes"/>
      <point x="306" y="-170"/>
      <point x="345" y="-195"/>
      <point x="409" y="-210" type="curve"/>
      <point x="409" y="-238" type="line"/>
      <point x="395" y="-241"/>
      <point x="377" y="-242"/>
      <point x="355" y="-242" type="curve" smooth="yes"/>
      <point x="284" y="-240"/>
      <point x="249" y="-199"/>
      <point x="249" y="-142" type="curve" smooth="yes"/>
      <point x="249" y="-103"/>
      <point x="272" y="-53"/>
      <point x="319" y="10" type="curve"/>
      <point x="284" y="0"/>
      <point x="261" y="-1"/>
      <point x="234" y="-1" type="curve" smooth="yes"/>
      <point x="103" y="-1"/>
      <point x="31" y="69"/>
    </contour>
  </outline>
</glyph>
<glyph name="si_DAa" format="1">
  <advance width="719"/>
  <outline>
    <contour>
      <point x="424" y="110" type="curve" smooth="yes"/>
      <point x="424" y="118"/>
      <point x="425" y="125"/>
      <point x="425" y="132" type="curve"/>
      <point x="452" y="132" type="line"/>
      <point x="452" y="128"/>
      <point x="451" y="123"/>
      <point x="451" y="117" type="curve" smooth="yes"/>
      <point x="451" y="69"/>
      <point x="475" y="36"/>
      <point x="520" y="36" type="curve" smooth="yes"/>
      <point x="579" y="37"/>
      <point x="606" y="91"/>
      <point x="606" y="201" type="curve" smooth="yes"/>
      <point x="606" y="311"/>
      <point x="579" y="366"/>
      <point x="520" y="366" type="curve" smooth="yes"/>
      <point x="482" y="366"/>
      <point x="451" y="333"/>
      <point x="451" y="285" type="curve" smooth="yes"/>
      <point x="451" y="279"/>
      <point x="452" y="274"/>
      <point x="452" y="270" type="curve"/>
      <point x="425" y="270" type="line"/>
      <point x="425" y="277"/>
      <point x="424" y="284"/>
      <point x="424" y="292" type="curve" smooth="yes"/>
      <point x="424" y="361"/>
      <point x="476" y="403"/>
      <point x="535" y="403" type="curve" smooth="yes"/>
      <point x="626" y="403"/>
      <point x="672" y="329"/>
      <point x="672" y="201" type="curve" smooth="yes"/>
      <point x="672" y="73"/>
      <point x="626" y="-1"/>
      <point x="535" y="-1" type="curve" smooth="yes"/>
      <point x="468" y="-1"/>
      <point x="424" y="41"/>
    </contour>
    <contour>
      <point x="31" y="169" type="curve" smooth="yes"/>
      <point x="31" y="274"/>
      <point x="104" y="317"/>
      <point x="223" y="317" type="curve" smooth="yes"/>
      <point x="343" y="317" type="line"/>
      <point x="333" y="363"/>
      <point x="304" y="396"/>
      <point x="260" y="396" type="curve" smooth="yes"/>
      <point x="241" y="396"/>
      <point x="225" y="384"/>
      <point x="216" y="366" type="curve" smooth="yes"/>
      <point x="206" y="344"/>
      <point x="190" y="336"/>
      <point x="175" y="336" type="curve" smooth="yes"/>
      <point x="150" y="336"/>
      <point x="137" y="351"/>
      <point x="137" y="372" type="curve" smooth="yes"/>
      <point x="137" y="408"/>
      <point x="177" y="433"/>
      <point x="232" y="433" type="curve" smooth="yes"/>
      <point x="318" y="433"/>
      <point x="361" y="389"/>
      <point x="379" y="294" type="curve"/>
      <point x="242" y="294" type="line" smooth="yes"/>
      <point x="154" y="294"/>
      <point x="108" y="257"/>
      <point x="108" y="173" type="curve" smooth="yes"/>
      <point x="108" y="89"/>
      <point x="178" y="27"/>
      <point x="261" y="27" type="curve" smooth="yes"/>
      <point x="307" y="27"/>
      <point x="344" y="46"/>
      <point x="384" y="92" type="curve"/>
      <point x="407" y="75" type="line"/>
      <point x="376" y="39"/>
      <point x="306" y="-28"/>
      <point x="306" y="-104" type="curve" smooth="yes"/>
      <point x="306" y="-170"/>
      <point x="345" y="-195"/>
      <point x="409" y="-210" type="curve"/>
      <point x="409" y="-238" type="line"/>
      <point x="395" y="-241"/>
      <point x="377" y="-242"/>
      <point x="355" y="-242" type="curve" smooth="yes"/>
      <point x="284" y="-240"/>
      <point x="249" y="-199"/>
      <point x="249" y="-142" type="curve" smooth="yes"/>
      <point x="249" y="-103"/>
      <point x="272" y="-53"/>
      <point x="319" y="10" type="curve"/>
      <point x="284" y="0"/>
      <point x="261" y="-1"/>
      <point x="234" y="-1" type="curve" smooth="yes"/>
      <point x="103" y="-1"/>
      <point x="31" y="69"/>
    </contour>
  </outline>
</glyph>
<glyph name="si_DAe" format="1">
  <advance width="738"/>
  <outline>
    <contour>
      <point x="410" y="313" type="line"/>
      <point x="410" y="339" type="line"/>
      <point x="656" y="339" type="line"/>
      <point x="655" y="337"/>
      <point x="654" y="332"/>
      <point x="653" y="323" type="curve"/>
      <point x="585" y="223"/>
      <point x="560" y="129"/>
      <point x="560" y="50" type="curve" smooth="yes"/>
      <point x="560" y="-54"/>
      <point x="613" y="-93"/>
      <point x="671" y="-93" type="curve" smooth="yes"/>
      <point x="683" y="-93"/>
      <point x="696" y="-91"/>
      <point x="709" y="-88" type="curve"/>
      <point x="713" y="-106" type="line"/>
      <point x="685" y="-137"/>
      <point x="655" y="-147"/>
      <point x="614" y="-147" type="curve" smooth="yes"/>
      <point x="529" y="-147"/>
      <point x="491" y="-73"/>
      <point x="491" y="14" type="curve" smooth="yes"/>
      <point x="491" y="133"/>
      <point x="565" y="254"/>
      <point x="618" y="313" type="curve"/>
    </contour>
    <component base="si_Da"/>
  </outline>
</glyph>
<glyph name="si_DDhI" format="1">
  <advance width="729"/>
  <outline>
    <contour>
      <point x="125" y="195" type="curve" smooth="yes"/>
      <point x="125" y="288"/>
      <point x="178" y="364"/>
      <point x="244" y="387" type="curve" smooth="yes"/>
      <point x="265" y="394"/>
      <point x="288" y="398"/>
      <point x="313" y="398" type="curve"/>
      <point x="313" y="373" type="line" smooth="yes"/>
      <point x="310" y="373"/>
      <point x="307" y="373"/>
      <point x="303" y="373" type="curve" smooth="yes"/>
      <point x="224" y="373"/>
      <point x="159" y="300"/>
      <point x="159" y="208" type="curve" smooth="yes"/>
      <point x="159" y="132"/>
      <point x="207" y="71"/>
      <point x="280" y="71" type="curve" smooth="yes"/>
      <point x="331" y="71"/>
      <point x="382" y="92"/>
      <point x="382" y="156" type="curve" smooth="yes"/>
      <point x="382" y="196" type="line"/>
      <point x="410" y="196" type="line"/>
      <point x="410" y="156" type="line" smooth="yes"/>
      <point x="410" y="92"/>
      <point x="460" y="71"/>
      <point x="509" y="71" type="curve" smooth="yes"/>
      <point x="591" y="71"/>
      <point x="645" y="159"/>
      <point x="645" y="263" type="curve" smooth="yes"/>
      <point x="645" y="302"/>
      <point x="636" y="371"/>
      <point x="597" y="414" type="curve" smooth="yes"/>
      <point x="544" y="472"/>
      <point x="478" y="472"/>
      <point x="377" y="478" type="curve" smooth="yes"/>
      <point x="288" y="483"/>
      <point x="167" y="476"/>
      <point x="167" y="562" type="curve" smooth="yes"/>
      <point x="167" y="652"/>
      <point x="298" y="670"/>
      <point x="398" y="670" type="curve" smooth="yes"/>
      <point x="534" y="670"/>
      <point x="644" y="639"/>
      <point x="644" y="554" type="curve" smooth="yes"/>
      <point x="644" y="505"/>
      <point x="596" y="482"/>
      <point x="562" y="475" type="curve"/>
      <point x="572" y="471"/>
      <point x="582" y="465"/>
      <point x="590" y="459" type="curve" smooth="yes"/>
      <point x="638" y="424"/>
      <point x="680" y="353"/>
      <point x="682" y="248" type="curve" smooth="yes"/>
      <point x="682" y="136"/>
      <point x="639" y="0"/>
      <point x="514" y="0" type="curve" smooth="yes"/>
      <point x="465" y="0"/>
      <point x="425" y="20"/>
      <point x="395" y="59" type="curve"/>
      <point x="365" y="20"/>
      <point x="327" y="0"/>
      <point x="282" y="0" type="curve" smooth="yes"/>
      <point x="180" y="0"/>
      <point x="125" y="96"/>
    </contour>
    <contour>
      <point x="209" y="554" type="curve" smooth="yes"/>
      <point x="209" y="508"/>
      <point x="274" y="508"/>
      <point x="376" y="504" type="curve" smooth="yes"/>
      <point x="416" y="502"/>
      <point x="468" y="501"/>
      <point x="514" y="490" type="curve"/>
      <point x="550" y="493"/>
      <point x="597" y="509"/>
      <point x="597" y="544" type="curve" smooth="yes"/>
      <point x="597" y="600"/>
      <point x="506" y="611"/>
      <point x="398" y="611" type="curve" smooth="yes"/>
      <point x="323" y="611"/>
      <point x="209" y="606"/>
    </contour>
    <contour>
      <point x="27" y="212" type="curve" smooth="yes"/>
      <point x="27" y="343"/>
      <point x="102" y="433"/>
      <point x="220" y="433" type="curve" smooth="yes"/>
      <point x="246" y="433"/>
      <point x="289" y="427"/>
      <point x="313" y="398" type="curve"/>
      <point x="300" y="396"/>
      <point x="279" y="394"/>
      <point x="275" y="394" type="curve"/>
      <point x="267" y="402"/>
      <point x="244" y="407"/>
      <point x="226" y="407" type="curve" smooth="yes"/>
      <point x="92" y="407"/>
      <point x="56" y="295"/>
      <point x="56" y="208" type="curve" smooth="yes"/>
      <point x="56" y="131"/>
      <point x="83" y="75"/>
      <point x="135" y="30" type="curve"/>
      <point x="135" y="0" type="line"/>
      <point x="69" y="33"/>
      <point x="27" y="111"/>
    </contour>
  </outline>
</glyph>
<glyph name="si_DDhIi" format="1">
  <advance width="729"/>
  <outline>
    <contour>
      <point x="492" y="555" type="curve" smooth="yes"/>
      <point x="492" y="585"/>
      <point x="519" y="609"/>
      <point x="552" y="609" type="curve" smooth="yes"/>
      <point x="585" y="609"/>
      <point x="613" y="585"/>
      <point x="613" y="555" type="curve" smooth="yes"/>
      <point x="613" y="525"/>
      <point x="585" y="501"/>
      <point x="552" y="501" type="curve" smooth="yes"/>
      <point x="519" y="501"/>
      <point x="492" y="525"/>
    </contour>
    <contour>
      <point x="167" y="562" type="curve" smooth="yes"/>
      <point x="167" y="476"/>
      <point x="288" y="483"/>
      <point x="377" y="478" type="curve" smooth="yes"/>
      <point x="478" y="472"/>
      <point x="544" y="472"/>
      <point x="597" y="414" type="curve" smooth="yes"/>
      <point x="625" y="384"/>
      <point x="644" y="334"/>
      <point x="644" y="286" type="curve"/>
      <point x="675" y="274" type="line"/>
      <point x="675" y="356"/>
      <point x="639" y="423"/>
      <point x="590" y="459" type="curve" smooth="yes"/>
      <point x="535" y="499"/>
      <point x="441" y="501"/>
      <point x="376" y="504" type="curve" smooth="yes"/>
      <point x="274" y="508"/>
      <point x="209" y="508"/>
      <point x="209" y="554" type="curve" smooth="yes"/>
      <point x="209" y="606"/>
      <point x="323" y="611"/>
      <point x="398" y="611" type="curve" smooth="yes"/>
      <point x="440" y="611"/>
      <point x="472" y="609"/>
      <point x="479" y="608" type="curve"/>
      <point x="473" y="600"/>
      <point x="460" y="583"/>
      <point x="460" y="558" type="curve" smooth="yes"/>
      <point x="460" y="505"/>
      <point x="508" y="474"/>
      <point x="552" y="474" type="curve" smooth="yes"/>
      <point x="596" y="474"/>
      <point x="644" y="505"/>
      <point x="644" y="558" type="curve" smooth="yes"/>
      <point x="644" y="639"/>
      <point x="534" y="670"/>
      <point x="398" y="670" type="curve" smooth="yes"/>
      <point x="298" y="670"/>
      <point x="167" y="652"/>
    </contour>
    <contour>
      <point x="125" y="195" type="curve" smooth="yes"/>
      <point x="125" y="288"/>
      <point x="178" y="364"/>
      <point x="244" y="387" type="curve" smooth="yes"/>
      <point x="265" y="394"/>
      <point x="288" y="398"/>
      <point x="313" y="398" type="curve"/>
      <point x="313" y="373" type="line" smooth="yes"/>
      <point x="310" y="373"/>
      <point x="307" y="373"/>
      <point x="303" y="373" type="curve" smooth="yes"/>
      <point x="224" y="373"/>
      <point x="159" y="300"/>
      <point x="159" y="208" type="curve" smooth="yes"/>
      <point x="159" y="132"/>
      <point x="207" y="71"/>
      <point x="280" y="71" type="curve" smooth="yes"/>
      <point x="331" y="71"/>
      <point x="382" y="92"/>
      <point x="382" y="156" type="curve" smooth="yes"/>
      <point x="382" y="196" type="line"/>
      <point x="410" y="196" type="line"/>
      <point x="410" y="156" type="line" smooth="yes"/>
      <point x="410" y="92"/>
      <point x="460" y="71"/>
      <point x="509" y="71" type="curve" smooth="yes"/>
      <point x="591" y="71"/>
      <point x="645" y="159"/>
      <point x="645" y="263" type="curve" smooth="yes"/>
      <point x="645" y="302"/>
      <point x="636" y="371"/>
      <point x="597" y="414" type="curve"/>
      <point x="595" y="427"/>
      <point x="592" y="447"/>
      <point x="590" y="459" type="curve"/>
      <point x="638" y="424"/>
      <point x="680" y="353"/>
      <point x="682" y="248" type="curve" smooth="yes"/>
      <point x="682" y="136"/>
      <point x="639" y="0"/>
      <point x="514" y="0" type="curve" smooth="yes"/>
      <point x="465" y="0"/>
      <point x="425" y="20"/>
      <point x="395" y="59" type="curve"/>
      <point x="365" y="20"/>
      <point x="327" y="0"/>
      <point x="282" y="0" type="curve" smooth="yes"/>
      <point x="180" y="0"/>
      <point x="125" y="96"/>
    </contour>
    <contour>
      <point x="27" y="212" type="curve" smooth="yes"/>
      <point x="27" y="343"/>
      <point x="102" y="433"/>
      <point x="220" y="433" type="curve" smooth="yes"/>
      <point x="246" y="433"/>
      <point x="289" y="427"/>
      <point x="313" y="398" type="curve"/>
      <point x="300" y="396"/>
      <point x="279" y="394"/>
      <point x="275" y="394" type="curve"/>
      <point x="267" y="402"/>
      <point x="244" y="407"/>
      <point x="226" y="407" type="curve" smooth="yes"/>
      <point x="92" y="407"/>
      <point x="56" y="295"/>
      <point x="56" y="208" type="curve" smooth="yes"/>
      <point x="56" y="131"/>
      <point x="83" y="75"/>
      <point x="135" y="30" type="curve"/>
      <point x="135" y="0" type="line"/>
      <point x="69" y="33"/>
      <point x="27" y="111"/>
    </contour>
  </outline>
</glyph>
<glyph name="si_DDhUu" format="1">
  <advance width="729"/>
  <outline>
    <contour>
      <point x="143" y="-138" type="curve" smooth="yes"/>
      <point x="143" y="-80"/>
      <point x="192" y="-40"/>
      <point x="245" y="-40" type="curve" smooth="yes"/>
      <point x="287" y="-40"/>
      <point x="320" y="-55"/>
      <point x="342" y="-91" type="curve"/>
      <point x="312" y="-102" type="line"/>
      <point x="300" y="-83"/>
      <point x="279" y="-68"/>
      <point x="250" y="-68" type="curve" smooth="yes"/>
      <point x="211" y="-68"/>
      <point x="179" y="-92"/>
      <point x="179" y="-129" type="curve" smooth="yes"/>
      <point x="179" y="-166"/>
      <point x="210" y="-191"/>
      <point x="253" y="-191" type="curve" smooth="yes"/>
      <point x="337" y="-191"/>
      <point x="420" y="-117"/>
      <point x="515" y="-117" type="curve" smooth="yes"/>
      <point x="558" y="-117"/>
      <point x="607" y="-136"/>
      <point x="634" y="-168" type="curve"/>
      <point x="634" y="152" type="line"/>
      <point x="667" y="212" type="line"/>
      <point x="667" y="-231" type="line"/>
      <point x="644" y="-231" type="line"/>
      <point x="629" y="-195"/>
      <point x="586" y="-144"/>
      <point x="518" y="-144" type="curve" smooth="yes"/>
      <point x="427" y="-144"/>
      <point x="352" y="-237"/>
      <point x="254" y="-237" type="curve" smooth="yes"/>
      <point x="199" y="-237"/>
      <point x="143" y="-206"/>
    </contour>
    <contour>
      <point x="125" y="195" type="curve" smooth="yes"/>
      <point x="125" y="288"/>
      <point x="178" y="364"/>
      <point x="244" y="387" type="curve" smooth="yes"/>
      <point x="265" y="394"/>
      <point x="288" y="398"/>
      <point x="313" y="398" type="curve"/>
      <point x="313" y="373" type="line"/>
      <point x="310" y="373"/>
      <point x="307" y="373"/>
      <point x="303" y="373" type="curve" smooth="yes"/>
      <point x="224" y="373"/>
      <point x="159" y="301"/>
      <point x="159" y="212" type="curve" smooth="yes"/>
      <point x="159" y="136"/>
      <point x="207" y="71"/>
      <point x="280" y="71" type="curve" smooth="yes"/>
      <point x="331" y="71"/>
      <point x="382" y="92"/>
      <point x="382" y="156" type="curve" smooth="yes"/>
      <point x="382" y="196" type="line"/>
      <point x="410" y="196" type="line"/>
      <point x="410" y="156" type="line" smooth="yes"/>
      <point x="410" y="92"/>
      <point x="460" y="71"/>
      <point x="509" y="71" type="curve" smooth="yes"/>
      <point x="605" y="71"/>
      <point x="647" y="181"/>
      <point x="647" y="284" type="curve" smooth="yes"/>
      <point x="647" y="442"/>
      <point x="533" y="556"/>
      <point x="386" y="556" type="curve" smooth="yes"/>
      <point x="306" y="556"/>
      <point x="242" y="527"/>
      <point x="189" y="468" type="curve"/>
      <point x="157" y="468" type="line"/>
      <point x="214" y="543"/>
      <point x="292" y="580"/>
      <point x="391" y="580" type="curve" smooth="yes"/>
      <point x="554" y="580"/>
      <point x="681" y="446"/>
      <point x="681" y="261" type="curve" smooth="yes"/>
      <point x="681" y="139"/>
      <point x="640" y="0"/>
      <point x="514" y="0" type="curve" smooth="yes"/>
      <point x="465" y="0"/>
      <point x="425" y="20"/>
      <point x="395" y="59" type="curve"/>
      <point x="365" y="20"/>
      <point x="327" y="0"/>
      <point x="282" y="0" type="curve" smooth="yes"/>
      <point x="180" y="0"/>
      <point x="125" y="96"/>
    </contour>
    <contour>
      <point x="27" y="212" type="curve" smooth="yes"/>
      <point x="27" y="343"/>
      <point x="102" y="433"/>
      <point x="220" y="433" type="curve" smooth="yes"/>
      <point x="246" y="433"/>
      <point x="289" y="427"/>
      <point x="313" y="398" type="curve"/>
      <point x="300" y="396"/>
      <point x="279" y="394"/>
      <point x="275" y="394" type="curve"/>
      <point x="267" y="402"/>
      <point x="244" y="407"/>
      <point x="226" y="407" type="curve" smooth="yes"/>
      <point x="92" y="407"/>
      <point x="56" y="295"/>
      <point x="56" y="208" type="curve" smooth="yes"/>
      <point x="56" y="131"/>
      <point x="83" y="75"/>
      <point x="135" y="30" type="curve"/>
      <point x="135" y="0" type="line"/>
      <point x="69" y="33"/>
      <point x="27" y="111"/>
    </contour>
  </outline>
</glyph>
<glyph name="si_DDha" format="1">
  <advance width="729"/>
  <outline>
    <contour>
      <point x="125" y="195" type="curve" smooth="yes"/>
      <point x="125" y="288"/>
      <point x="178" y="364"/>
      <point x="244" y="387" type="curve" smooth="yes"/>
      <point x="265" y="394"/>
      <point x="288" y="398"/>
      <point x="313" y="398" type="curve"/>
      <point x="313" y="373" type="line"/>
      <point x="310" y="373"/>
      <point x="307" y="373"/>
      <point x="303" y="373" type="curve" smooth="yes"/>
      <point x="224" y="373"/>
      <point x="159" y="301"/>
      <point x="159" y="212" type="curve" smooth="yes"/>
      <point x="159" y="136"/>
      <point x="207" y="71"/>
      <point x="280" y="71" type="curve" smooth="yes"/>
      <point x="331" y="71"/>
      <point x="382" y="92"/>
      <point x="382" y="156" type="curve" smooth="yes"/>
      <point x="382" y="196" type="line"/>
      <point x="410" y="196" type="line"/>
      <point x="410" y="156" type="line" smooth="yes"/>
      <point x="410" y="92"/>
      <point x="460" y="71"/>
      <point x="509" y="71" type="curve" smooth="yes"/>
      <point x="605" y="71"/>
      <point x="647" y="181"/>
      <point x="647" y="284" type="curve" smooth="yes"/>
      <point x="647" y="442"/>
      <point x="533" y="556"/>
      <point x="386" y="556" type="curve" smooth="yes"/>
      <point x="306" y="556"/>
      <point x="242" y="527"/>
      <point x="189" y="468" type="curve"/>
      <point x="157" y="468" type="line"/>
      <point x="214" y="543"/>
      <point x="292" y="580"/>
      <point x="391" y="580" type="curve" smooth="yes"/>
      <point x="554" y="580"/>
      <point x="681" y="446"/>
      <point x="681" y="261" type="curve" smooth="yes"/>
      <point x="681" y="139"/>
      <point x="640" y="0"/>
      <point x="514" y="0" type="curve" smooth="yes"/>
      <point x="465" y="0"/>
      <point x="425" y="20"/>
      <point x="395" y="59" type="curve"/>
      <point x="365" y="20"/>
      <point x="327" y="0"/>
      <point x="282" y="0" type="curve" smooth="yes"/>
      <point x="180" y="0"/>
      <point x="125" y="96"/>
    </contour>
    <contour>
      <point x="27" y="212" type="curve" smooth="yes"/>
      <point x="27" y="343"/>
      <point x="102" y="433"/>
      <point x="220" y="433" type="curve" smooth="yes"/>
      <point x="246" y="433"/>
      <point x="289" y="427"/>
      <point x="313" y="398" type="curve"/>
      <point x="300" y="396"/>
      <point x="279" y="394"/>
      <point x="275" y="394" type="curve"/>
      <point x="267" y="402"/>
      <point x="244" y="407"/>
      <point x="226" y="407" type="curve" smooth="yes"/>
      <point x="92" y="407"/>
      <point x="56" y="295"/>
      <point x="56" y="208" type="curve" smooth="yes"/>
      <point x="56" y="131"/>
      <point x="83" y="75"/>
      <point x="135" y="30" type="curve"/>
      <point x="135" y="0" type="line"/>
      <point x="69" y="33"/>
      <point x="27" y="111"/>
    </contour>
  </outline>
</glyph>
<glyph name="si_DIi" format="1">
  <advance width="456"/>
  <outline>
    <contour>
      <point x="246.75" y="514" type="curve" smooth="yes"/>
      <point x="246.75" y="483"/>
      <point x="276.75" y="458"/>
      <point x="312.75" y="458" type="curve" smooth="yes"/>
      <point x="348.75" y="458"/>
      <point x="378.75" y="483"/>
      <point x="378.75" y="514" type="curve" smooth="yes"/>
      <point x="378.75" y="545"/>
      <point x="348.75" y="570"/>
      <point x="312.75" y="570" type="curve" smooth="yes"/>
      <point x="276.75" y="570"/>
      <point x="246.75" y="545"/>
    </contour>
    <contour>
      <point x="35.0801" y="518" type="curve" smooth="yes"/>
      <point x="35.0801" y="618.565"/>
      <point x="126.303" y="671"/>
      <point x="223" y="671" type="curve" smooth="yes"/>
      <point x="319.697" y="671"/>
      <point x="410.92" y="614.322"/>
      <point x="410.92" y="522.75" type="curve" smooth="yes"/>
      <point x="410.92" y="463.267"/>
      <point x="363.464" y="429"/>
      <point x="312.25" y="429" type="curve" smooth="yes"/>
      <point x="252.575" y="429"/>
      <point x="214.75" y="470"/>
      <point x="214.75" y="515" type="curve" smooth="yes"/>
      <point x="214.75" y="560"/>
      <point x="251.217" y="587.258"/>
      <point x="278" y="592" type="curve"/>
      <point x="267" y="595"/>
      <point x="236.609" y="598"/>
      <point x="223" y="598" type="curve" smooth="yes"/>
      <point x="150.984" y="598"/>
      <point x="66.1201" y="573.424"/>
      <point x="66.1201" y="509" type="curve" smooth="yes"/>
      <point x="66.1201" y="460.729"/>
      <point x="108.769" y="425"/>
      <point x="194" y="425" type="curve"/>
      <point x="150.91" y="405" type="line"/>
      <point x="84.9511" y="414.727"/>
      <point x="35.0801" y="450.955"/>
    </contour>
    <contour>
      <point x="31" y="169" type="curve" smooth="yes"/>
      <point x="31" y="274"/>
      <point x="104" y="317"/>
      <point x="223" y="317" type="curve" smooth="yes"/>
      <point x="343" y="317" type="line"/>
      <point x="333.277" y="363.186"/>
      <point x="304" y="396"/>
      <point x="260" y="396" type="curve" smooth="yes"/>
      <point x="241" y="396"/>
      <point x="225.048" y="383.911"/>
      <point x="216.5" y="366" type="curve" smooth="yes"/>
      <point x="206" y="344"/>
      <point x="189.802" y="336"/>
      <point x="175" y="336" type="curve" smooth="yes"/>
      <point x="150" y="336"/>
      <point x="137" y="351"/>
      <point x="137" y="372" type="curve" smooth="yes"/>
      <point x="137" y="408.283"/>
      <point x="177" y="433"/>
      <point x="232" y="433" type="curve" smooth="yes"/>
      <point x="317.739" y="433"/>
      <point x="360.904" y="389.003"/>
      <point x="379" y="294" type="curve"/>
      <point x="242" y="294" type="line" smooth="yes"/>
      <point x="154" y="294"/>
      <point x="108" y="257"/>
      <point x="108" y="173" type="curve" smooth="yes"/>
      <point x="108" y="89"/>
      <point x="178" y="27"/>
      <point x="261" y="27" type="curve" smooth="yes"/>
      <point x="307.077" y="27"/>
      <point x="344" y="46"/>
      <point x="384" y="92" type="curve"/>
      <point x="407" y="75" type="line"/>
      <point x="376.46" y="39.3701"/>
      <point x="306" y="-28"/>
      <point x="306" y="-104" type="curve" smooth="yes"/>
      <point x="306" y="-170.098"/>
      <point x="345.218" y="-195.118"/>
      <point x="409" y="-210" type="curve"/>
      <point x="409" y="-238" type="line"/>
      <point x="395" y="-240.667"/>
      <point x="377" y="-242"/>
      <point x="355" y="-242" type="curve" smooth="yes"/>
      <point x="284.434" y="-240.04"/>
      <point x="249" y="-199.019"/>
      <point x="249" y="-142" type="curve" smooth="yes"/>
      <point x="249" y="-103.333"/>
      <point x="272.333" y="-52.6667"/>
      <point x="319" y="10" type="curve"/>
      <point x="284" y="0"/>
      <point x="261.333" y="-1"/>
      <point x="234" y="-1" type="curve" smooth="yes"/>
      <point x="103" y="-1"/>
      <point x="31" y="69"/>
    </contour>
    <contour>
      <point x="31" y="169" type="curve" smooth="yes"/>
      <point x="31" y="69"/>
      <point x="103" y="-1"/>
      <point x="234" y="-1" type="curve" smooth="yes"/>
      <point x="261.333" y="-1"/>
      <point x="284" y="0"/>
      <point x="319" y="10" type="curve"/>
      <point x="272.333" y="-52.6667"/>
      <point x="249" y="-103.333"/>
      <point x="249" y="-142" type="curve" smooth="yes"/>
      <point x="249" y="-199.019"/>
      <point x="284.434" y="-240.04"/>
      <point x="355" y="-242" type="curve" smooth="yes"/>
      <point x="377" y="-242"/>
      <point x="395" y="-240.667"/>
      <point x="409" y="-238" type="curve"/>
      <point x="409" y="-210" type="line"/>
      <point x="345.218" y="-195.118"/>
      <point x="306" y="-170.098"/>
      <point x="306" y="-104" type="curve" smooth="yes"/>
      <point x="306" y="-28"/>
      <point x="376.46" y="39.3701"/>
      <point x="407" y="75" type="curve"/>
      <point x="384" y="92" type="line"/>
      <point x="344" y="46"/>
      <point x="307.077" y="27"/>
      <point x="261" y="27" type="curve" smooth="yes"/>
      <point x="178" y="27"/>
      <point x="108" y="89"/>
      <point x="108" y="173" type="curve" smooth="yes"/>
      <point x="108" y="257"/>
      <point x="154" y="294"/>
      <point x="242" y="294" type="curve" smooth="yes"/>
      <point x="379" y="294" type="line"/>
      <point x="360.904" y="389.003"/>
      <point x="317.739" y="433"/>
      <point x="232" y="433" type="curve" smooth="yes"/>
      <point x="177" y="433"/>
      <point x="137" y="408.283"/>
      <point x="137" y="372" type="curve" smooth="yes"/>
      <point x="137" y="351"/>
      <point x="150" y="336"/>
      <point x="175" y="336" type="curve" smooth="yes"/>
      <point x="189.802" y="336"/>
      <point x="206" y="344"/>
      <point x="216.5" y="366" type="curve" smooth="yes"/>
      <point x="225.048" y="383.911"/>
      <point x="241" y="396"/>
      <point x="260" y="396" type="curve" smooth="yes"/>
      <point x="304" y="396"/>
      <point x="333.277" y="363.186"/>
      <point x="343" y="317" type="curve"/>
      <point x="223" y="317" type="line" smooth="yes"/>
      <point x="104" y="317"/>
      <point x="31" y="274"/>
    </contour>
  </outline>
</glyph>
<glyph name="si_DRAa" format="1">
  <advance width="716"/>
  <outline>
    <contour>
      <point x="34" y="-43" type="curve"/>
      <point x="59" y="-43" type="line"/>
      <point x="80" y="-112"/>
      <point x="127" y="-142"/>
      <point x="203" y="-142" type="curve" smooth="yes"/>
      <point x="308" y="-142"/>
      <point x="382" y="-72"/>
      <point x="382" y="51" type="curve" smooth="yes"/>
      <point x="382" y="72"/>
      <point x="382" y="66"/>
      <point x="381" y="74" type="curve"/>
      <point x="407" y="79" type="line"/>
      <point x="407" y="58"/>
      <point x="407" y="76"/>
      <point x="407" y="39" type="curve" smooth="yes"/>
      <point x="407" y="-109"/>
      <point x="320" y="-204"/>
      <point x="215" y="-204" type="curve" smooth="yes"/>
      <point x="110" y="-204"/>
      <point x="53" y="-145"/>
    </contour>
    <contour>
      <point x="31" y="169" type="curve" smooth="yes"/>
      <point x="31" y="274"/>
      <point x="104" y="317"/>
      <point x="223" y="317" type="curve" smooth="yes"/>
      <point x="343" y="317" type="line"/>
      <point x="333" y="363"/>
      <point x="304" y="396"/>
      <point x="260" y="396" type="curve" smooth="yes"/>
      <point x="241" y="396"/>
      <point x="225" y="384"/>
      <point x="216" y="366" type="curve" smooth="yes"/>
      <point x="206" y="344"/>
      <point x="190" y="336"/>
      <point x="175" y="336" type="curve" smooth="yes"/>
      <point x="150" y="336"/>
      <point x="137" y="351"/>
      <point x="137" y="372" type="curve" smooth="yes"/>
      <point x="137" y="408"/>
      <point x="177" y="433"/>
      <point x="232" y="433" type="curve" smooth="yes"/>
      <point x="318" y="433"/>
      <point x="361" y="389"/>
      <point x="379" y="294" type="curve"/>
      <point x="242" y="294" type="line" smooth="yes"/>
      <point x="154" y="294"/>
      <point x="108" y="257"/>
      <point x="108" y="173" type="curve" smooth="yes"/>
      <point x="108" y="89"/>
      <point x="178" y="27"/>
      <point x="261" y="27" type="curve" smooth="yes"/>
      <point x="307" y="27"/>
      <point x="351" y="50"/>
      <point x="384" y="92" type="curve"/>
      <point x="407" y="79" type="line"/>
      <point x="367" y="33"/>
      <point x="328" y="-1"/>
      <point x="234" y="-1" type="curve" smooth="yes"/>
      <point x="103" y="-1"/>
      <point x="31" y="69"/>
    </contour>
    <contour>
      <point x="424" y="110" type="curve" smooth="yes"/>
      <point x="424" y="118"/>
      <point x="425" y="125"/>
      <point x="425" y="132" type="curve"/>
      <point x="452" y="132" type="line"/>
      <point x="452" y="128"/>
      <point x="451" y="123"/>
      <point x="451" y="117" type="curve" smooth="yes"/>
      <point x="451" y="69"/>
      <point x="475" y="36"/>
      <point x="520" y="36" type="curve" smooth="yes"/>
      <point x="579" y="37"/>
      <point x="606" y="91"/>
      <point x="606" y="201" type="curve" smooth="yes"/>
      <point x="606" y="311"/>
      <point x="579" y="366"/>
      <point x="520" y="366" type="curve" smooth="yes"/>
      <point x="482" y="366"/>
      <point x="451" y="333"/>
      <point x="451" y="285" type="curve" smooth="yes"/>
      <point x="451" y="279"/>
      <point x="452" y="274"/>
      <point x="452" y="270" type="curve"/>
      <point x="425" y="270" type="line"/>
      <point x="425" y="277"/>
      <point x="424" y="284"/>
      <point x="424" y="292" type="curve" smooth="yes"/>
      <point x="424" y="361"/>
      <point x="476" y="403"/>
      <point x="535" y="403" type="curve" smooth="yes"/>
      <point x="626" y="403"/>
      <point x="672" y="329"/>
      <point x="672" y="201" type="curve" smooth="yes"/>
      <point x="672" y="73"/>
      <point x="626" y="-1"/>
      <point x="535" y="-1" type="curve" smooth="yes"/>
      <point x="468" y="-1"/>
      <point x="424" y="41"/>
    </contour>
  </outline>
</glyph>
<glyph name="si_DRI" format="1">
  <advance width="456"/>
  <outline>
    <contour>
      <point x="35" y="518" type="curve" smooth="yes"/>
      <point x="35" y="619"/>
      <point x="126" y="671"/>
      <point x="223" y="671" type="curve" smooth="yes"/>
      <point x="320" y="671"/>
      <point x="411" y="617"/>
      <point x="411" y="518" type="curve" smooth="yes"/>
      <point x="411" y="443"/>
      <point x="348" y="406"/>
      <point x="295" y="405" type="curve"/>
      <point x="283" y="426" type="line"/>
      <point x="337" y="426"/>
      <point x="381" y="462"/>
      <point x="381" y="509" type="curve" smooth="yes"/>
      <point x="381" y="571"/>
      <point x="295" y="598"/>
      <point x="223" y="598" type="curve" smooth="yes"/>
      <point x="151" y="598"/>
      <point x="66" y="573"/>
      <point x="66" y="509" type="curve" smooth="yes"/>
      <point x="66" y="461"/>
      <point x="109" y="425"/>
      <point x="194" y="425" type="curve"/>
      <point x="151" y="405" type="line"/>
      <point x="85" y="415"/>
      <point x="35" y="451"/>
    </contour>
    <contour>
      <point x="34" y="-43" type="curve"/>
      <point x="59" y="-43" type="line"/>
      <point x="80" y="-112"/>
      <point x="127" y="-142"/>
      <point x="203" y="-142" type="curve" smooth="yes"/>
      <point x="308" y="-142"/>
      <point x="382" y="-72"/>
      <point x="382" y="51" type="curve" smooth="yes"/>
      <point x="382" y="72"/>
      <point x="382" y="66"/>
      <point x="381" y="74" type="curve"/>
      <point x="407" y="79" type="line"/>
      <point x="407" y="58"/>
      <point x="407" y="76"/>
      <point x="407" y="39" type="curve" smooth="yes"/>
      <point x="407" y="-109"/>
      <point x="320" y="-204"/>
      <point x="215" y="-204" type="curve" smooth="yes"/>
      <point x="110" y="-204"/>
      <point x="53" y="-145"/>
    </contour>
    <contour>
      <point x="31" y="169" type="curve" smooth="yes"/>
      <point x="31" y="274"/>
      <point x="104" y="317"/>
      <point x="223" y="317" type="curve" smooth="yes"/>
      <point x="343" y="317" type="line"/>
      <point x="333" y="363"/>
      <point x="304" y="396"/>
      <point x="260" y="396" type="curve" smooth="yes"/>
      <point x="241" y="396"/>
      <point x="225" y="384"/>
      <point x="216" y="366" type="curve" smooth="yes"/>
      <point x="206" y="344"/>
      <point x="190" y="336"/>
      <point x="175" y="336" type="curve" smooth="yes"/>
      <point x="150" y="336"/>
      <point x="137" y="351"/>
      <point x="137" y="372" type="curve" smooth="yes"/>
      <point x="137" y="408"/>
      <point x="177" y="433"/>
      <point x="232" y="433" type="curve" smooth="yes"/>
      <point x="318" y="433"/>
      <point x="361" y="389"/>
      <point x="379" y="294" type="curve"/>
      <point x="242" y="294" type="line" smooth="yes"/>
      <point x="154" y="294"/>
      <point x="108" y="257"/>
      <point x="108" y="173" type="curve" smooth="yes"/>
      <point x="108" y="89"/>
      <point x="178" y="27"/>
      <point x="261" y="27" type="curve" smooth="yes"/>
      <point x="307" y="27"/>
      <point x="351" y="50"/>
      <point x="384" y="92" type="curve"/>
      <point x="407" y="79" type="line"/>
      <point x="367" y="33"/>
      <point x="328" y="-1"/>
      <point x="234" y="-1" type="curve" smooth="yes"/>
      <point x="103" y="-1"/>
      <point x="31" y="69"/>
    </contour>
  </outline>
</glyph>
<glyph name="si_DU" format="1">
  <advance width="456"/>
  <outline>
    <contour>
      <point x="32.75" y="-142.5" type="curve" smooth="yes"/>
      <point x="32.75" y="-90.4912"/>
      <point x="79.043" y="-50.5"/>
      <point x="134.25" y="-50.5" type="curve" smooth="yes"/>
      <point x="176.156" y="-50.5"/>
      <point x="213.5" y="-74.1416"/>
      <point x="228.25" y="-110" type="curve"/>
      <point x="198.25" y="-121.5" type="line"/>
      <point x="191.232" y="-101.896"/>
      <point x="167.25" y="-80"/>
      <point x="134.25" y="-80" type="curve" smooth="yes"/>
      <point x="97.5459" y="-80"/>
      <point x="66.25" y="-106.714"/>
      <point x="66.25" y="-142.5" type="curve" smooth="yes"/>
      <point x="66.25" y="-171.663"/>
      <point x="89.6338" y="-199"/>
      <point x="155.25" y="-199" type="curve" smooth="yes"/>
      <point x="373.75" y="-199" type="line"/>
      <point x="373.75" y="69" type="line"/>
      <point x="406.75" y="78.75" type="line"/>
      <point x="406.75" y="-235" type="line"/>
      <point x="138.25" y="-235" type="line" smooth="yes"/>
      <point x="69.0898" y="-235"/>
      <point x="32.75" y="-186.092"/>
    </contour>
    <contour>
      <point x="31" y="169" type="curve" smooth="yes"/>
      <point x="31" y="274"/>
      <point x="104" y="317"/>
      <point x="223" y="317" type="curve" smooth="yes"/>
      <point x="343" y="317" type="line"/>
      <point x="333.277" y="363.186"/>
      <point x="304" y="396"/>
      <point x="260" y="396" type="curve" smooth="yes"/>
      <point x="241" y="396"/>
      <point x="225.048" y="383.911"/>
      <point x="216.5" y="366" type="curve" smooth="yes"/>
      <point x="206" y="344"/>
      <point x="189.802" y="336"/>
      <point x="175" y="336" type="curve" smooth="yes"/>
      <point x="150" y="336"/>
      <point x="137" y="351"/>
      <point x="137" y="372" type="curve" smooth="yes"/>
      <point x="137" y="408.283"/>
      <point x="177" y="433"/>
      <point x="232" y="433" type="curve" smooth="yes"/>
      <point x="317.739" y="433"/>
      <point x="360.904" y="389.003"/>
      <point x="379" y="294" type="curve"/>
      <point x="242" y="294" type="line" smooth="yes"/>
      <point x="154" y="294"/>
      <point x="108" y="257"/>
      <point x="108" y="173" type="curve" smooth="yes"/>
      <point x="108" y="89"/>
      <point x="178" y="27"/>
      <point x="261" y="27" type="curve" smooth="yes"/>
      <point x="307.077" y="27"/>
      <point x="351.052" y="50.0427"/>
      <point x="384" y="92" type="curve"/>
      <point x="407" y="78.75" type="line"/>
      <point x="367.4" y="33.3636"/>
      <point x="328.458" y="-1"/>
      <point x="234" y="-1" type="curve" smooth="yes"/>
      <point x="103" y="-1"/>
      <point x="31" y="69"/>
    </contour>
  </outline>
</glyph>
<glyph name="si_DV.halant" format="1">
  <advance width="688"/>
  <outline>
    <contour>
      <point x="125" y="165" type="curve" smooth="yes"/>
      <point x="125" y="250"/>
      <point x="190" y="304"/>
      <point x="291" y="304" type="curve" smooth="yes"/>
      <point x="352" y="304" type="line"/>
      <point x="352.082" y="306.041"/>
      <point x="352.086" y="306.041"/>
      <point x="352.086" y="308" type="curve" smooth="yes"/>
      <point x="352.086" y="362"/>
      <point x="318" y="395"/>
      <point x="281" y="395" type="curve" smooth="yes"/>
      <point x="236" y="395"/>
      <point x="228" y="371"/>
      <point x="222.5" y="355" type="curve" smooth="yes"/>
      <point x="215.951" y="335.948"/>
      <point x="206.371" y="323"/>
      <point x="184.5" y="323" type="curve" smooth="yes"/>
      <point x="168.5" y="323"/>
      <point x="147.75" y="333.618"/>
      <point x="147.75" y="359.25" type="curve" smooth="yes"/>
      <point x="147.75" y="404.581"/>
      <point x="198" y="431.5"/>
      <point x="253" y="431.5" type="curve" smooth="yes"/>
      <point x="341" y="431.5"/>
      <point x="384.146" y="376"/>
      <point x="384.146" y="290" type="curve" smooth="yes"/>
      <point x="384.146" y="286.722"/>
      <point x="384.101" y="283.388"/>
      <point x="384" y="280" type="curve"/>
      <point x="294" y="280" type="line" smooth="yes"/>
      <point x="220" y="280"/>
      <point x="160" y="245.216"/>
      <point x="160" y="180" type="curve" smooth="yes"/>
      <point x="160" y="94"/>
      <point x="272" y="71"/>
      <point x="362" y="71" type="curve" smooth="yes"/>
      <point x="515" y="71"/>
      <point x="606" y="158"/>
      <point x="606" y="300" type="curve"/>
      <point x="617.942" y="288.697"/>
      <point x="624.757" y="282.252"/>
      <point x="640" y="274" type="curve"/>
      <point x="640" y="114"/>
      <point x="542" y="0"/>
      <point x="359" y="0" type="curve" smooth="yes"/>
      <point x="238" y="0"/>
      <point x="125" y="46"/>
    </contour>
    <contour>
      <point x="226.5" y="543" type="curve" smooth="yes"/>
      <point x="226.5" y="567"/>
      <point x="297.5" y="590"/>
      <point x="369.5" y="590" type="curve" smooth="yes"/>
      <point x="475.414" y="590"/>
      <point x="557.25" y="537"/>
      <point x="590.25" y="422" type="curve"/>
      <point x="542.079" y="486.84"/>
      <point x="453.48" y="519"/>
      <point x="364.5" y="519" type="curve" smooth="yes"/>
      <point x="318.175" y="519"/>
      <point x="280.5" y="514"/>
      <point x="247.5" y="508" type="curve"/>
      <point x="249.5" y="510"/>
      <point x="250.5" y="513"/>
      <point x="250.5" y="515" type="curve" smooth="yes"/>
      <point x="250.5" y="526"/>
      <point x="226.5" y="531"/>
    </contour>
    <contour>
      <point x="131.25" y="448.25" type="line"/>
      <point x="209.813" y="475.869"/>
      <point x="280.5" y="493.75"/>
      <point x="356.5" y="493.75" type="curve" smooth="yes"/>
      <point x="511.592" y="493.75"/>
      <point x="605.826" y="408.44"/>
      <point x="605.826" y="290.25" type="curve" smooth="yes"/>
      <point x="605.826" y="286.25"/>
      <point x="606" y="287"/>
      <point x="606" y="279" type="curve"/>
      <point x="640" y="267" type="line"/>
      <point x="640" y="301"/>
      <point x="637.68" y="330.021"/>
      <point x="632.25" y="356" type="curve"/>
      <point x="620.25" y="490"/>
      <point x="558.102" y="629"/>
      <point x="363.5" y="629" type="curve" smooth="yes"/>
      <point x="248.5" y="629"/>
      <point x="185.5" y="583"/>
      <point x="185.5" y="546" type="curve" smooth="yes"/>
      <point x="185.5" y="524"/>
      <point x="213.5" y="520"/>
      <point x="213.5" y="508" type="curve" smooth="yes"/>
      <point x="213.5" y="499"/>
      <point x="162.271" y="486.479"/>
      <point x="131.25" y="479.25" type="curve"/>
    </contour>
    <contour>
      <point x="27" y="221" type="curve" smooth="yes"/>
      <point x="27" y="352.7"/>
      <point x="99.7562" y="433"/>
      <point x="239" y="433" type="curve" smooth="yes"/>
      <point x="248" y="433"/>
      <point x="271" y="433"/>
      <point x="293" y="427" type="curve"/>
      <point x="272" y="416"/>
      <point x="194" y="406"/>
      <point x="177" y="400" type="curve"/>
      <point x="102" y="382"/>
      <point x="56" y="319.268"/>
      <point x="56" y="218" type="curve" smooth="yes"/>
      <point x="56" y="137.333"/>
      <point x="83" y="75.333"/>
      <point x="135" y="30" type="curve"/>
      <point x="135" y="0" type="line"/>
      <point x="68.5828" y="33.2086"/>
      <point x="27" y="120.07"/>
    </contour>
  </outline>
</glyph>
<glyph name="si_DYAa.post.alt" format="1">
  <advance width="1220"/>
  <outline>
    <contour>
      <point x="928" y="111" type="curve" smooth="yes"/>
      <point x="928" y="119"/>
      <point x="928" y="126"/>
      <point x="929" y="133" type="curve"/>
      <point x="956" y="133" type="line"/>
      <point x="955" y="129"/>
      <point x="955" y="124"/>
      <point x="955" y="118" type="curve" smooth="yes"/>
      <point x="955" y="70"/>
      <point x="979" y="37"/>
      <point x="1024" y="37" type="curve" smooth="yes"/>
      <point x="1083" y="38"/>
      <point x="1110" y="92"/>
      <point x="1110" y="202" type="curve" smooth="yes"/>
      <point x="1110" y="312"/>
      <point x="1083" y="367"/>
      <point x="1024" y="367" type="curve" smooth="yes"/>
      <point x="986" y="367"/>
      <point x="955" y="334"/>
      <point x="955" y="286" type="curve" smooth="yes"/>
      <point x="955" y="280"/>
      <point x="955" y="275"/>
      <point x="956" y="271" type="curve"/>
      <point x="929" y="271" type="line"/>
      <point x="928" y="278"/>
      <point x="928" y="285"/>
      <point x="928" y="293" type="curve" smooth="yes"/>
      <point x="928" y="362"/>
      <point x="980" y="404"/>
      <point x="1039" y="404" type="curve" smooth="yes"/>
      <point x="1130" y="404"/>
      <point x="1176" y="330"/>
      <point x="1176" y="202" type="curve" smooth="yes"/>
      <point x="1176" y="74"/>
      <point x="1130" y="0"/>
      <point x="1039" y="0" type="curve" smooth="yes"/>
      <point x="972" y="0"/>
      <point x="928" y="42"/>
    </contour>
    <contour>
      <point x="417" y="21" type="line"/>
      <point x="509" y="60"/>
      <point x="592" y="141"/>
      <point x="592" y="268" type="curve" smooth="yes"/>
      <point x="592" y="338"/>
      <point x="554" y="406"/>
      <point x="489" y="406" type="curve" smooth="yes"/>
      <point x="473" y="406"/>
      <point x="455" y="402"/>
      <point x="440" y="395" type="curve"/>
      <point x="440" y="422" type="line"/>
      <point x="453" y="429"/>
      <point x="474" y="432"/>
      <point x="491" y="432" type="curve" smooth="yes"/>
      <point x="567" y="432"/>
      <point x="621" y="360"/>
      <point x="621" y="273" type="curve" smooth="yes"/>
      <point x="621" y="214"/>
      <point x="609" y="163"/>
      <point x="572" y="108" type="curve"/>
      <point x="611" y="83"/>
      <point x="656" y="71"/>
      <point x="708" y="71" type="curve" smooth="yes"/>
      <point x="787" y="71"/>
      <point x="861" y="114"/>
      <point x="861" y="193" type="curve" smooth="yes"/>
      <point x="861" y="254"/>
      <point x="810" y="280"/>
      <point x="749" y="280" type="curve" smooth="yes"/>
      <point x="717" y="280"/>
      <point x="654" y="287"/>
      <point x="654" y="352" type="curve" smooth="yes"/>
      <point x="654" y="402"/>
      <point x="700" y="432"/>
      <point x="761" y="432" type="curve" smooth="yes"/>
      <point x="820" y="432"/>
      <point x="866" y="400"/>
      <point x="866" y="341" type="curve" smooth="yes"/>
      <point x="866" y="334"/>
      <point x="865" y="328"/>
      <point x="864" y="321" type="curve"/>
      <point x="833" y="321" type="line"/>
      <point x="834" y="327"/>
      <point x="835" y="333"/>
      <point x="835" y="339" type="curve" smooth="yes"/>
      <point x="835" y="382"/>
      <point x="803" y="406"/>
      <point x="760" y="406" type="curve" smooth="yes"/>
      <point x="723" y="406"/>
      <point x="684" y="390"/>
      <point x="684" y="353" type="curve" smooth="yes"/>
      <point x="684" y="316"/>
      <point x="713" y="306"/>
      <point x="752" y="306" type="curve" smooth="yes"/>
      <point x="829" y="306"/>
      <point x="902" y="266"/>
      <point x="902" y="164" type="curve" smooth="yes"/>
      <point x="902" y="66"/>
      <point x="814" y="0"/>
      <point x="727" y="0" type="curve" smooth="yes"/>
      <point x="649" y="0"/>
      <point x="600" y="21"/>
      <point x="552" y="83" type="curve"/>
      <point x="521" y="48"/>
      <point x="477" y="15"/>
      <point x="434" y="1" type="curve"/>
    </contour>
    <contour>
      <point x="31" y="169" type="curve" smooth="yes"/>
      <point x="31" y="274"/>
      <point x="104" y="317"/>
      <point x="223" y="317" type="curve" smooth="yes"/>
      <point x="343" y="317" type="line"/>
      <point x="333" y="363"/>
      <point x="304" y="396"/>
      <point x="260" y="396" type="curve" smooth="yes"/>
      <point x="241" y="396"/>
      <point x="225" y="384"/>
      <point x="216" y="366" type="curve" smooth="yes"/>
      <point x="206" y="344"/>
      <point x="190" y="336"/>
      <point x="175" y="336" type="curve" smooth="yes"/>
      <point x="150" y="336"/>
      <point x="137" y="351"/>
      <point x="137" y="372" type="curve" smooth="yes"/>
      <point x="137" y="408"/>
      <point x="177" y="433"/>
      <point x="232" y="433" type="curve" smooth="yes"/>
      <point x="318" y="433"/>
      <point x="361" y="389"/>
      <point x="379" y="294" type="curve"/>
      <point x="242" y="294" type="line" smooth="yes"/>
      <point x="154" y="294"/>
      <point x="108" y="257"/>
      <point x="108" y="173" type="curve" smooth="yes"/>
      <point x="108" y="89"/>
      <point x="178" y="27"/>
      <point x="261" y="27" type="curve" smooth="yes"/>
      <point x="307" y="27"/>
      <point x="344" y="46"/>
      <point x="384" y="92" type="curve"/>
      <point x="407" y="75" type="line"/>
      <point x="376" y="39"/>
      <point x="306" y="-28"/>
      <point x="306" y="-104" type="curve" smooth="yes"/>
      <point x="306" y="-170"/>
      <point x="345" y="-195"/>
      <point x="409" y="-210" type="curve"/>
      <point x="409" y="-238" type="line"/>
      <point x="395" y="-241"/>
      <point x="377" y="-242"/>
      <point x="355" y="-242" type="curve" smooth="yes"/>
      <point x="284" y="-240"/>
      <point x="249" y="-199"/>
      <point x="249" y="-142" type="curve" smooth="yes"/>
      <point x="249" y="-103"/>
      <point x="272" y="-53"/>
      <point x="319" y="10" type="curve"/>
      <point x="284" y="0"/>
      <point x="261" y="-1"/>
      <point x="234" y="-1" type="curve" smooth="yes"/>
      <point x="103" y="-1"/>
      <point x="31" y="69"/>
    </contour>
  </outline>
</glyph>
<glyph name="si_DYUu.post" format="1">
  <advance width="950"/>
  <outline>
    <contour>
      <point x="423" y="-142" type="curve" smooth="yes"/>
      <point x="423" y="-90"/>
      <point x="469" y="-50"/>
      <point x="524" y="-50" type="curve" smooth="yes"/>
      <point x="566" y="-50"/>
      <point x="604" y="-74"/>
      <point x="618" y="-110" type="curve"/>
      <point x="588" y="-122" type="line"/>
      <point x="581" y="-102"/>
      <point x="558" y="-80"/>
      <point x="524" y="-80" type="curve" smooth="yes"/>
      <point x="488" y="-80"/>
      <point x="456" y="-107"/>
      <point x="456" y="-142" type="curve" smooth="yes"/>
      <point x="456" y="-172"/>
      <point x="480" y="-199"/>
      <point x="546" y="-199" type="curve" smooth="yes"/>
      <point x="857" y="-199" type="line"/>
      <point x="857" y="128" type="line"/>
      <point x="890" y="198" type="line"/>
      <point x="890" y="-235" type="line"/>
      <point x="528" y="-235" type="line" smooth="yes"/>
      <point x="459" y="-235"/>
      <point x="423" y="-186"/>
    </contour>
    <contour>
      <point x="417" y="21" type="line"/>
      <point x="509" y="60"/>
      <point x="592" y="141"/>
      <point x="592" y="268" type="curve" smooth="yes"/>
      <point x="592" y="338"/>
      <point x="554" y="406"/>
      <point x="489" y="406" type="curve" smooth="yes"/>
      <point x="473" y="406"/>
      <point x="455" y="402"/>
      <point x="440" y="395" type="curve"/>
      <point x="440" y="422" type="line"/>
      <point x="453" y="429"/>
      <point x="474" y="432"/>
      <point x="491" y="432" type="curve" smooth="yes"/>
      <point x="567" y="432"/>
      <point x="621" y="360"/>
      <point x="621" y="273" type="curve" smooth="yes"/>
      <point x="621" y="214"/>
      <point x="609" y="163"/>
      <point x="572" y="108" type="curve"/>
      <point x="611" y="83"/>
      <point x="656" y="71"/>
      <point x="708" y="71" type="curve" smooth="yes"/>
      <point x="787" y="71"/>
      <point x="861" y="114"/>
      <point x="861" y="193" type="curve" smooth="yes"/>
      <point x="861" y="254"/>
      <point x="810" y="280"/>
      <point x="749" y="280" type="curve" smooth="yes"/>
      <point x="717" y="280"/>
      <point x="654" y="287"/>
      <point x="654" y="352" type="curve" smooth="yes"/>
      <point x="654" y="402"/>
      <point x="700" y="432"/>
      <point x="761" y="432" type="curve" smooth="yes"/>
      <point x="820" y="432"/>
      <point x="866" y="400"/>
      <point x="866" y="341" type="curve" smooth="yes"/>
      <point x="866" y="334"/>
      <point x="865" y="328"/>
      <point x="864" y="321" type="curve"/>
      <point x="833" y="321" type="line"/>
      <point x="834" y="327"/>
      <point x="835" y="333"/>
      <point x="835" y="339" type="curve" smooth="yes"/>
      <point x="835" y="382"/>
      <point x="803" y="406"/>
      <point x="760" y="406" type="curve" smooth="yes"/>
      <point x="723" y="406"/>
      <point x="684" y="390"/>
      <point x="684" y="353" type="curve" smooth="yes"/>
      <point x="684" y="316"/>
      <point x="713" y="306"/>
      <point x="752" y="306" type="curve" smooth="yes"/>
      <point x="829" y="306"/>
      <point x="902" y="266"/>
      <point x="902" y="164" type="curve" smooth="yes"/>
      <point x="902" y="66"/>
      <point x="814" y="0"/>
      <point x="727" y="0" type="curve" smooth="yes"/>
      <point x="649" y="0"/>
      <point x="600" y="21"/>
      <point x="552" y="83" type="curve"/>
      <point x="521" y="48"/>
      <point x="477" y="15"/>
      <point x="434" y="1" type="curve"/>
    </contour>
    <contour>
      <point x="31" y="169" type="curve" smooth="yes"/>
      <point x="31" y="274"/>
      <point x="104" y="317"/>
      <point x="223" y="317" type="curve" smooth="yes"/>
      <point x="343" y="317" type="line"/>
      <point x="333" y="363"/>
      <point x="304" y="396"/>
      <point x="260" y="396" type="curve" smooth="yes"/>
      <point x="241" y="396"/>
      <point x="225" y="384"/>
      <point x="216" y="366" type="curve" smooth="yes"/>
      <point x="206" y="344"/>
      <point x="190" y="336"/>
      <point x="175" y="336" type="curve" smooth="yes"/>
      <point x="150" y="336"/>
      <point x="137" y="351"/>
      <point x="137" y="372" type="curve" smooth="yes"/>
      <point x="137" y="408"/>
      <point x="177" y="433"/>
      <point x="232" y="433" type="curve" smooth="yes"/>
      <point x="318" y="433"/>
      <point x="361" y="389"/>
      <point x="379" y="294" type="curve"/>
      <point x="242" y="294" type="line" smooth="yes"/>
      <point x="154" y="294"/>
      <point x="108" y="257"/>
      <point x="108" y="173" type="curve" smooth="yes"/>
      <point x="108" y="89"/>
      <point x="178" y="27"/>
      <point x="261" y="27" type="curve" smooth="yes"/>
      <point x="307" y="27"/>
      <point x="344" y="46"/>
      <point x="384" y="92" type="curve"/>
      <point x="407" y="75" type="line"/>
      <point x="376" y="39"/>
      <point x="306" y="-28"/>
      <point x="306" y="-104" type="curve" smooth="yes"/>
      <point x="306" y="-170"/>
      <point x="345" y="-195"/>
      <point x="409" y="-210" type="curve"/>
      <point x="409" y="-238" type="line"/>
      <point x="395" y="-241"/>
      <point x="377" y="-242"/>
      <point x="355" y="-242" type="curve" smooth="yes"/>
      <point x="284" y="-240"/>
      <point x="249" y="-199"/>
      <point x="249" y="-142" type="curve" smooth="yes"/>
      <point x="249" y="-103"/>
      <point x="272" y="-53"/>
      <point x="319" y="10" type="curve"/>
      <point x="284" y="0"/>
      <point x="261" y="-1"/>
      <point x="234" y="-1" type="curve" smooth="yes"/>
      <point x="103" y="-1"/>
      <point x="31" y="69"/>
    </contour>
  </outline>
</glyph>
<glyph name="si_Da.reph" format="1">
  <advance width="456"/>
  <outline>
    <contour>
      <point x="199" y="511" type="curve" smooth="yes"/>
      <point x="199" y="490"/>
      <point x="217" y="474"/>
      <point x="240" y="474" type="curve" smooth="yes"/>
      <point x="262" y="474"/>
      <point x="280" y="490"/>
      <point x="280" y="511" type="curve" smooth="yes"/>
      <point x="280" y="532"/>
      <point x="262" y="548"/>
      <point x="240" y="548" type="curve" smooth="yes"/>
      <point x="217" y="548"/>
      <point x="199" y="532"/>
    </contour>
    <contour>
      <point x="96" y="530" type="curve" smooth="yes"/>
      <point x="96" y="594"/>
      <point x="155" y="631"/>
      <point x="236" y="631" type="curve" smooth="yes"/>
      <point x="314" y="631"/>
      <point x="378" y="588"/>
      <point x="378" y="517" type="curve" smooth="yes"/>
      <point x="378" y="493"/>
      <point x="369" y="471"/>
      <point x="352" y="452" type="curve"/>
      <point x="319" y="452" type="line"/>
      <point x="332" y="464"/>
      <point x="347" y="489"/>
      <point x="347" y="516" type="curve" smooth="yes"/>
      <point x="347" y="573"/>
      <point x="296" y="604"/>
      <point x="236" y="604" type="curve" smooth="yes"/>
      <point x="183" y="604"/>
      <point x="128" y="583"/>
      <point x="128" y="530" type="curve" smooth="yes"/>
      <point x="128" y="491"/>
      <point x="169" y="472"/>
      <point x="192" y="470" type="curve"/>
      <point x="184" y="476"/>
      <point x="172" y="491"/>
      <point x="172" y="512" type="curve" smooth="yes"/>
      <point x="172" y="547"/>
      <point x="203" y="572"/>
      <point x="238" y="572" type="curve" smooth="yes"/>
      <point x="280" y="572"/>
      <point x="308" y="545"/>
      <point x="308" y="510" type="curve" smooth="yes"/>
      <point x="308" y="471"/>
      <point x="272" y="445"/>
      <point x="214" y="445" type="curve" smooth="yes"/>
      <point x="156" y="445"/>
      <point x="96" y="474"/>
    </contour>
    <contour>
      <point x="31" y="169" type="curve" smooth="yes"/>
      <point x="31" y="274"/>
      <point x="104" y="317"/>
      <point x="223" y="317" type="curve" smooth="yes"/>
      <point x="343" y="317" type="line"/>
      <point x="333" y="363"/>
      <point x="304" y="396"/>
      <point x="260" y="396" type="curve" smooth="yes"/>
      <point x="241" y="396"/>
      <point x="225" y="384"/>
      <point x="216" y="366" type="curve" smooth="yes"/>
      <point x="206" y="344"/>
      <point x="190" y="336"/>
      <point x="175" y="336" type="curve" smooth="yes"/>
      <point x="150" y="336"/>
      <point x="137" y="351"/>
      <point x="137" y="372" type="curve" smooth="yes"/>
      <point x="137" y="408"/>
      <point x="177" y="433"/>
      <point x="232" y="433" type="curve" smooth="yes"/>
      <point x="318" y="433"/>
      <point x="361" y="389"/>
      <point x="379" y="294" type="curve"/>
      <point x="242" y="294" type="line" smooth="yes"/>
      <point x="154" y="294"/>
      <point x="108" y="257"/>
      <point x="108" y="173" type="curve" smooth="yes"/>
      <point x="108" y="89"/>
      <point x="178" y="27"/>
      <point x="261" y="27" type="curve" smooth="yes"/>
      <point x="307" y="27"/>
      <point x="344" y="46"/>
      <point x="384" y="92" type="curve"/>
      <point x="407" y="75" type="line"/>
      <point x="376" y="39"/>
      <point x="306" y="-28"/>
      <point x="306" y="-104" type="curve" smooth="yes"/>
      <point x="306" y="-170"/>
      <point x="345" y="-195"/>
      <point x="409" y="-210" type="curve"/>
      <point x="409" y="-238" type="line"/>
      <point x="395" y="-241"/>
      <point x="377" y="-242"/>
      <point x="355" y="-242" type="curve" smooth="yes"/>
      <point x="284" y="-240"/>
      <point x="249" y="-199"/>
      <point x="249" y="-142" type="curve" smooth="yes"/>
      <point x="249" y="-103"/>
      <point x="272" y="-53"/>
      <point x="319" y="10" type="curve"/>
      <point x="284" y="0"/>
      <point x="261" y="-1"/>
      <point x="234" y="-1" type="curve" smooth="yes"/>
      <point x="103" y="-1"/>
      <point x="31" y="69"/>
    </contour>
  </outline>
</glyph>
<glyph name="si_Ddh.halant" format="1">
  <advance width="647"/>
  <outline>
    <contour>
      <point x="477" y="519" type="curve"/>
      <point x="477" y="652" type="line"/>
      <point x="498" y="635"/>
      <point x="563" y="618"/>
      <point x="563" y="562" type="curve" smooth="yes"/>
      <point x="563" y="526"/>
      <point x="540" y="513"/>
      <point x="510" y="513" type="curve" smooth="yes"/>
      <point x="499" y="513"/>
      <point x="483" y="516"/>
    </contour>
    <contour>
      <point x="449" y="483" type="line"/>
      <point x="477" y="453" type="line"/>
      <point x="477" y="496" type="line"/>
      <point x="486" y="493"/>
      <point x="504" y="488"/>
      <point x="527" y="488" type="curve" smooth="yes"/>
      <point x="574" y="488"/>
      <point x="604" y="521"/>
      <point x="604" y="561" type="curve" smooth="yes"/>
      <point x="604" y="654"/>
      <point x="505" y="650"/>
      <point x="449" y="697" type="curve"/>
    </contour>
    <contour>
      <point x="330" y="480" type="curve" smooth="yes"/>
      <point x="330" y="430"/>
      <point x="350" y="391"/>
      <point x="408" y="391" type="curve" smooth="yes"/>
      <point x="432" y="391"/>
      <point x="462" y="401"/>
      <point x="477" y="436" type="curve"/>
      <point x="448" y="475"/>
      <point x="390" y="528"/>
      <point x="352" y="556" type="curve"/>
      <point x="342" y="540"/>
      <point x="330" y="514"/>
    </contour>
    <contour>
      <point x="15" y="288" type="line"/>
      <point x="15" y="315" type="line"/>
      <point x="258" y="315" type="line"/>
      <point x="255" y="358"/>
      <point x="225" y="391"/>
      <point x="195" y="391" type="curve" smooth="yes"/>
      <point x="177" y="391"/>
      <point x="162" y="387"/>
      <point x="148" y="363" type="curve" smooth="yes"/>
      <point x="137" y="344"/>
      <point x="124" y="339"/>
      <point x="110" y="339" type="curve" smooth="yes"/>
      <point x="90" y="339"/>
      <point x="73" y="353"/>
      <point x="73" y="374" type="curve" smooth="yes"/>
      <point x="73" y="414"/>
      <point x="120" y="432"/>
      <point x="162" y="432" type="curve" smooth="yes"/>
      <point x="246" y="432"/>
      <point x="291" y="374"/>
      <point x="292" y="288" type="curve"/>
      <point x="220" y="288" type="line" smooth="yes"/>
      <point x="127" y="288"/>
      <point x="83" y="230"/>
      <point x="83" y="174" type="curve" smooth="yes"/>
      <point x="83" y="122"/>
      <point x="123" y="71"/>
      <point x="198" y="71" type="curve" smooth="yes"/>
      <point x="247" y="71"/>
      <point x="299" y="95"/>
      <point x="299" y="143" type="curve" smooth="yes"/>
      <point x="299" y="178" type="line"/>
      <point x="326" y="178" type="line"/>
      <point x="326" y="143" type="line" smooth="yes"/>
      <point x="326" y="97"/>
      <point x="374" y="71"/>
      <point x="424" y="71" type="curve" smooth="yes"/>
      <point x="520" y="71"/>
      <point x="559" y="166"/>
      <point x="559" y="232" type="curve" smooth="yes"/>
      <point x="559" y="317"/>
      <point x="517" y="376"/>
      <point x="496" y="408" type="curve"/>
      <point x="475" y="373"/>
      <point x="444" y="355"/>
      <point x="400" y="355" type="curve" smooth="yes"/>
      <point x="337" y="355"/>
      <point x="300" y="410"/>
      <point x="300" y="476" type="curve" smooth="yes"/>
      <point x="300" y="526"/>
      <point x="317" y="561"/>
      <point x="342" y="593" type="curve"/>
      <point x="404" y="560"/>
      <point x="476" y="487"/>
      <point x="518" y="428" type="curve" smooth="yes"/>
      <point x="561" y="368"/>
      <point x="597" y="292"/>
      <point x="597" y="217" type="curve" smooth="yes"/>
      <point x="597" y="127"/>
      <point x="553" y="0"/>
      <point x="426" y="0" type="curve" smooth="yes"/>
      <point x="364" y="0"/>
      <point x="335" y="29"/>
      <point x="313" y="59" type="curve"/>
      <point x="283" y="22"/>
      <point x="250" y="0"/>
      <point x="199" y="0" type="curve" smooth="yes"/>
      <point x="98" y="0"/>
      <point x="46" y="81"/>
      <point x="46" y="162" type="curve" smooth="yes"/>
      <point x="46" y="212"/>
      <point x="71" y="264"/>
      <point x="125" y="288" type="curve"/>
    </contour>
  </outline>
</glyph>
<glyph name="si_DdhI" format="1">
  <advance width="647"/>
  <outline>
    <contour>
      <point x="112" y="574" type="curve" smooth="yes"/>
      <point x="112" y="666"/>
      <point x="226" y="700"/>
      <point x="334" y="700" type="curve" smooth="yes"/>
      <point x="437" y="700"/>
      <point x="556" y="664"/>
      <point x="556" y="573" type="curve" smooth="yes"/>
      <point x="556" y="526"/>
      <point x="518" y="499"/>
      <point x="464" y="499" type="curve"/>
      <point x="458" y="504"/>
      <point x="451" y="513"/>
      <point x="447" y="521" type="curve"/>
      <point x="460" y="521"/>
      <point x="520" y="520"/>
      <point x="520" y="565" type="curve" smooth="yes"/>
      <point x="520" y="622"/>
      <point x="411" y="635"/>
      <point x="337" y="635" type="curve" smooth="yes"/>
      <point x="218" y="635"/>
      <point x="151" y="611"/>
      <point x="151" y="566" type="curve" smooth="yes"/>
      <point x="151" y="527"/>
      <point x="194" y="514"/>
      <point x="228" y="514" type="curve" smooth="yes"/>
      <point x="273" y="514"/>
      <point x="307" y="527"/>
      <point x="324" y="535" type="curve"/>
      <point x="323" y="528"/>
      <point x="324" y="521"/>
      <point x="320" y="505" type="curve"/>
      <point x="295" y="497"/>
      <point x="269" y="489"/>
      <point x="226" y="489" type="curve" smooth="yes"/>
      <point x="166" y="489"/>
      <point x="112" y="516"/>
    </contour>
    <contour>
      <point x="341" y="480" type="curve" smooth="yes"/>
      <point x="341" y="430"/>
      <point x="361" y="391"/>
      <point x="418" y="391" type="curve" smooth="yes"/>
      <point x="442" y="391"/>
      <point x="475" y="401"/>
      <point x="490" y="436" type="curve"/>
      <point x="461" y="475"/>
      <point x="400" y="528"/>
      <point x="362" y="556" type="curve"/>
      <point x="352" y="540"/>
      <point x="341" y="514"/>
    </contour>
    <contour>
      <point x="15" y="288" type="line"/>
      <point x="15" y="315" type="line"/>
      <point x="258" y="315" type="line"/>
      <point x="255" y="358"/>
      <point x="225" y="391"/>
      <point x="195" y="391" type="curve" smooth="yes"/>
      <point x="177" y="391"/>
      <point x="162" y="387"/>
      <point x="148" y="363" type="curve" smooth="yes"/>
      <point x="137" y="344"/>
      <point x="124" y="339"/>
      <point x="110" y="339" type="curve" smooth="yes"/>
      <point x="90" y="339"/>
      <point x="73" y="353"/>
      <point x="73" y="374" type="curve" smooth="yes"/>
      <point x="73" y="414"/>
      <point x="120" y="432"/>
      <point x="162" y="432" type="curve" smooth="yes"/>
      <point x="246" y="432"/>
      <point x="291" y="374"/>
      <point x="292" y="288" type="curve"/>
      <point x="220" y="288" type="line" smooth="yes"/>
      <point x="127" y="288"/>
      <point x="83" y="230"/>
      <point x="83" y="174" type="curve" smooth="yes"/>
      <point x="83" y="122"/>
      <point x="123" y="71"/>
      <point x="198" y="71" type="curve" smooth="yes"/>
      <point x="247" y="71"/>
      <point x="299" y="95"/>
      <point x="299" y="143" type="curve" smooth="yes"/>
      <point x="299" y="178" type="line"/>
      <point x="326" y="178" type="line"/>
      <point x="326" y="143" type="line" smooth="yes"/>
      <point x="326" y="97"/>
      <point x="374" y="71"/>
      <point x="424" y="71" type="curve" smooth="yes"/>
      <point x="520" y="71"/>
      <point x="559" y="166"/>
      <point x="559" y="232" type="curve" smooth="yes"/>
      <point x="559" y="317"/>
      <point x="530" y="376"/>
      <point x="509" y="408" type="curve"/>
      <point x="488" y="373"/>
      <point x="454" y="355"/>
      <point x="411" y="355" type="curve" smooth="yes"/>
      <point x="348" y="355"/>
      <point x="311" y="410"/>
      <point x="311" y="476" type="curve" smooth="yes"/>
      <point x="311" y="526"/>
      <point x="328" y="561"/>
      <point x="353" y="593" type="curve"/>
      <point x="410" y="560"/>
      <point x="480" y="498"/>
      <point x="524" y="441" type="curve" smooth="yes"/>
      <point x="569" y="381"/>
      <point x="597" y="300"/>
      <point x="597" y="217" type="curve" smooth="yes"/>
      <point x="597" y="127"/>
      <point x="553" y="0"/>
      <point x="426" y="0" type="curve" smooth="yes"/>
      <point x="364" y="0"/>
      <point x="335" y="29"/>
      <point x="313" y="59" type="curve"/>
      <point x="283" y="22"/>
      <point x="250" y="0"/>
      <point x="199" y="0" type="curve" smooth="yes"/>
      <point x="98" y="0"/>
      <point x="46" y="81"/>
      <point x="46" y="162" type="curve" smooth="yes"/>
      <point x="46" y="212"/>
      <point x="71" y="264"/>
      <point x="125" y="288" type="curve"/>
    </contour>
  </outline>
</glyph>
<glyph name="si_DdhIi" format="1">
  <advance width="647"/>
  <outline>
    <contour>
      <point x="342" y="480" type="curve" smooth="yes"/>
      <point x="342" y="430"/>
      <point x="362" y="391"/>
      <point x="418" y="391" type="curve" smooth="yes"/>
      <point x="443" y="391"/>
      <point x="473" y="401"/>
      <point x="489" y="436" type="curve"/>
      <point x="460" y="475"/>
      <point x="401" y="528"/>
      <point x="362" y="556" type="curve"/>
      <point x="353" y="540"/>
      <point x="342" y="514"/>
    </contour>
    <contour>
      <point x="15" y="288" type="line"/>
      <point x="15" y="315" type="line"/>
      <point x="258" y="315" type="line"/>
      <point x="255" y="358"/>
      <point x="225" y="391"/>
      <point x="195" y="391" type="curve" smooth="yes"/>
      <point x="177" y="391"/>
      <point x="162" y="387"/>
      <point x="148" y="363" type="curve" smooth="yes"/>
      <point x="137" y="344"/>
      <point x="124" y="339"/>
      <point x="110" y="339" type="curve" smooth="yes"/>
      <point x="90" y="339"/>
      <point x="73" y="353"/>
      <point x="73" y="374" type="curve" smooth="yes"/>
      <point x="73" y="414"/>
      <point x="120" y="432"/>
      <point x="162" y="432" type="curve" smooth="yes"/>
      <point x="246" y="432"/>
      <point x="291" y="374"/>
      <point x="292" y="288" type="curve"/>
      <point x="220" y="288" type="line" smooth="yes"/>
      <point x="127" y="288"/>
      <point x="83" y="230"/>
      <point x="83" y="174" type="curve" smooth="yes"/>
      <point x="83" y="122"/>
      <point x="123" y="71"/>
      <point x="198" y="71" type="curve" smooth="yes"/>
      <point x="247" y="71"/>
      <point x="299" y="95"/>
      <point x="299" y="143" type="curve" smooth="yes"/>
      <point x="299" y="178" type="line"/>
      <point x="326" y="178" type="line"/>
      <point x="326" y="143" type="line" smooth="yes"/>
      <point x="326" y="97"/>
      <point x="374" y="71"/>
      <point x="424" y="71" type="curve" smooth="yes"/>
      <point x="520" y="71"/>
      <point x="559" y="166"/>
      <point x="559" y="232" type="curve" smooth="yes"/>
      <point x="559" y="317"/>
      <point x="530" y="378"/>
      <point x="509" y="408" type="curve"/>
      <point x="488" y="373"/>
      <point x="455" y="355"/>
      <point x="412" y="355" type="curve" smooth="yes"/>
      <point x="348" y="355"/>
      <point x="312" y="410"/>
      <point x="312" y="476" type="curve" smooth="yes"/>
      <point x="312" y="526"/>
      <point x="328" y="561"/>
      <point x="354" y="593" type="curve"/>
      <point x="414" y="561"/>
      <point x="485" y="494"/>
      <point x="529" y="434" type="curve" smooth="yes"/>
      <point x="577" y="370"/>
      <point x="597" y="295"/>
      <point x="597" y="217" type="curve" smooth="yes"/>
      <point x="597" y="127"/>
      <point x="553" y="0"/>
      <point x="426" y="0" type="curve" smooth="yes"/>
      <point x="364" y="0"/>
      <point x="335" y="29"/>
      <point x="313" y="59" type="curve"/>
      <point x="283" y="22"/>
      <point x="250" y="0"/>
      <point x="199" y="0" type="curve" smooth="yes"/>
      <point x="98" y="0"/>
      <point x="46" y="81"/>
      <point x="46" y="162" type="curve" smooth="yes"/>
      <point x="46" y="212"/>
      <point x="71" y="264"/>
      <point x="125" y="288" type="curve"/>
    </contour>
    <contour>
      <point x="448" y="576" type="curve" smooth="yes"/>
      <point x="448" y="547"/>
      <point x="470" y="524"/>
      <point x="499" y="524" type="curve" smooth="yes"/>
      <point x="528" y="524"/>
      <point x="550" y="547"/>
      <point x="550" y="576" type="curve" smooth="yes"/>
      <point x="550" y="604"/>
      <point x="528" y="627"/>
      <point x="499" y="627" type="curve" smooth="yes"/>
      <point x="470" y="627"/>
      <point x="448" y="604"/>
    </contour>
    <contour>
      <point x="112" y="574" type="curve" smooth="yes"/>
      <point x="112" y="666"/>
      <point x="226" y="700"/>
      <point x="335" y="700" type="curve" smooth="yes"/>
      <point x="503" y="700"/>
      <point x="580" y="651"/>
      <point x="580" y="575" type="curve" smooth="yes"/>
      <point x="580" y="535"/>
      <point x="549" y="495"/>
      <point x="499" y="495" type="curve" smooth="yes"/>
      <point x="451" y="495"/>
      <point x="418" y="534"/>
      <point x="418" y="574" type="curve" smooth="yes"/>
      <point x="418" y="588"/>
      <point x="424" y="612"/>
      <point x="441" y="629" type="curve"/>
      <point x="420" y="634"/>
      <point x="379" y="638"/>
      <point x="330" y="638" type="curve" smooth="yes"/>
      <point x="216" y="638"/>
      <point x="151" y="611"/>
      <point x="151" y="566" type="curve" smooth="yes"/>
      <point x="151" y="527"/>
      <point x="194" y="514"/>
      <point x="228" y="514" type="curve" smooth="yes"/>
      <point x="273" y="514"/>
      <point x="307" y="527"/>
      <point x="324" y="535" type="curve"/>
      <point x="323" y="528"/>
      <point x="324" y="521"/>
      <point x="320" y="505" type="curve"/>
      <point x="295" y="497"/>
      <point x="269" y="489"/>
      <point x="226" y="489" type="curve" smooth="yes"/>
      <point x="166" y="489"/>
      <point x="112" y="516"/>
    </contour>
  </outline>
</glyph>
<glyph name="si_DdhU" format="1">
  <advance width="647"/>
  <outline>
    <contour>
      <point x="51.5" y="-142.5" type="curve" smooth="yes"/>
      <point x="51.5" y="-90.4912"/>
      <point x="97.793" y="-50.5"/>
      <point x="153" y="-50.5" type="curve" smooth="yes"/>
      <point x="194.906" y="-50.5"/>
      <point x="232.25" y="-74.1416"/>
      <point x="247" y="-110" type="curve"/>
      <point x="217" y="-121.5" type="line"/>
      <point x="209.982" y="-101.896"/>
      <point x="186" y="-80"/>
      <point x="153" y="-80" type="curve" smooth="yes"/>
      <point x="116.296" y="-80"/>
      <point x="85" y="-106.714"/>
      <point x="85" y="-142.5" type="curve" smooth="yes"/>
      <point x="85" y="-171.663"/>
      <point x="108.384" y="-199"/>
      <point x="174" y="-199" type="curve" smooth="yes"/>
      <point x="552.25" y="-199" type="line"/>
      <point x="552.25" y="128" type="line"/>
      <point x="585.25" y="219" type="line"/>
      <point x="585.25" y="-235" type="line"/>
      <point x="157" y="-235" type="line" smooth="yes"/>
      <point x="87.8398" y="-235"/>
      <point x="51.5" y="-186.092"/>
    </contour>
    <contour>
      <point x="15" y="288" type="line"/>
      <point x="15" y="315" type="line"/>
      <point x="258" y="315" type="line"/>
      <point x="255.164" y="357.533"/>
      <point x="225" y="391.268"/>
      <point x="195" y="391.268" type="curve" smooth="yes"/>
      <point x="177.364" y="391.268"/>
      <point x="162.118" y="387.386"/>
      <point x="148" y="363" type="curve" smooth="yes"/>
      <point x="137" y="344"/>
      <point x="123.646" y="339.264"/>
      <point x="110" y="339.264" type="curve" smooth="yes"/>
      <point x="90" y="339.264"/>
      <point x="73.2109" y="353"/>
      <point x="73.2109" y="374.122" type="curve" smooth="yes"/>
      <point x="73.2109" y="414"/>
      <point x="120.101" y="432.167"/>
      <point x="162.279" y="432.167" type="curve" smooth="yes"/>
      <point x="246.407" y="432.167"/>
      <point x="290.627" y="373.979"/>
      <point x="292" y="288" type="curve"/>
      <point x="220" y="288" type="line" smooth="yes"/>
      <point x="126.957" y="288"/>
      <point x="83.3915" y="230"/>
      <point x="83.3915" y="174" type="curve" smooth="yes"/>
      <point x="83.3915" y="121.642"/>
      <point x="123.262" y="71"/>
      <point x="198" y="71" type="curve" smooth="yes"/>
      <point x="247.046" y="71"/>
      <point x="299" y="95.1648"/>
      <point x="299" y="143" type="curve" smooth="yes"/>
      <point x="299" y="178" type="line"/>
      <point x="326" y="178" type="line"/>
      <point x="326" y="143" type="line" smooth="yes"/>
      <point x="326" y="97.0863"/>
      <point x="373.775" y="71"/>
      <point x="424" y="71" type="curve" smooth="yes"/>
      <point x="520.489" y="71"/>
      <point x="561.144" y="159"/>
      <point x="561.144" y="263.218" type="curve" smooth="yes"/>
      <point x="561.144" y="418"/>
      <point x="434" y="536"/>
      <point x="373" y="566" type="curve"/>
      <point x="361" y="552"/>
      <point x="347" y="515.234"/>
      <point x="347" y="481" type="curve" smooth="yes"/>
      <point x="347" y="422.5"/>
      <point x="376" y="393"/>
      <point x="424" y="393" type="curve" smooth="yes"/>
      <point x="464" y="393"/>
      <point x="490" y="431.5"/>
      <point x="501" y="460" type="curve"/>
      <point x="518" y="430" type="line"/>
      <point x="502" y="400"/>
      <point x="474" y="363"/>
      <point x="422" y="363" type="curve" smooth="yes"/>
      <point x="356" y="363"/>
      <point x="318" y="411"/>
      <point x="318" y="477" type="curve" smooth="yes"/>
      <point x="318" y="541"/>
      <point x="348" y="586"/>
      <point x="359" y="603" type="curve"/>
      <point x="473" y="558"/>
      <point x="597.987" y="407"/>
      <point x="597.987" y="249.222" type="curve" smooth="yes"/>
      <point x="597.987" y="123"/>
      <point x="553.345" y="0"/>
      <point x="426" y="0" type="curve" smooth="yes"/>
      <point x="364" y="0"/>
      <point x="334.63" y="28.5207"/>
      <point x="313" y="59" type="curve"/>
      <point x="283.406" y="21.6861"/>
      <point x="250" y="0"/>
      <point x="199" y="0" type="curve" smooth="yes"/>
      <point x="97.9838" y="0"/>
      <point x="45.8805" y="81.1903"/>
      <point x="45.8805" y="162" type="curve" smooth="yes"/>
      <point x="45.8805" y="212"/>
      <point x="71.0487" y="264.198"/>
      <point x="125" y="288" type="curve"/>
    </contour>
  </outline>
</glyph>
<glyph name="si_DhRIi" format="1">
  <advance width="638"/>
  <outline>
    <contour>
      <point x="56" y="-44" type="curve"/>
      <point x="83" y="-44" type="line"/>
      <point x="118" y="-119"/>
      <point x="188" y="-157"/>
      <point x="293" y="-157" type="curve" smooth="yes"/>
      <point x="436" y="-157"/>
      <point x="554" y="-90"/>
      <point x="554" y="50" type="curve" smooth="yes"/>
      <point x="554" y="71"/>
      <point x="549" y="93"/>
      <point x="542" y="102" type="curve"/>
      <point x="555" y="133" type="line"/>
      <point x="573" y="106"/>
      <point x="582" y="75"/>
      <point x="582" y="38" type="curve" smooth="yes"/>
      <point x="582" y="-124"/>
      <point x="453" y="-219"/>
      <point x="309" y="-219" type="curve" smooth="yes"/>
      <point x="176" y="-219"/>
      <point x="93" y="-153"/>
    </contour>
    <contour>
      <point x="400" y="555" type="curve" smooth="yes"/>
      <point x="400" y="585"/>
      <point x="427" y="609"/>
      <point x="460" y="609" type="curve" smooth="yes"/>
      <point x="493" y="609"/>
      <point x="520" y="585"/>
      <point x="520" y="555" type="curve" smooth="yes"/>
      <point x="520" y="525"/>
      <point x="493" y="501"/>
      <point x="460" y="501" type="curve" smooth="yes"/>
      <point x="427" y="501"/>
      <point x="400" y="525"/>
    </contour>
    <contour>
      <point x="75" y="562" type="curve" smooth="yes"/>
      <point x="75" y="476"/>
      <point x="196" y="483"/>
      <point x="285" y="478" type="curve" smooth="yes"/>
      <point x="386" y="472"/>
      <point x="452" y="472"/>
      <point x="505" y="414" type="curve" smooth="yes"/>
      <point x="533" y="384"/>
      <point x="552" y="334"/>
      <point x="552" y="286" type="curve"/>
      <point x="583" y="274" type="line"/>
      <point x="583" y="356"/>
      <point x="547" y="423"/>
      <point x="498" y="459" type="curve" smooth="yes"/>
      <point x="443" y="499"/>
      <point x="349" y="501"/>
      <point x="284" y="504" type="curve" smooth="yes"/>
      <point x="182" y="508"/>
      <point x="117" y="508"/>
      <point x="117" y="554" type="curve" smooth="yes"/>
      <point x="117" y="606"/>
      <point x="230" y="611"/>
      <point x="306" y="611" type="curve" smooth="yes"/>
      <point x="348" y="611"/>
      <point x="380" y="609"/>
      <point x="387" y="608" type="curve"/>
      <point x="381" y="600"/>
      <point x="368" y="583"/>
      <point x="368" y="558" type="curve" smooth="yes"/>
      <point x="368" y="505"/>
      <point x="416" y="474"/>
      <point x="460" y="474" type="curve" smooth="yes"/>
      <point x="504" y="474"/>
      <point x="552" y="505"/>
      <point x="552" y="558" type="curve" smooth="yes"/>
      <point x="552" y="639"/>
      <point x="442" y="670"/>
      <point x="306" y="670" type="curve" smooth="yes"/>
      <point x="206" y="670"/>
      <point x="75" y="652"/>
    </contour>
    <contour>
      <point x="33" y="195" type="curve" smooth="yes"/>
      <point x="33" y="288"/>
      <point x="86" y="364"/>
      <point x="152" y="387" type="curve" smooth="yes"/>
      <point x="173" y="394"/>
      <point x="196" y="398"/>
      <point x="221" y="398" type="curve"/>
      <point x="221" y="373" type="line" smooth="yes"/>
      <point x="218" y="373"/>
      <point x="214" y="373"/>
      <point x="211" y="373" type="curve" smooth="yes"/>
      <point x="132" y="373"/>
      <point x="67" y="300"/>
      <point x="67" y="208" type="curve" smooth="yes"/>
      <point x="67" y="132"/>
      <point x="115" y="71"/>
      <point x="188" y="71" type="curve" smooth="yes"/>
      <point x="239" y="71"/>
      <point x="290" y="92"/>
      <point x="290" y="156" type="curve" smooth="yes"/>
      <point x="290" y="196" type="line"/>
      <point x="318" y="196" type="line"/>
      <point x="318" y="156" type="line" smooth="yes"/>
      <point x="318" y="92"/>
      <point x="368" y="71"/>
      <point x="417" y="71" type="curve" smooth="yes"/>
      <point x="499" y="71"/>
      <point x="553" y="159"/>
      <point x="553" y="263" type="curve" smooth="yes"/>
      <point x="553" y="302"/>
      <point x="544" y="371"/>
      <point x="505" y="414" type="curve"/>
      <point x="503" y="427"/>
      <point x="500" y="447"/>
      <point x="498" y="459" type="curve"/>
      <point x="546" y="424"/>
      <point x="588" y="353"/>
      <point x="590" y="248" type="curve" smooth="yes"/>
      <point x="590" y="136"/>
      <point x="547" y="0"/>
      <point x="422" y="0" type="curve" smooth="yes"/>
      <point x="373" y="0"/>
      <point x="333" y="20"/>
      <point x="303" y="59" type="curve"/>
      <point x="272" y="20"/>
      <point x="235" y="0"/>
      <point x="190" y="0" type="curve" smooth="yes"/>
      <point x="88" y="0"/>
      <point x="33" y="96"/>
    </contour>
  </outline>
</glyph>
<glyph name="si_DhRa" format="1">
  <advance width="638"/>
  <outline>
    <contour>
      <point x="56" y="-44" type="curve"/>
      <point x="83" y="-44" type="line"/>
      <point x="118.333" y="-119.333"/>
      <point x="187.667" y="-157"/>
      <point x="293" y="-157" type="curve" smooth="yes"/>
      <point x="436" y="-157"/>
      <point x="554" y="-90"/>
      <point x="554" y="50" type="curve" smooth="yes"/>
      <point x="554" y="71"/>
      <point x="549" y="93"/>
      <point x="542" y="102" type="curve"/>
      <point x="555" y="133" type="line"/>
      <point x="573" y="106.333"/>
      <point x="582" y="74.667"/>
      <point x="582" y="38" type="curve" smooth="yes"/>
      <point x="582" y="-123.729"/>
      <point x="453" y="-219"/>
      <point x="309" y="-219" type="curve" smooth="yes"/>
      <point x="176" y="-219"/>
      <point x="93.333" y="-153.333"/>
    </contour>
    <contour>
      <point x="33" y="195" type="curve" smooth="yes"/>
      <point x="33" y="288"/>
      <point x="86.2482" y="363.669"/>
      <point x="152" y="387" type="curve" smooth="yes"/>
      <point x="172.667" y="394.333"/>
      <point x="195.667" y="398"/>
      <point x="221" y="398" type="curve"/>
      <point x="221" y="373" type="line"/>
      <point x="217.651" y="373.289"/>
      <point x="214.316" y="373.436"/>
      <point x="211" y="373.436" type="curve" smooth="yes"/>
      <point x="132" y="373.436"/>
      <point x="67" y="301"/>
      <point x="67" y="212" type="curve" smooth="yes"/>
      <point x="67" y="135.558"/>
      <point x="114.568" y="71"/>
      <point x="188" y="71" type="curve" smooth="yes"/>
      <point x="238.911" y="71"/>
      <point x="290" y="92"/>
      <point x="290" y="156" type="curve" smooth="yes"/>
      <point x="290" y="196" type="line"/>
      <point x="318" y="196" type="line"/>
      <point x="318" y="156" type="line" smooth="yes"/>
      <point x="318" y="92"/>
      <point x="367.83" y="71"/>
      <point x="417" y="71" type="curve" smooth="yes"/>
      <point x="512.71" y="71"/>
      <point x="555" y="181"/>
      <point x="555" y="284" type="curve" smooth="yes"/>
      <point x="555" y="442"/>
      <point x="440.908" y="556"/>
      <point x="294" y="556" type="curve" smooth="yes"/>
      <point x="213.333" y="556"/>
      <point x="149.667" y="527.333"/>
      <point x="97" y="468" type="curve"/>
      <point x="65" y="468" type="line"/>
      <point x="121.667" y="542.667"/>
      <point x="199.667" y="580"/>
      <point x="299" y="580" type="curve" smooth="yes"/>
      <point x="462" y="580"/>
      <point x="589" y="446"/>
      <point x="589" y="261" type="curve" smooth="yes"/>
      <point x="589" y="139"/>
      <point x="547.876" y="0"/>
      <point x="422" y="0" type="curve" smooth="yes"/>
      <point x="372.667" y="0"/>
      <point x="333" y="19.6667"/>
      <point x="303" y="59" type="curve"/>
      <point x="272.333" y="20.3333"/>
      <point x="234.672" y="0"/>
      <point x="190" y="0" type="curve" smooth="yes"/>
      <point x="88" y="0"/>
      <point x="33" y="96"/>
    </contour>
  </outline>
</glyph>
